<?xml version="1.0" encoding="UTF-8"?>
<svg version="1.1" xmlns="http://www.w3.org/2000/svg" width="128" height="128">
<path d="M0 0 C0.85464844 -0.01675781 1.70929688 -0.03351562 2.58984375 -0.05078125 C5.5046356 0.37745831 6.87576679 1.38959539 9.0625 3.3125 C9.7225 2.9825 10.3825 2.6525 11.0625 2.3125 C11.5575 5.2825 11.5575 5.2825 12.0625 8.3125 C13.3825 8.6425 14.7025 8.9725 16.0625 9.3125 C16.0625 9.9725 16.0625 10.6325 16.0625 11.3125 C18.0425 11.3125 20.0225 11.3125 22.0625 11.3125 C21.7325 11.9725 21.4025 12.6325 21.0625 13.3125 C22.0525 13.6425 23.0425 13.9725 24.0625 14.3125 C24.0625 14.9725 24.0625 15.6325 24.0625 16.3125 C24.7225 16.3125 25.3825 16.3125 26.0625 16.3125 C26.3925 15.6525 26.7225 14.9925 27.0625 14.3125 C31.70814554 17.81536642 34.84409903 20.35587304 36.0625 26.3125 C36.0625 26.9725 36.0625 27.6325 36.0625 28.3125 C36.7225 27.6525 37.3825 26.9925 38.0625 26.3125 C40.2235662 31.30996559 40.20080815 35.68265906 40.03515625 41.01953125 C39.79506239 43.27793733 39.79506239 43.27793733 41.0625 44.3125 C41.0625 41.6725 41.0625 39.0325 41.0625 36.3125 C41.3925 36.3125 41.7225 36.3125 42.0625 36.3125 C45.56573827 70.30602346 45.56573827 70.30602346 43.0625 75.3125 C43.7225 75.3125 44.3825 75.3125 45.0625 75.3125 C45.5575 73.3325 45.5575 73.3325 46.0625 71.3125 C47.0525 75.2725 47.0525 75.2725 48.0625 79.3125 C48.7225 79.3125 49.3825 79.3125 50.0625 79.3125 C50.124375 80.034375 50.18625 80.75625 50.25 81.5 C51.32948074 85.2366641 53.10806869 86.83902263 56.0625 89.3125 C58.23596568 90.17369134 58.23596568 90.17369134 60.0625 90.3125 C60.3925 91.6325 60.7225 92.9525 61.0625 94.3125 C61.7225 94.3125 62.3825 94.3125 63.0625 94.3125 C64.07299269 99.61758662 64.98758611 105.1147675 63.0625 110.3125 C60.4243463 111.63157685 58.43972213 111.37382406 55.5 111.3125 C53.68789219 111.27479685 51.87440256 111.26596639 50.0625 111.3125 C49.7325 111.6425 49.4025 111.9725 49.0625 112.3125 C51.3725 112.3125 53.6825 112.3125 56.0625 112.3125 C56.0625 112.6425 56.0625 112.9725 56.0625 113.3125 C53.43818571 113.63200871 50.81347241 113.94458566 48.1875 114.25 C47.38699219 114.3435376 46.58648437 114.4370752 45.76171875 114.53344727 C39.0921043 115.27675551 32.43673738 115.66631973 25.72705078 115.79467773 C23.33305822 115.84666961 23.33305822 115.84666961 20.0625 116.3125 C19.4025 117.3025 18.7425 118.2925 18.0625 119.3125 C17.4025 119.3125 16.7425 119.3125 16.0625 119.3125 C15.7325 119.9725 15.4025 120.6325 15.0625 121.3125 C8.389365 125.67046572 0.03141341 128.08995497 -7.9375 127.3125 C-8.9275 126.3225 -8.9275 126.3225 -9.9375 125.3125 C-9.9375 124.3225 -9.9375 123.3325 -9.9375 122.3125 C-12.9075 121.8175 -12.9075 121.8175 -15.9375 121.3125 C-15.9375 120.6525 -15.9375 119.9925 -15.9375 119.3125 C-16.9275 118.9825 -17.9175 118.6525 -18.9375 118.3125 C-18.9375 117.3225 -18.9375 116.3325 -18.9375 115.3125 C-20.25363281 115.32410156 -21.56976563 115.33570312 -22.92578125 115.34765625 C-41.02066867 115.45778109 -41.02066867 115.45778109 -49.9375 114.3125 C-48.9475 113.3225 -48.9475 113.3225 -47.9375 112.3125 C-53.2175 110.9925 -58.4975 109.6725 -63.9375 108.3125 C-64.21346588 95.61806949 -64.21346588 95.61806949 -61.9375 92.3125 C-61.1125 92.003125 -60.2875 91.69375 -59.4375 91.375 C-56.68539838 90.5498709 -56.68539838 90.5498709 -55.875 87.75 C-55.565625 86.945625 -55.25625 86.14125 -54.9375 85.3125 C-53.0625 84.75 -53.0625 84.75 -50.9375 84.3125 C-48.60416667 82.64583333 -48.60416667 82.64583333 -46.9375 80.3125 C-46.60251699 77.64415034 -46.60251699 77.64415034 -46.9375 75.3125 C-45.6175 75.3125 -44.2975 75.3125 -42.9375 75.3125 C-43.4325 74.3225 -43.4325 74.3225 -43.9375 73.3125 C-44.71660233 61.6259651 -43.1863885 49.91454129 -41.9375 38.3125 C-41.6075 38.3125 -41.2775 38.3125 -40.9375 38.3125 C-40.9375 41.2825 -40.9375 44.2525 -40.9375 47.3125 C-40.7209375 45.3634375 -40.7209375 45.3634375 -40.5 43.375 C-39.71875 36.34375 -39.71875 36.34375 -38.9375 29.3125 C-37.9475 28.9825 -36.9575 28.6525 -35.9375 28.3125 C-35.855 27.425625 -35.7725 26.53875 -35.6875 25.625 C-34.80839556 21.74228873 -33.8632931 20.00730943 -30.9375 17.3125 C-27.1875 16.5 -27.1875 16.5 -23.9375 16.3125 C-23.9375 14.9925 -23.9375 13.6725 -23.9375 12.3125 C-22.5453125 12.0959375 -22.5453125 12.0959375 -21.125 11.875 C-17.93024889 11.39149889 -17.93024889 11.39149889 -14.9375 10.3125 C-15.4325 9.3225 -15.4325 9.3225 -15.9375 8.3125 C-14.6175 8.3125 -13.2975 8.3125 -11.9375 8.3125 C-11.6075 6.3325 -11.2775 4.3525 -10.9375 2.3125 C-9.9475 2.3125 -8.9575 2.3125 -7.9375 2.3125 C-4.73125113 0.17500075 -3.71291897 0.01675001 0 0 Z M-10.9375 5.3125 C-9.9375 7.3125 -9.9375 7.3125 -9.9375 7.3125 Z M10.0625 5.3125 C11.0625 7.3125 11.0625 7.3125 11.0625 7.3125 Z M-32.9375 21.3125 C-32.9375 22.3025 -32.9375 23.2925 -32.9375 24.3125 C-32.2775 23.3225 -31.6175 22.3325 -30.9375 21.3125 C-31.5975 21.3125 -32.2575 21.3125 -32.9375 21.3125 Z M31.0625 21.3125 C32.0525 22.3025 33.0425 23.2925 34.0625 24.3125 C33.7325 23.3225 33.4025 22.3325 33.0625 21.3125 C32.4025 21.3125 31.7425 21.3125 31.0625 21.3125 Z M37.0625 29.3125 C38.0625 32.3125 38.0625 32.3125 38.0625 32.3125 Z M-38.9375 33.3125 C-37.9375 37.3125 -37.9375 37.3125 -37.9375 37.3125 Z M38.0625 33.3125 C39.0625 35.3125 39.0625 35.3125 39.0625 35.3125 Z M42.0625 61.3125 C42.0625 64.6125 42.0625 67.9125 42.0625 71.3125 C42.3925 71.3125 42.7225 71.3125 43.0625 71.3125 C43.0625 68.0125 43.0625 64.7125 43.0625 61.3125 C42.7325 61.3125 42.4025 61.3125 42.0625 61.3125 Z M-42.9375 62.3125 C-42.9375 64.6225 -42.9375 66.9325 -42.9375 69.3125 C-42.6075 69.3125 -42.2775 69.3125 -41.9375 69.3125 C-41.9375 67.0025 -41.9375 64.6925 -41.9375 62.3125 C-42.2675 62.3125 -42.5975 62.3125 -42.9375 62.3125 Z M-42.9375 70.3125 C-41.9375 72.3125 -41.9375 72.3125 -41.9375 72.3125 Z M46.0625 78.3125 C47.0625 80.3125 47.0625 80.3125 47.0625 80.3125 Z M-60.9375 93.3125 C-60.9375 94.3025 -60.9375 95.2925 -60.9375 96.3125 C-60.2775 95.3225 -59.6175 94.3325 -58.9375 93.3125 C-59.5975 93.3125 -60.2575 93.3125 -60.9375 93.3125 Z M56.0625 109.3125 C60.0625 110.3125 60.0625 110.3125 60.0625 110.3125 Z M-36.9375 113.3125 C-36.9375 113.6425 -36.9375 113.9725 -36.9375 114.3125 C-30.6675 114.3125 -24.3975 114.3125 -17.9375 114.3125 C-17.9375 113.9825 -17.9375 113.6525 -17.9375 113.3125 C-24.2075 113.3125 -30.4775 113.3125 -36.9375 113.3125 Z M18.0625 113.3125 C18.0625 113.6425 18.0625 113.9725 18.0625 114.3125 C24.0025 114.3125 29.9425 114.3125 36.0625 114.3125 C36.0625 113.9825 36.0625 113.6525 36.0625 113.3125 C30.1225 113.3125 24.1825 113.3125 18.0625 113.3125 Z M-6.9375 125.3125 C-2.9375 126.3125 -2.9375 126.3125 -2.9375 126.3125 Z " fill="#957A31" transform="translate(63.9375,0.6875)"/>
<path d="M0 0 C0.89203125 0.01804687 1.7840625 0.03609375 2.703125 0.0546875 C3.71632813 0.08949219 3.71632813 0.08949219 4.75 0.125 C4.75 0.785 4.75 1.445 4.75 2.125 C5.74 2.455 6.73 2.785 7.75 3.125 C7.87058347 9.54272028 7.75784529 15.77557468 6.75 22.125 C5.76 22.62 5.76 22.62 4.75 23.125 C4.440625 23.764375 4.13125 24.40375 3.8125 25.0625 C2.75 27.125 2.75 27.125 -0.25 29.125 C-2.09840274 36.25455341 -0.29731916 42.18493505 1.75 49.125 C3.4 47.475 5.05 45.825 6.75 44.125 C6.75 45.115 6.75 46.105 6.75 47.125 C7.41 47.125 8.07 47.125 8.75 47.125 C9.875 51.875 9.875 51.875 8.75 54.125 C9.74 54.125 10.73 54.125 11.75 54.125 C11.5 56 11.5 56 10.75 58.125 C8.22181132 59.78139948 5.67515651 60.46448079 2.75 61.125 C1.76 61.455 0.77 61.785 -0.25 62.125 C-0.25 61.465 -0.25 60.805 -0.25 60.125 C-8.17 60.62 -8.17 60.62 -16.25 61.125 C-16.25 62.445 -16.25 63.765 -16.25 65.125 C-12.785 65.62 -12.785 65.62 -9.25 66.125 C-9.25 66.785 -9.25 67.445 -9.25 68.125 C-8.445625 67.8775 -7.64125 67.63 -6.8125 67.375 C-1.88206265 67.0290044 1.44097273 68.89388143 5.75 71.125 C5 75.875 5 75.875 2.75 78.125 C5.72 77.63 5.72 77.63 8.75 77.125 C9.08 77.785 9.41 78.445 9.75 79.125 C4.97673647 81.5949609 0.52769653 81.38235004 -4.70703125 81.3203125 C-5.60999435 81.3174826 -6.51295746 81.31465271 -7.44328308 81.31173706 C-10.31649234 81.30057607 -13.18938555 81.27547897 -16.0625 81.25 C-18.01496944 81.23996493 -19.96744379 81.23084 -21.91992188 81.22265625 C-26.69673566 81.20065008 -31.47331431 81.16614831 -36.25 81.125 C-36.25 80.465 -36.25 79.805 -36.25 79.125 C-35.59 79.125 -34.93 79.125 -34.25 79.125 C-34.25 77.805 -34.25 76.485 -34.25 75.125 C-36.725 75.62 -36.725 75.62 -39.25 76.125 C-39.25 75.465 -39.25 74.805 -39.25 74.125 C-37.83774074 73.44904685 -36.41997095 72.78459941 -35 72.125 C-34.21109375 71.75375 -33.4221875 71.3825 -32.609375 71 C-30.25 70.125 -30.25 70.125 -26.25 70.125 C-25.981875 69.526875 -25.71375 68.92875 -25.4375 68.3125 C-24.26506533 66.15275192 -23.05630718 64.76709744 -21.25 63.125 C-21.91 63.125 -22.57 63.125 -23.25 63.125 C-24.875 61.75 -24.875 61.75 -26.25 60.125 C-26.25 59.465 -26.25 58.805 -26.25 58.125 C-24.93 58.125 -23.61 58.125 -22.25 58.125 C-21.92 57.135 -21.59 56.145 -21.25 55.125 C-20.30125 54.526875 -19.3525 53.92875 -18.375 53.3125 C-14.89117534 50.87382274 -13.87836944 48.98166445 -12.25 45.125 C-11.92 44.795 -11.59 44.465 -11.25 44.125 C-11.16314397 42.56327255 -11.14297781 40.99770656 -11.15234375 39.43359375 C-11.15717773 38.01723633 -11.15717773 38.01723633 -11.16210938 36.57226562 C-11.17048828 35.57904297 -11.17886719 34.58582031 -11.1875 33.5625 C-11.19201172 32.56541016 -11.19652344 31.56832031 -11.20117188 30.54101562 C-11.21299993 28.06895151 -11.22948151 25.59700482 -11.25 23.125 C-11.91 23.125 -12.57 23.125 -13.25 23.125 C-13.61590746 21.39827966 -13.96722195 19.66846345 -14.3125 17.9375 C-14.60833984 16.49310547 -14.60833984 16.49310547 -14.91015625 15.01953125 C-15.26106173 12.0307846 -15.1250935 9.99336204 -14.25 7.125 C-9.91271783 2.08437478 -6.66445847 -0.17538049 0 0 Z " fill="#FBE750" transform="translate(53.25,16.875)"/>
<path d="M0 0 C0.33 0.66 0.66 1.32 1 2 C2.65 1.67 4.3 1.34 6 1 C6 2.32 6 3.64 6 5 C5.34 5 4.68 5 4 5 C4 5.66 4 6.32 4 7 C9.6929671 6.93082525 15.38522052 6.84271494 21.07763672 6.73754883 C23.01147502 6.70442963 24.94540696 6.67635776 26.87939453 6.65356445 C29.66999979 6.61977815 32.45975691 6.5674517 35.25 6.51171875 C36.10553467 6.50532883 36.96106934 6.4989389 37.8425293 6.49235535 C42.06318982 6.39050253 45.48357552 5.98273337 49.421875 4.40551758 C53 3 53 3 56 4 C58.00875442 3.72428861 60.01178687 3.39764263 62 3 C62 3.66 62 4.32 62 5 C65.63 5.33 69.26 5.66 73 6 C73 6.66 73 7.32 73 8 C71.02 8 69.04 8 67 8 C67.495 9.485 67.495 9.485 68 11 C68.14220279 12.66267874 68.22020567 14.3315173 68.25 16 C68.27578125 16.86625 68.3015625 17.7325 68.328125 18.625 C68 21 68 21 66.68359375 22.80078125 C64.17616502 24.58681517 61.98763676 24.19917578 59 24 C58.505 22.02 58.505 22.02 58 20 C57.236875 20.061875 56.47375 20.12375 55.6875 20.1875 C52.41795099 19.95939193 52.21972521 19.21972521 50 17 C46.89160979 16.2730774 46.89160979 16.2730774 44 16 C43.814375 16.8353125 43.814375 16.8353125 43.625 17.6875 C42.92924316 20.2618003 42.16814704 22.59880886 41 25 C40.01 25.33 39.02 25.66 38 26 C38.495 27.485 38.495 27.485 39 29 C37.02 29 35.04 29 33 29 C32.505 27.02 32.505 27.02 32 25 C30.68386719 25.01160156 29.36773437 25.02320312 28.01171875 25.03515625 C9.91683133 25.14528109 9.91683133 25.14528109 1 24 C1.66 23.34 2.32 22.68 3 22 C-2.28 20.68 -7.56 19.36 -13 18 C-12.67 17.34 -12.34 16.68 -12 16 C-4.28728953 17.13635546 3.37282967 18.38159365 11 20 C11 19.01 11 18.02 11 17 C17.6 17 24.2 17 31 17 C31 16.34 31 15.68 31 15 C28.53673288 13.3553326 28.53673288 13.3553326 26 12 C26.33 11.34 26.66 10.68 27 10 C24.2915983 9.97285566 21.58347279 9.95309154 18.875 9.9375 C18.11445313 9.92912109 17.35390625 9.92074219 16.5703125 9.91210938 C12.24751322 9.89347662 8.26643536 10.22428448 4 11 C2.37605252 11.0620775 0.74994703 11.08712041 -0.875 11.0625 C-1.65617188 11.05347656 -2.43734375 11.04445313 -3.2421875 11.03515625 C-3.82226562 11.02355469 -4.40234375 11.01195313 -5 11 C-4.54917531 9.53932801 -4.08906463 8.08151968 -3.625 6.625 C-3.24214844 5.40683594 -3.24214844 5.40683594 -2.8515625 4.1640625 C-2 2 -2 2 0 0 Z M14 23 C14 23.33 14 23.66 14 24 C20.27 24 26.54 24 33 24 C33 23.67 33 23.34 33 23 C26.73 23 20.46 23 14 23 Z " fill="#805714" transform="translate(13,91)"/>
<path d="M0 0 C1.5629112 3.12582241 0.78410461 6.32823218 0.4765625 9.71875 C0.41093109 10.49126099 0.34529968 11.26377197 0.27767944 12.05969238 C0.06553 14.54029542 -0.15471475 17.02010758 -0.375 19.5 C-0.51613916 21.14058085 -0.65676994 22.78120552 -0.796875 24.421875 C-1.12788463 28.2813479 -1.47392479 32.13929607 -1.82409668 35.99707031 C-1.98074941 37.78080244 -2.11910181 39.56612029 -2.25488281 41.3515625 C-2.43457249 43.57433168 -2.70382449 45.78973502 -3 48 C-3.99 48.495 -3.99 48.495 -5 49 C-5.76222301 50.98350985 -5.76222301 50.98350985 -6.375 53.3125 C-8.35399003 59.55621355 -11.52050527 61.71230316 -17 65 C-21.21655517 68.34844087 -22.33995146 72.01985438 -24 77 C-23.14921875 76.855625 -22.2984375 76.71125 -21.421875 76.5625 C-10.57064233 74.90018351 0.03736463 74.79966758 11 75 C10.01 75.99 9.02 76.98 8 78 C9.65 78.66 11.3 79.32 13 80 C12.505 81.485 12.505 81.485 12 83 C5.4 83 -1.2 83 -8 83 C-8 83.99 -8 84.98 -8 86 C-16.05075569 86.65720455 -23.35672529 84.22928846 -31 82 C-31.22331199 80.41870971 -31.42804644 78.83478911 -31.625 77.25 C-31.74101562 76.36828125 -31.85703125 75.4865625 -31.9765625 74.578125 C-32.0024597 71.72943306 -31.59529069 70.34011184 -30 68 C-29.175 67.690625 -28.35 67.38125 -27.5 67.0625 C-24.74789838 66.2373709 -24.74789838 66.2373709 -23.9375 63.4375 C-23.628125 62.633125 -23.31875 61.82875 -23 61 C-21.125 60.4375 -21.125 60.4375 -19 60 C-16.66666667 58.33333333 -16.66666667 58.33333333 -15 56 C-14.66501699 53.33165034 -14.66501699 53.33165034 -15 51 C-13.68 51 -12.36 51 -11 51 C-11.33 50.34 -11.66 49.68 -12 49 C-12.77910233 37.3134651 -11.2488885 25.60204129 -10 14 C-9.67 14 -9.34 14 -9 14 C-9 16.97 -9 19.94 -9 23 C-8.855625 21.700625 -8.71125 20.40125 -8.5625 19.0625 C-8.04166667 14.375 -7.52083333 9.6875 -7 5 C-5.02 4.67 -3.04 4.34 -1 4 C-0.67 2.68 -0.34 1.36 0 0 Z M-7 9 C-6 13 -6 13 -6 13 Z M-11 38 C-11 40.31 -11 42.62 -11 45 C-10.67 45 -10.34 45 -10 45 C-10 42.69 -10 40.38 -10 38 C-10.33 38 -10.66 38 -11 38 Z M-11 46 C-10 48 -10 48 -10 48 Z M-29 69 C-29 69.99 -29 70.98 -29 72 C-28.34 71.01 -27.68 70.02 -27 69 C-27.66 69 -28.32 69 -29 69 Z " fill="#9C6B1F" transform="translate(32,25)"/>
<path d="M0 0 C0.83917969 0.48597656 1.67835937 0.97195312 2.54296875 1.47265625 C1.24355015 14.03370276 1.24355015 14.03370276 -2.08203125 16.84765625 C-4.45072869 19.64702595 -3.6314111 22.92693265 -3.45703125 26.47265625 C-5.43703125 27.46265625 -5.43703125 27.46265625 -7.45703125 28.47265625 C-7.45703125 20.22265625 -7.45703125 11.97265625 -7.45703125 3.47265625 C-8.11703125 3.14265625 -8.77703125 2.81265625 -9.45703125 2.47265625 C-9.45703125 1.81265625 -9.45703125 1.15265625 -9.45703125 0.47265625 C-16.2006438 0.74402899 -20.89878721 1.53556672 -26.45703125 5.47265625 C-28.96708789 9.2377412 -28.48286075 11.86727234 -28.08203125 16.16015625 C-28.0253125 16.86205078 -27.96859375 17.56394531 -27.91015625 18.28710938 C-27.76898484 20.0164591 -27.61431166 21.74469713 -27.45703125 23.47265625 C-26.79703125 23.47265625 -26.13703125 23.47265625 -25.45703125 23.47265625 C-25.20164885 26.88789269 -24.98232461 30.30452284 -24.76953125 33.72265625 C-24.69669922 34.69074219 -24.62386719 35.65882812 -24.54882812 36.65625 C-24.49404297 37.59082031 -24.43925781 38.52539062 -24.3828125 39.48828125 C-24.29640503 40.77653809 -24.29640503 40.77653809 -24.20825195 42.09082031 C-24.51622782 45.03940969 -25.5545099 46.24849511 -27.45703125 48.47265625 C-28.13765625 49.74109375 -28.13765625 49.74109375 -28.83203125 51.03515625 C-30.70493054 53.84450518 -32.53699792 54.85895362 -35.45703125 56.47265625 C-35.78703125 57.13265625 -36.11703125 57.79265625 -36.45703125 58.47265625 C-37.77703125 58.47265625 -39.09703125 58.47265625 -40.45703125 58.47265625 C-40.45703125 59.13265625 -40.45703125 59.79265625 -40.45703125 60.47265625 C-39.46703125 60.80265625 -38.47703125 61.13265625 -37.45703125 61.47265625 C-37.45703125 62.13265625 -37.45703125 62.79265625 -37.45703125 63.47265625 C-36.79703125 63.47265625 -36.13703125 63.47265625 -35.45703125 63.47265625 C-36.65374292 67.06279126 -37.4694025 68.14084844 -40.45703125 70.47265625 C-44.72485774 72.12381535 -48.86243448 73.47265625 -53.45703125 73.47265625 C-51.71889067 71.5515535 -50.24914823 70.35832059 -47.95703125 69.09765625 C-43.30278689 66.07239742 -42.012784 61.61860764 -40.45703125 56.47265625 C-39.79703125 56.47265625 -39.13703125 56.47265625 -38.45703125 56.47265625 C-38.46718262 55.87332275 -38.47733398 55.27398926 -38.48779297 54.65649414 C-38.54753781 48.35463314 -38.19928703 42.17944815 -37.58203125 35.91015625 C-37.50339844 35.02908203 -37.42476562 34.14800781 -37.34375 33.24023438 C-36.56721249 25.14632415 -35.49999609 17.63973029 -31.45703125 10.47265625 C-32.11703125 10.47265625 -32.77703125 10.47265625 -33.45703125 10.47265625 C-33.15013938 7.60833217 -32.52005004 6.53567504 -30.45703125 4.47265625 C-21.36541762 -1.5884195 -10.54534465 -4.65901668 0 0 Z " fill="#C39325" transform="translate(67.45703125,16.52734375)"/>
<path d="M0 0 C0.66 0 1.32 0 2 0 C2.93742541 2.81227622 3.13470844 4.58746844 3.125 7.5 C3.12886719 8.66015625 3.12886719 8.66015625 3.1328125 9.84375 C3 12 3 12 2 15 C2.90242432 14.93941406 3.80484863 14.87882812 4.73461914 14.81640625 C8.10966407 14.59092628 11.48483397 14.3675305 14.86010742 14.14550781 C16.31589129 14.04932699 17.77162188 13.95233601 19.22729492 13.85449219 C21.32977749 13.7133183 23.43243975 13.57514041 25.53515625 13.4375 C26.797229 13.35371094 28.05930176 13.26992187 29.35961914 13.18359375 C32.91362924 13.0043559 36.44217965 12.96792951 40 13 C40 13.33 40 13.66 40 14 C37.37568571 14.31950871 34.75097241 14.63208566 32.125 14.9375 C31.32449219 15.0310376 30.52398437 15.1245752 29.69921875 15.22094727 C23.0296043 15.96425551 16.37423738 16.35381973 9.66455078 16.48217773 C7.27055822 16.53416961 7.27055822 16.53416961 4 17 C3.34 17.99 2.68 18.98 2 20 C1.34 20 0.68 20 0 20 C-0.33 20.66 -0.66 21.32 -1 22 C-7.673135 26.35796572 -16.03108659 28.77745497 -24 28 C-24.66 27.34 -25.32 26.68 -26 26 C-26 25.01 -26 24.02 -26 23 C-27.98 22.67 -29.96 22.34 -32 22 C-31.505 20.515 -31.505 20.515 -31 19 C-30.01 19.33 -29.02 19.66 -28 20 C-28.66 18.68 -29.32 17.36 -30 16 C-29.37609375 15.91878906 -28.7521875 15.83757812 -28.109375 15.75390625 C-25.8507553 15.20570556 -25.8507553 15.20570556 -24.953125 13.15234375 C-24.60507812 12.05599609 -24.60507812 12.05599609 -24.25 10.9375 C-24.00765625 10.20402344 -23.7653125 9.47054687 -23.515625 8.71484375 C-23.34546875 8.14894531 -23.1753125 7.58304687 -23 7 C-20.1875 6.8125 -20.1875 6.8125 -17 7 C-15.4375 8.4375 -15.4375 8.4375 -14 10 C-11.39388923 10.72197162 -11.39388923 10.72197162 -9 11 C-8.67 11.99 -8.34 12.98 -8 14 C-5.36 14 -2.72 14 0 14 C0 9.38 0 4.76 0 0 Z M-23 26 C-19 27 -19 27 -19 27 Z " fill="#7D623D" transform="translate(80,100)"/>
<path d="M0 0 C1.29349365 0.00523682 2.5869873 0.01047363 3.91967773 0.01586914 C4.9496714 0.01799156 4.9496714 0.01799156 6.00047302 0.02015686 C8.20144949 0.0257706 10.40232557 0.03832532 12.60327148 0.05102539 C14.09220231 0.05603863 15.58113473 0.06060184 17.07006836 0.06469727 C20.72700223 0.07574446 24.38387707 0.09301826 28.04077148 0.11352539 C29.26768215 2.56734673 29.2425308 4.31336642 29.29077148 7.05102539 C29.31655273 7.92629883 29.34233398 8.80157227 29.36889648 9.70336914 C29.04077148 12.11352539 29.04077148 12.11352539 27.72436523 13.91821289 C25.21632193 15.69886545 23.0261615 15.31255139 20.04077148 15.11352539 C19.71077148 13.79352539 19.38077148 12.47352539 19.04077148 11.11352539 C18.27764648 11.17540039 17.51452148 11.23727539 16.72827148 11.30102539 C15.39795898 11.20821289 15.39795898 11.20821289 14.04077148 11.11352539 C13.6140918 10.61723633 13.18741211 10.12094727 12.74780273 9.60961914 C10.23854225 7.41042746 8.31013813 7.85230178 5.04077148 7.98852539 C-0.70095037 8.19961811 -0.70095037 8.19961811 -3.95922852 7.11352539 C-4.00177208 5.11397793 -4.00003634 3.11310903 -3.95922852 1.11352539 C-2.95922852 0.11352539 -2.95922852 0.11352539 0 0 Z " fill="#E0930D" transform="translate(51.959228515625,99.886474609375)"/>
<path d="M0 0 C-1.07401108 2.91517292 -1.77810176 4.77810176 -4 7 C-7.81153333 8.06003697 -11.45484375 8.11632775 -15.39453125 8.09765625 C-16.59658203 8.09443359 -17.79863281 8.09121094 -19.03710938 8.08789062 C-20.28298828 8.07951172 -21.52886719 8.07113281 -22.8125 8.0625 C-24.07771484 8.05798828 -25.34292969 8.05347656 -26.64648438 8.04882812 C-29.7643711 8.03706251 -32.88216133 8.02062272 -36 8 C-35.67 7.01 -35.34 6.02 -35 5 C-35 4.01 -35 3.02 -35 2 C-31.66243192 -1.78859079 -29.08184776 -3.32575926 -24.0625 -4 C-15.9882594 -4.42203734 -7.63538875 -2.54512958 0 0 Z " fill="#FEF972" transform="translate(56,89)"/>
<path d="M0 0 C21.36538462 -0.21153846 21.36538462 -0.21153846 28 2 C28 3.98 28 5.96 28 8 C27.45730469 8.19335938 26.91460937 8.38671875 26.35546875 8.5859375 C25.28232422 8.97652344 25.28232422 8.97652344 24.1875 9.375 C23.47980469 9.63023438 22.77210937 9.88546875 22.04296875 10.1484375 C19.75226641 11.0265769 19.75226641 11.0265769 17 13 C15.00708008 13.22705078 15.00708008 13.22705078 12.76953125 13.1953125 C11.56586914 13.18564453 11.56586914 13.18564453 10.33789062 13.17578125 C9.50451172 13.15902344 8.67113281 13.14226562 7.8125 13.125 C6.96751953 13.11597656 6.12253906 13.10695313 5.25195312 13.09765625 C3.16784757 13.07410703 1.08388783 13.03823647 -1 13 C-0.67 8.71 -0.34 4.42 0 0 Z " fill="#AA8C16" transform="translate(83,101)"/>
<path d="M0 0 C0.92683594 0.00451172 1.85367188 0.00902344 2.80859375 0.01367188 C5.08079709 0.02538426 7.35286388 0.04178628 9.625 0.0625 C8.635 1.0525 7.645 2.0425 6.625 3.0625 C9.1 4.0525 9.1 4.0525 11.625 5.0625 C11.295 6.0525 10.965 7.0425 10.625 8.0625 C4.025 8.0625 -2.575 8.0625 -9.375 8.0625 C-9.375 9.0525 -9.375 10.0425 -9.375 11.0625 C-16.45576251 11.47100553 -22.57425959 9.96670731 -29.375 8.0625 C-28.703125 6.16796875 -28.703125 6.16796875 -27.375 4.0625 C-24.984375 3.05078125 -24.984375 3.05078125 -22.125 2.375 C-21.19171875 2.14425781 -20.2584375 1.91351563 -19.296875 1.67578125 C-17.85054687 1.37220703 -17.85054687 1.37220703 -16.375 1.0625 C-15.48039062 0.87171875 -14.58578125 0.6809375 -13.6640625 0.484375 C-9.10004354 -0.10103361 -4.5955975 -0.04261253 0 0 Z " fill="#8E651C" transform="translate(33.375,99.9375)"/>
<path d="M0 0 C1.58246707 -0.08153933 3.16616273 -0.13943557 4.75 -0.1875 C6.07257813 -0.23970703 6.07257813 -0.23970703 7.421875 -0.29296875 C10.44671583 0.05076316 11.75583602 1.00227459 14 3 C14.66 2.67 15.32 2.34 16 2 C16.33 3.98 16.66 5.96 17 8 C18.32 8.33 19.64 8.66 21 9 C21 9.66 21 10.32 21 11 C22.98 11 24.96 11 27 11 C26.67 11.66 26.34 12.32 26 13 C26.99 13.33 27.98 13.66 29 14 C29 14.66 29 15.32 29 16 C29.66 16 30.32 16 31 16 C31.33 15.34 31.66 14.68 32 14 C34.31 15.98 36.62 17.96 39 20 C38.67 20.66 38.34 21.32 38 22 C37.34 21.67 36.68 21.34 36 21 C36.350625 21.598125 36.70125 22.19625 37.0625 22.8125 C38 25 38 25 37 28 C36.49210937 27.38511719 35.98421875 26.77023438 35.4609375 26.13671875 C27.54343069 16.84032031 19.01445829 13.64774148 6.88671875 12.58984375 C3.26078312 12.32541275 -0.36724402 12.14392066 -4 12 C-3.67 11.01 -3.34 10.02 -3 9 C-0.36 8.67 2.28 8.34 5 8 C5 5.69 5 3.38 5 1 C3.35 1 1.7 1 0 1 C0 0.67 0 0.34 0 0 Z M15 5 C16 7 16 7 16 7 Z " fill="#75582B" transform="translate(59,1)"/>
<path d="M0 0 C0.66 0 1.32 0 2 0 C2.18175781 0.72445313 2.36351563 1.44890625 2.55078125 2.1953125 C3.92167755 7.46799057 5.30679941 12.25483705 8 17 C8 13.7 8 10.4 8 7 C8.33 7 8.66 7 9 7 C12.50323827 40.99352346 12.50323827 40.99352346 10 46 C10.66 46 11.32 46 12 46 C12.33 44.68 12.66 43.36 13 42 C13.66 44.64 14.32 47.28 15 50 C15.66 50 16.32 50 17 50 C17 50.66 17 51.32 17 52 C16.34 52 15.68 52 15 52 C14.67 52.66 14.34 53.32 14 54 C14.66 54 15.32 54 16 54 C15.67 54.99 15.34 55.98 15 57 C8.63626997 51.18173254 4.88819865 46.13759064 4.25 37.3125 C4.21390625 36.23613281 4.1778125 35.15976563 4.140625 34.05078125 C4.01139101 31.24712164 3.55549267 28.74133373 3 26 C2.98190341 24.58329573 3.00220863 23.16553644 3.0625 21.75 C3.11635056 17.69101421 2.48648391 14.14546355 1.51171875 10.21875 C0.73170526 6.83670676 0.37616411 3.44817105 0 0 Z M9 32 C9 35.3 9 38.6 9 42 C9.33 42 9.66 42 10 42 C10 38.7 10 35.4 10 32 C9.67 32 9.34 32 9 32 Z M13 49 C14 51 14 51 14 51 Z " fill="#4E4015" transform="translate(97,30)"/>
<path d="M0 0 C0.33 1.32 0.66 2.64 1 4 C3.31 4.33 5.62 4.66 8 5 C7.01 5.33 6.02 5.66 5 6 C5 7.32 5 8.64 5 10 C7.31 10.33 9.62 10.66 12 11 C12 11.66 12 12.32 12 13 C12.804375 12.7525 13.60875 12.505 14.4375 12.25 C19.36793735 11.9040044 22.69097273 13.76888143 27 16 C26.25 20.75 26.25 20.75 24 23 C25.98 22.67 27.96 22.34 30 22 C30.495 22.99 30.495 22.99 31 24 C26.22673647 26.4699609 21.77769653 26.25735004 16.54296875 26.1953125 C15.64000565 26.1924826 14.73704254 26.18965271 13.80671692 26.18673706 C10.93350766 26.17557607 8.06061445 26.15047897 5.1875 26.125 C3.23503056 26.11496493 1.28255621 26.10584 -0.66992188 26.09765625 C-5.44673566 26.07565008 -10.22331431 26.04114831 -15 26 C-15 25.34 -15 24.68 -15 24 C-14.34 24 -13.68 24 -13 24 C-13 22.68 -13 21.36 -13 20 C-14.65 20.33 -16.3 20.66 -18 21 C-18 20.34 -18 19.68 -18 19 C-16.5682384 18.30062798 -15.12932968 17.61587282 -13.6875 16.9375 C-12.88699219 16.55464844 -12.08648437 16.17179687 -11.26171875 15.77734375 C-9 15 -9 15 -6 16 C-7.2375 17.1446875 -7.2375 17.1446875 -8.5 18.3125 C-11.34055197 20.75434142 -11.34055197 20.75434142 -11 24 C-6.79172527 24.05828635 -2.58355511 24.093693 1.625 24.125 C2.81480469 24.14175781 4.00460938 24.15851563 5.23046875 24.17578125 C6.96103516 24.18544922 6.96103516 24.18544922 8.7265625 24.1953125 C9.78439941 24.20578613 10.84223633 24.21625977 11.93212891 24.22705078 C15.28275561 23.97907347 17.90794344 23.30696316 21 22 C22.89942124 19.50447863 22.89942124 19.50447863 24 17 C20.33606576 16.3175674 16.66912068 15.65395212 13 15 C11.845 14.79375 10.69 14.5875 9.5 14.375 C4.66140562 13.85657917 -0.13885233 13.92088548 -5 14 C-3.35 12.02 -1.7 10.04 0 8 C-0.66 8 -1.32 8 -2 8 C-3.625 6.625 -3.625 6.625 -5 5 C-5 4.34 -5 3.68 -5 3 C-3.68 3 -2.36 3 -1 3 C-0.67 2.01 -0.34 1.02 0 0 Z " fill="#E4BD42" transform="translate(32,72)"/>
<path d="M0 0 C0.83917969 0.48597656 1.67835937 0.97195312 2.54296875 1.47265625 C1.24355015 14.03370276 1.24355015 14.03370276 -2.08203125 16.84765625 C-4.45072869 19.64702595 -3.6314111 22.92693265 -3.45703125 26.47265625 C-5.43703125 27.46265625 -5.43703125 27.46265625 -7.45703125 28.47265625 C-7.45703125 20.22265625 -7.45703125 11.97265625 -7.45703125 3.47265625 C-8.11703125 3.14265625 -8.77703125 2.81265625 -9.45703125 2.47265625 C-9.45703125 1.81265625 -9.45703125 1.15265625 -9.45703125 0.47265625 C-16.13477703 0.74137841 -21.09204802 1.31205701 -26.45703125 5.47265625 C-27.85117005 7.79290154 -28.60702072 9.87262403 -29.45703125 12.47265625 C-30.11703125 11.48265625 -30.77703125 10.49265625 -31.45703125 9.47265625 C-32.44703125 9.96765625 -32.44703125 9.96765625 -33.45703125 10.47265625 C-33.15013938 7.60833217 -32.52005004 6.53567504 -30.45703125 4.47265625 C-21.36541762 -1.5884195 -10.54534465 -4.65901668 0 0 Z " fill="#B38D35" transform="translate(67.45703125,16.52734375)"/>
<path d="M0 0 C1.33804688 0.04060547 1.33804688 0.04060547 2.703125 0.08203125 C3.37859375 0.11683594 4.0540625 0.15164062 4.75 0.1875 C4.75 0.8475 4.75 1.5075 4.75 2.1875 C5.74 2.5175 6.73 2.8475 7.75 3.1875 C7.87058347 9.60522028 7.75784529 15.83807468 6.75 22.1875 C6.09 22.5175 5.43 22.8475 4.75 23.1875 C4.440625 23.826875 4.13125 24.46625 3.8125 25.125 C2.75 27.1875 2.75 27.1875 -0.25 29.1875 C-1.33651655 34.5295397 -1.24941114 38.85730725 -0.25 44.1875 C-0.91 44.1875 -1.57 44.1875 -2.25 44.1875 C-4.60301396 39.48147208 -4.04169563 31.9414351 -2.61328125 26.97265625 C-2.08060656 25.74360685 -1.53633718 24.51951626 -0.98046875 23.30078125 C0.31308326 19.55847304 0.33018416 15.65546459 0.5390625 11.7265625 C0.75 9.1875 0.75 9.1875 1.75 7.1875 C1.42 5.8675 1.09 4.5475 0.75 3.1875 C-2.55 3.1875 -5.85 3.1875 -9.25 3.1875 C-5.16748364 0.12561273 -4.68502071 -0.18493503 0 0 Z " fill="#F2CC42" transform="translate(53.25,16.8125)"/>
<path d="M0 0 C0.33 0 0.66 0 1 0 C1.21671676 6.70467485 0.47067336 12.5964027 -1 19.125 C-2.28992311 24.90350691 -3.05769298 30.05041098 -3 36 C-3.65625 38.87109375 -3.65625 38.87109375 -4.5 41.4375 C-4.7784375 42.30246094 -5.056875 43.16742188 -5.34375 44.05859375 C-5.5603125 44.69925781 -5.776875 45.33992188 -6 46 C-5.34 46 -4.68 46 -4 46 C-4.33 47.32 -4.66 48.64 -5 50 C-6.32 50 -7.64 50 -9 50 C-9 50.66 -9 51.32 -9 52 C-8.01 52.33 -7.02 52.66 -6 53 C-6 53.66 -6 54.32 -6 55 C-5.34 55 -4.68 55 -4 55 C-5.19671167 58.59013501 -6.01237125 59.66819219 -9 62 C-13.26782649 63.6511591 -17.40540323 65 -22 65 C-20.26185942 63.07889725 -18.79211698 61.88566434 -16.5 60.625 C-11.84575564 57.59974117 -10.55575275 53.14595139 -9 48 C-8.34 48 -7.68 48 -7 48 C-7.01015137 47.4006665 -7.02030273 46.80133301 -7.03076172 46.18383789 C-7.09050656 39.88197689 -6.74225578 33.7067919 -6.125 27.4375 C-6.04636719 26.55642578 -5.96773437 25.67535156 -5.88671875 24.76757812 C-5.08115753 16.37115156 -3.81214766 7.62429533 0 0 Z " fill="#B48124" transform="translate(36,25)"/>
<path d="M0 0 C-1.49745031 3.59388074 -3.58166749 5.64270464 -6.4375 8.25 C-10.61421121 12.29912679 -12.47863466 15.42166042 -14 21 C-12.35 21 -10.7 21 -9 21 C-9 21.33 -9 21.66 -9 22 C-10.093125 22.268125 -11.18625 22.53625 -12.3125 22.8125 C-15.61692663 23.87663739 -16.94960422 24.34654664 -19 27 C-19.66 26.67 -20.32 26.34 -21 26 C-21.484375 23.85546875 -21.484375 23.85546875 -21.75 21.1875 C-21.84796875 20.31480469 -21.9459375 19.44210938 -22.046875 18.54296875 C-21.99534524 15.74747906 -21.5576579 14.30533369 -20 12 C-19.175 11.690625 -18.35 11.38125 -17.5 11.0625 C-14.74789838 10.2373709 -14.74789838 10.2373709 -13.9375 7.4375 C-13.628125 6.633125 -13.31875 5.82875 -13 5 C-11.0625 4.375 -11.0625 4.375 -9 4 C-7.97980427 3.0206121 -6.97850195 2.02104551 -6 1 C-3 0 -3 0 0 0 Z M-19 13 C-19 13.99 -19 14.98 -19 16 C-18.34 15.01 -17.68 14.02 -17 13 C-17.66 13 -18.32 13 -19 13 Z " fill="#856431" transform="translate(22,81)"/>
<path d="M0 0 C-1.07401108 2.91517292 -1.77810176 4.77810176 -4 7 C-8.31027728 8.26772861 -12.54873111 8.07544524 -17 8 C-15 5 -15 5 -12 4 C-11.26676204 1.98491642 -11.26676204 1.98491642 -11 0 C-11.49371094 0.16371094 -11.98742187 0.32742187 -12.49609375 0.49609375 C-16.0136191 1.20398887 -19.4918757 1.10428048 -23.0625 1.0625 C-23.78244141 1.05798828 -24.50238281 1.05347656 -25.24414062 1.04882812 C-27.16278893 1.0363578 -29.08140005 1.01846781 -31 1 C-31.99 1 -32.98 1 -34 1 C-30.15516635 -3.1099946 -26.64459475 -3.78302893 -21.2578125 -4.11328125 C-14.08461279 -3.86385344 -6.79867281 -2.26622427 0 0 Z " fill="#FBD74B" transform="translate(56,89)"/>
<path d="M0 0 C2.66355234 -0.39169887 4.39224373 -0.40564529 6.66796875 1.11328125 C8.1510888 2.36389317 9.57954352 3.67864514 11 5 C10.8125 6.875 10.8125 6.875 10 9 C8.34795544 9.70211894 6.68076231 10.36971413 5 11 C4.67 11.99 4.34 12.98 4 14 C1.69 13.67 -0.62 13.34 -3 13 C-3 13.66 -3 14.32 -3 15 C-5.97 14.505 -5.97 14.505 -9 14 C-8.67 13.01 -8.34 12.02 -8 11 C-7.01 11.33 -6.02 11.66 -5 12 C-5.66 10.68 -6.32 9.36 -7 8 C-6.401875 7.979375 -5.80375 7.95875 -5.1875 7.9375 C-2.56685398 7.09543384 -2.56685398 7.09543384 -1.25 3.4375 C-0.8375 2.303125 -0.425 1.16875 0 0 Z " fill="#806025" transform="translate(57,108)"/>
<path d="M0 0 C6.75 1.875 6.75 1.875 9 3 C9.625 5.0625 9.625 5.0625 10 7 C10.66 7 11.32 7 12 7 C12.77403558 11.06368679 13.0984702 14.86425173 13 19 C9.04 19.495 9.04 19.495 5 20 C5 18.68 5 17.36 5 16 C4.01 15.67 3.02 15.34 2 15 C3.32 14.34 4.64 13.68 6 13 C3.69 12.34 1.38 11.68 -1 11 C0.32 10.34 1.64 9.68 3 9 C2.690625 8.071875 2.38125 7.14375 2.0625 6.1875 C1.375 4.125 0.6875 2.0625 0 0 Z " fill="#74684F" transform="translate(115,88)"/>
<path d="M0 0 C1.13088241 3.39264724 0.72337492 4.5826771 0 8 C-0.06533435 9.93651019 -0.08584303 11.87502861 -0.0625 13.8125 C-0.05347656 14.78832031 -0.04445313 15.76414062 -0.03515625 16.76953125 C-0.02355469 17.50558594 -0.01195312 18.24164063 0 19 C-0.66 19 -1.32 19 -2 19 C-2.08302368 20.05912598 -2.08302368 20.05912598 -2.16772461 21.13964844 C-2.42083142 24.34338537 -2.67910904 27.54668511 -2.9375 30.75 C-3.06801758 32.41675781 -3.06801758 32.41675781 -3.20117188 34.1171875 C-3.28818359 35.18710938 -3.37519531 36.25703125 -3.46484375 37.359375 C-3.543396 38.34389648 -3.62194824 39.32841797 -3.70288086 40.34277344 C-3.96123909 42.6533494 -4.3677328 44.76737883 -5 47 C-5.66 47 -6.32 47 -7 47 C-11.68330694 37.63338612 -7.08908812 20.11751277 -6 10 C-5.67 10 -5.34 10 -5 10 C-5 12.97 -5 15.94 -5 19 C-4.855625 17.700625 -4.71125 16.40125 -4.5625 15.0625 C-3.78125 8.03125 -3.78125 8.03125 -3 1 C-2.01 0.67 -1.02 0.34 0 0 Z M-3 5 C-2 9 -2 9 -2 9 Z M-7 34 C-7 36.31 -7 38.62 -7 41 C-6.67 41 -6.34 41 -6 41 C-6 38.69 -6 36.38 -6 34 C-6.33 34 -6.66 34 -7 34 Z M-7 42 C-6 44 -6 44 -6 44 Z " fill="#988A78" transform="translate(28,29)"/>
<path d="M0 0 C2.45840605 -0.02691685 4.91651882 -0.04679802 7.375 -0.0625 C8.07367188 -0.07087891 8.77234375 -0.07925781 9.4921875 -0.08789062 C14.7734375 -0.11328125 14.7734375 -0.11328125 17 1 C17.36 6.4 17.36 6.4 15.875 8.875 C13.21965017 10.4682099 11.03210482 10.20214032 8 10 C7.67 8.68 7.34 7.36 7 6 C6.236875 6.061875 5.47375 6.12375 4.6875 6.1875 C2 6 2 6 0.1875 4.5 C-0.204375 4.005 -0.59625 3.51 -1 3 C-0.67 2.01 -0.34 1.02 0 0 Z " fill="#C79D50" transform="translate(64,105)"/>
<path d="M0 0 C0 0.66 0 1.32 0 2 C0.62648438 2.12117188 1.25296875 2.24234375 1.8984375 2.3671875 C2.71570313 2.53476563 3.53296875 2.70234375 4.375 2.875 C5.18710938 3.03742188 5.99921875 3.19984375 6.8359375 3.3671875 C9 4 9 4 11 6 C9.68 6.33 8.36 6.66 7 7 C7.66 8.98 8.32 10.96 9 13 C6.69 13 4.38 13 2 13 C1.7525 12.05125 1.505 11.1025 1.25 10.125 C0.33465181 6.99867848 0.33465181 6.99867848 -1.69921875 5.83203125 C-5.45472247 4.47392889 -9.26282716 4.59314259 -13.22265625 4.44140625 C-16.25225074 3.95990952 -17.16162397 3.38543603 -19 1 C-17.41058594 1.01740234 -17.41058594 1.01740234 -15.7890625 1.03515625 C-14.40104342 1.04453476 -13.01302245 1.05363489 -11.625 1.0625 C-10.57699219 1.07506836 -10.57699219 1.07506836 -9.5078125 1.08789062 C-6.0963352 1.10429196 -3.19930803 0 0 0 Z " fill="#817533" transform="translate(112,96)"/>
<path d="M0 0 C0.33 0.66 0.66 1.32 1 2 C2.65 1.67 4.3 1.34 6 1 C6 2.32 6 3.64 6 5 C5.34 5 4.68 5 4 5 C4 5.66 4 6.32 4 7 C11.26 7 18.52 7 26 7 C26 7.33 26 7.66 26 8 C22.52226842 8.51032668 19.04263225 9.00633268 15.5625 9.5 C14.58861328 9.64308594 13.61472656 9.78617188 12.61132812 9.93359375 C6.67342403 10.76768061 0.99575234 11.14880874 -5 11 C-4.54917531 9.53932801 -4.08906463 8.08151968 -3.625 6.625 C-3.36976562 5.81289062 -3.11453125 5.00078125 -2.8515625 4.1640625 C-2 2 -2 2 0 0 Z " fill="#AB7A22" transform="translate(13,91)"/>
<path d="M0 0 C1.45599609 0.02126953 1.45599609 0.02126953 2.94140625 0.04296875 C4.39353516 0.05263672 4.39353516 0.05263672 5.875 0.0625 C8.50390625 0.23046875 8.50390625 0.23046875 11.50390625 1.23046875 C13.19140625 3.29296875 13.19140625 3.29296875 14.50390625 5.23046875 C10.87148856 7.65208054 8.19395609 7.4937887 4.00390625 7.41796875 C3.32714844 7.41732422 2.65039062 7.41667969 1.953125 7.41601562 C-1.12614978 7.38868478 -3.55511849 7.21079384 -6.49609375 6.23046875 C-3.75012777 0.34625593 -3.75012777 0.34625593 0 0 Z " fill="#C3A219" transform="translate(95.49609375,103.76953125)"/>
<path d="M0 0 C9.6151288 -0.75775971 9.6151288 -0.75775971 14.3125 1.8125 C16.59281216 6.11975631 15.83311335 8.83122519 14.80859375 13.4765625 C14 16 14 16 12 19 C12.66 19.66 13.32 20.32 14 21 C14.125 24.125 14.125 24.125 14 27 C12.02 27.99 12.02 27.99 10 29 C10 20.75 10 12.5 10 4 C9.34 3.67 8.68 3.34 8 3 C8 2.34 8 1.68 8 1 C5.36 1 2.72 1 0 1 C0 0.67 0 0.34 0 0 Z " fill="#CCA83B" transform="translate(50,16)"/>
<path d="M0 0 C2.00946222 -0.27050453 4.01354224 -0.59367909 6 -1 C6 -0.34 6 0.32 6 1 C11.445 1.495 11.445 1.495 17 2 C17 2.66 17 3.32 17 4 C1.49 4 -14.02 4 -30 4 C-30 3.67 -30 3.34 -30 3 C-28.70964844 2.96261719 -27.41929688 2.92523438 -26.08984375 2.88671875 C-24.37236851 2.82102298 -22.65492185 2.7545769 -20.9375 2.6875 C-19.66616211 2.65366211 -19.66616211 2.65366211 -18.36914062 2.61914062 C-12.24379433 2.35899078 -5.4982113 -1.77361655 0 0 Z " fill="#A4852D" transform="translate(69,95)"/>
<path d="M0 0 C1.8871875 0.0309375 1.8871875 0.0309375 3.8125 0.0625 C3.8125 3.93040003 3.53879646 5.07569413 1.8125 8.3125 C1.44125 9.01890625 1.07 9.7253125 0.6875 10.453125 C0.39875 10.98421875 0.11 11.5153125 -0.1875 12.0625 C-0.8475 11.4025 -1.5075 10.7425 -2.1875 10.0625 C-2.8475 10.0625 -3.5075 10.0625 -4.1875 10.0625 C-5.1775 11.5475 -5.1775 11.5475 -6.1875 13.0625 C-7.65825246 8.65024263 -8.55634358 5.57968381 -7.1875 1.0625 C-4.43671116 0.14557039 -2.82801087 -0.04636083 0 0 Z " fill="#FEFA63" transform="translate(47.1875,20.9375)"/>
<path d="M0 0 C0.33 0.99 0.66 1.98 1 3 C1.66 3 2.32 3 3 3 C4.125 7.75 4.125 7.75 3 10 C3.99 10 4.98 10 6 10 C5.75 11.875 5.75 11.875 5 14 C2.47181132 15.65639948 -0.07484349 16.33948079 -3 17 C-3.99 17.33 -4.98 17.66 -6 18 C-6 17.34 -6 16.68 -6 16 C-6.99 15.67 -7.98 15.34 -9 15 C-3.25 11 -3.25 11 -1 11 C-1.66 10.01 -2.32 9.02 -3 8 C-2.55555556 2.55555556 -2.55555556 2.55555556 0 0 Z " fill="#DCB73D" transform="translate(59,61)"/>
<path d="M0 0 C1.58246707 -0.08153933 3.16616273 -0.13943557 4.75 -0.1875 C6.07257813 -0.23970703 6.07257813 -0.23970703 7.421875 -0.29296875 C10.44671583 0.05076316 11.75583602 1.00227459 14 3 C14.66 2.67 15.32 2.34 16 2 C16.33 3.98 16.66 5.96 17 8 C18.32 8.33 19.64 8.66 21 9 C14.73 9 8.46 9 2 9 C2.99 8.67 3.98 8.34 5 8 C5 5.69 5 3.38 5 1 C3.35 1 1.7 1 0 1 C0 0.67 0 0.34 0 0 Z M15 5 C16 7 16 7 16 7 Z " fill="#74673D" transform="translate(59,1)"/>
<path d="M0 0 C-0.33 1.32 -0.66 2.64 -1 4 C-4.63 4 -8.26 4 -12 4 C-12 4.99 -12 5.98 -12 7 C-18.625 7.125 -18.625 7.125 -22 6 C-21.4375 4.125 -21.4375 4.125 -20 2 C-13.63567994 -0.82858669 -6.84274758 -0.18521723 0 0 Z " fill="#644212" transform="translate(26,102)"/>
<path d="M0 0 C2.8125 -0.1875 2.8125 -0.1875 6 0 C7.5625 1.4375 7.5625 1.4375 9 3 C11.60611077 3.72197162 11.60611077 3.72197162 14 4 C14.33 4.99 14.66 5.98 15 7 C15.66 7.66 16.32 8.32 17 9 C16.34 9 15.68 9 15 9 C14.855625 9.61875 14.71125 10.2375 14.5625 10.875 C14 13 14 13 13 15 C10.93359375 15.4140625 10.93359375 15.4140625 8.4375 15.625 C7.19806641 15.73714844 7.19806641 15.73714844 5.93359375 15.8515625 C4.97646484 15.92503906 4.97646484 15.92503906 4 16 C4.33 14.35 4.66 12.7 5 11 C6.65 10.67 8.3 10.34 10 10 C10.33 8.68 10.66 7.36 11 6 C10.38125 5.71125 9.7625 5.4225 9.125 5.125 C7 4 7 4 5 2 C2.42938689 1.35232207 2.42938689 1.35232207 0 1 C0 0.67 0 0.34 0 0 Z " fill="#997329" transform="translate(57,107)"/>
<path d="M0 0 C7.71271047 1.13635546 15.37282967 2.38159365 23 4 C23.33 3.34 23.66 2.68 24 2 C24.33 2.99 24.66 3.98 25 5 C31.6 5 38.2 5 45 5 C45 5.66 45 6.32 45 7 C28.87712764 7.15036876 14.59418151 6.20671145 -1 2 C-0.67 1.34 -0.34 0.68 0 0 Z " fill="#A69265" transform="translate(1,107)"/>
<path d="M0 0 C0.33 0 0.66 0 1 0 C4.50323827 33.99352346 4.50323827 33.99352346 2 39 C1.34 39 0.68 39 0 39 C0 37.68 0 36.36 0 35 C0.66 35 1.32 35 2 35 C1.51917969 34.6390625 1.03835937 34.278125 0.54296875 33.90625 C-1.66904155 31.17343727 -1.51422601 28.98088198 -1.6875 25.5 C-1.75195312 24.25992188 -1.81640625 23.01984375 -1.8828125 21.7421875 C-2.03679906 16.82488344 -2.09034635 11.91885708 -2 7 C-1.01 8.485 -1.01 8.485 0 10 C0 6.7 0 3.4 0 0 Z " fill="#7A736F" transform="translate(105,37)"/>
<path d="M0 0 C0 0.33 0 0.66 0 1 C-2.62431429 1.31950871 -5.24902759 1.63208566 -7.875 1.9375 C-8.67550781 2.0310376 -9.47601563 2.1245752 -10.30078125 2.22094727 C-16.9703957 2.96425551 -23.62576262 3.35381973 -30.33544922 3.48217773 C-32.72944178 3.53416961 -32.72944178 3.53416961 -36 4 C-36.99 5.485 -36.99 5.485 -38 7 C-38.66 7 -39.32 7 -40 7 C-40.33 7.66 -40.66 8.32 -41 9 C-42.7421875 10.0703125 -42.7421875 10.0703125 -44.875 11.125 C-45.57367188 11.47820312 -46.27234375 11.83140625 -46.9921875 12.1953125 C-49 13 -49 13 -52 13 C-52 12.34 -52 11.68 -52 11 C-49.36095629 9.58622659 -46.92879371 8.62759865 -44 8 C-43.896875 7.38125 -43.79375 6.7625 -43.6875 6.125 C-43 4 -43 4 -40 2 C-37.55128292 1.69143376 -35.19266353 1.48724783 -32.734375 1.3671875 C-31.66694061 1.30484421 -31.66694061 1.30484421 -30.57794189 1.24124146 C-28.30234712 1.11068169 -26.02628048 0.99292952 -23.75 0.875 C-22.23302788 0.78854716 -20.71609989 0.70131599 -19.19921875 0.61328125 C-12.79393137 0.2522216 -6.4195302 -0.0489008 0 0 Z " fill="#8F7A61" transform="translate(120,113)"/>
<path d="M0 0 C1.29349365 0.00523682 2.5869873 0.01047363 3.91967773 0.01586914 C4.9496714 0.01799156 4.9496714 0.01799156 6.00047302 0.02015686 C8.20144949 0.0257706 10.40232557 0.03832532 12.60327148 0.05102539 C14.09220231 0.05603863 15.58113473 0.06060184 17.07006836 0.06469727 C20.72700223 0.07574446 24.38387707 0.09301826 28.04077148 0.11352539 C28.53577148 3.08352539 28.53577148 3.08352539 29.04077148 6.11352539 C28.34314697 5.46609375 27.64552246 4.81866211 26.92675781 4.15161133 C23.58516235 1.79177384 21.90561647 1.58376864 17.86499023 1.50415039 C16.12958984 1.45581055 16.12958984 1.45581055 14.35913086 1.40649414 C13.16094727 1.39231445 11.96276367 1.37813477 10.72827148 1.36352539 C9.51075195 1.33387695 8.29323242 1.30422852 7.03881836 1.27368164 C4.03940315 1.20310717 1.04075978 1.15034675 -1.95922852 1.11352539 C-1.95922852 2.43352539 -1.95922852 3.75352539 -1.95922852 5.11352539 C2.66077148 5.11352539 7.28077148 5.11352539 12.04077148 5.11352539 C11.71077148 5.77352539 11.38077148 6.43352539 11.04077148 7.11352539 C8.42358398 7.56274414 8.42358398 7.56274414 5.16577148 7.80102539 C3.56088867 7.93057617 3.56088867 7.93057617 1.92358398 8.06274414 C-0.95922852 8.11352539 -0.95922852 8.11352539 -3.95922852 7.11352539 C-4.00177208 5.11397793 -4.00003634 3.11310903 -3.95922852 1.11352539 C-2.95922852 0.11352539 -2.95922852 0.11352539 0 0 Z " fill="#B77A18" transform="translate(51.959228515625,99.886474609375)"/>
<path d="M0 0 C0.33 0 0.66 0 1 0 C1.33 3.63 1.66 7.26 2 11 C2.66 11 3.32 11 4 11 C4.2553824 14.41523644 4.47470664 17.83186659 4.6875 21.25 C4.76033203 22.21808594 4.83316406 23.18617187 4.90820312 24.18359375 C4.96298828 25.11816406 5.01777344 26.05273438 5.07421875 27.015625 C5.13182373 27.87446289 5.18942871 28.73330078 5.2487793 29.61816406 C4.94040304 32.57058678 3.90921629 33.7750681 2 36 C1.484375 36.886875 0.96875 37.77375 0.4375 38.6875 C-1 41 -1 41 -3 42 C-2.690625 41.46375 -2.38125 40.9275 -2.0625 40.375 C-0.82172561 37.6015043 -0.4090325 34.99957163 0 32 C0.66 32 1.32 32 2 32 C2.1847711 27.08303569 2.26234774 22.47019777 1 17.6875 C-0.48916955 11.85666712 -0.16623312 5.97515697 0 0 Z " fill="#DAAF2F" transform="translate(38,29)"/>
<path d="M0 0 C1.134375 0.020625 2.26875 0.04125 3.4375 0.0625 C3.4375 2.3725 3.4375 4.6825 3.4375 7.0625 C0.01517028 8.20327657 -2.64923217 8.16065117 -6.25 8.125 C-8.01923828 8.11146484 -8.01923828 8.11146484 -9.82421875 8.09765625 C-10.72785156 8.08605469 -11.63148437 8.07445312 -12.5625 8.0625 C-11.2425 7.7325 -9.9225 7.4025 -8.5625 7.0625 C-8.2325 5.0825 -7.9025 3.1025 -7.5625 1.0625 C-6.5725 1.0625 -5.5825 1.0625 -4.5625 1.0625 C-3.5625 0.0625 -3.5625 0.0625 0 0 Z M-7.5625 4.0625 C-6.5625 6.0625 -6.5625 6.0625 -6.5625 6.0625 Z " fill="#AB894C" transform="translate(60.5625,1.9375)"/>
<path d="M0 0 C6.6 0 13.2 0 20 0 C19 5 19 5 16.875 6.8125 C13.41554399 8.24140574 10.70840602 8.21814153 7 8 C7.99 6.35 8.98 4.7 10 3 C9.34 3 8.68 3 8 3 C8 2.34 8 1.68 8 1 C5.36 1 2.72 1 0 1 C0 0.67 0 0.34 0 0 Z " fill="#FEFB5C" transform="translate(25,89)"/>
<path d="M0 0 C1.65 0 3.3 0 5 0 C3.68 0.33 2.36 0.66 1 1 C1 1.66 1 2.32 1 3 C1.99 3.33 2.98 3.66 4 4 C4 4.66 4 5.32 4 6 C4.66 6 5.32 6 6 6 C4.80328833 9.59013501 3.98762875 10.66819219 1 13 C-3.26782649 14.6511591 -7.40540323 16 -12 16 C-10.26185942 14.07889725 -8.79211698 12.88566434 -6.5 11.625 C-2.74623714 9.18505414 -1.36293712 6.48474275 -0.3125 2.1875 C-0.209375 1.465625 -0.10625 0.74375 0 0 Z " fill="#C3983C" transform="translate(26,74)"/>
<path d="M0 0 C3.3 0 6.6 0 10 0 C10 0.66 10 1.32 10 2 C10.99 2.33 11.98 2.66 13 3 C13.12058347 9.41772028 13.00784529 15.65057468 12 22 C11.34 22.33 10.68 22.66 10 23 C9.690625 23.66 9.38125 24.32 9.0625 25 C8 27 8 27 5 28 C5.4375 26.6875 5.875 25.375 6.3125 24.0625 C6.72048828 22.83273438 6.72048828 22.83273438 7.13671875 21.578125 C7.69238031 19.91868322 8.2568053 18.2621369 8.83203125 16.609375 C10.28054469 12.41368088 11.43257075 8.42594814 12 4 C11.0409375 3.7834375 11.0409375 3.7834375 10.0625 3.5625 C8 3 8 3 7 2 C4.67182036 1.63239269 2.3381615 1.29758419 0 1 C0 0.67 0 0.34 0 0 Z " fill="#E3BE40" transform="translate(48,17)"/>
<path d="M0 0 C15.84 0 31.68 0 48 0 C48 0.33 48 0.66 48 1 C43.47954554 1.16749457 38.95891882 1.32806608 34.43798828 1.48217773 C32.89950922 1.53560391 31.36109506 1.59093379 29.82275391 1.64819336 C27.61374914 1.73008748 25.40460276 1.80517099 23.1953125 1.87890625 C22.50567413 1.90594131 21.81603577 1.93297638 21.10549927 1.96083069 C16.22774341 2.11387171 16.22774341 2.11387171 14 1 C13.67 2.65 13.34 4.3 13 6 C11.35 5.67 9.7 5.34 8 5 C8 4.01 8 3.02 8 2 C5.36 1.67 2.72 1.34 0 1 C0 0.67 0 0.34 0 0 Z " fill="#9C6D0E" transform="translate(32,99)"/>
<path d="M0 0 C0.33 1.32 0.66 2.64 1 4 C3.31 4.33 5.62 4.66 8 5 C7.01 5.33 6.02 5.66 5 6 C4.938125 6.763125 4.87625 7.52625 4.8125 8.3125 C4 11 4 11 1.6875 12.875 C-1.18674892 14.07817396 -2.17347829 14.15154588 -5 13 C-3.35 11.35 -1.7 9.7 0 8 C-0.66 8 -1.32 8 -2 8 C-3.625 6.625 -3.625 6.625 -5 5 C-5 4.34 -5 3.68 -5 3 C-3.68 3 -2.36 3 -1 3 C-0.67 2.01 -0.34 1.02 0 0 Z " fill="#D3A741" transform="translate(32,72)"/>
<path d="M0 0 C0 0.99 0 1.98 0 3 C-1.65002828 4.35386936 -3.3174387 5.68678142 -5 7 C-5.33 7.99 -5.66 8.98 -6 10 C-5.34 10 -4.68 10 -4 10 C-4.99 12.97 -5.98 15.94 -7 19 C-7.33 19 -7.66 19 -8 19 C-8 15.7 -8 12.4 -8 9 C-8.33 9.99 -8.66 10.98 -9 12 C-9.66 12 -10.32 12 -11 12 C-11.86476686 9.57865279 -12.1422798 8.39126946 -11.25 5.9375 C-9.26589799 2.86214188 -8.0584522 1.28397498 -4.4375 0.3125 C-2 0 -2 0 0 0 Z M-9 5 C-9 5.99 -9 6.98 -9 8 C-8.34 7.01 -7.68 6.02 -7 5 C-7.66 5 -8.32 5 -9 5 Z " fill="#9E793E" transform="translate(40,17)"/>
<path d="M0 0 C0.33 0 0.66 0 1 0 C1 1.98 1 3.96 1 6 C2.093125 5.95875 3.18625 5.9175 4.3125 5.875 C9.66203382 5.85579162 14.77842235 6.92496931 20 8 C16.89914429 10.06723714 16.27068319 10.24497423 12.76953125 10.1953125 C11.56586914 10.18564453 11.56586914 10.18564453 10.33789062 10.17578125 C9.50451172 10.15902344 8.67113281 10.14226562 7.8125 10.125 C6.96751953 10.11597656 6.12253906 10.10695313 5.25195312 10.09765625 C3.16784757 10.07410703 1.08388783 10.03823647 -1 10 C-0.67 6.7 -0.34 3.4 0 0 Z " fill="#A79241" transform="translate(83,104)"/>
<path d="M0 0 C0.66 0.33 1.32 0.66 2 1 C2.62005021 25.90535012 2.62005021 25.90535012 -1.57421875 30.859375 C-2.04472656 31.23578125 -2.51523437 31.6121875 -3 32 C-3.33 31.01 -3.66 30.02 -4 29 C-3.34 29 -2.68 29 -2 29 C-1.34 19.43 -0.68 9.86 0 0 Z " fill="#7D5216" transform="translate(25,47)"/>
<path d="M0 0 C0.66 0 1.32 0 2 0 C2.93742541 2.81227622 3.13470844 4.58746844 3.125 7.5 C3.12757812 8.2734375 3.13015625 9.046875 3.1328125 9.84375 C3 12 3 12 2 15 C1.34 15 0.68 15 0 15 C-0.33 15.66 -0.66 16.32 -1 17 C-1.66 17.33 -2.32 17.66 -3 18 C-3.33 18.99 -3.66 19.98 -4 21 C-5.98 21.33 -7.96 21.66 -10 22 C-9.5 19.125 -9.5 19.125 -8 16 C-5.31689039 14.81724148 -2.9318711 14.47288244 0 14 C0 9.38 0 4.76 0 0 Z " fill="#7C5715" transform="translate(80,100)"/>
<path d="M0 0 C0.33 0 0.66 0 1 0 C1 1.65 1 3.3 1 5 C3.97 5.33 6.94 5.66 10 6 C8.375 12.75 8.375 12.75 5 15 C2.24671902 12.62216643 1.03055089 10.48801839 0 7 C-0.07646165 4.6679198 -0.09143299 2.33154122 0 0 Z " fill="#8C671B" transform="translate(47,102)"/>
<path d="M0 0 C0.66 0 1.32 0 2 0 C2 1.32 2 2.64 2 4 C2.99 4.33 3.98 4.66 5 5 C4.835 6.03125 4.67 7.0625 4.5 8.125 C3.8814821 11.8588753 3.8814821 11.8588753 4.25 15.0625 C3.88681501 19.32992368 1.91635578 20.93782643 -1 24 C-1 21 -1 21 0 20 C0.08669432 18.5112814 0.10703494 17.018555 0.09765625 15.52734375 C0.09443359 14.62822266 0.09121094 13.72910156 0.08789062 12.80273438 C0.07951172 11.85720703 0.07113281 10.91167969 0.0625 9.9375 C0.05798828 8.98810547 0.05347656 8.03871094 0.04882812 7.06054688 C0.0370011 4.70696935 0.02052025 2.35351523 0 0 Z " fill="#F3CD3E" transform="translate(42,41)"/>
<path d="M0 0 C0.33 0.66 0.66 1.32 1 2 C8.26 2 15.52 2 23 2 C23 2.33 23 2.66 23 3 C14.31163005 4.20731692 5.79705092 5.38064163 -3 5 C-3.33 4.01 -3.66 3.02 -4 2 C-2.68 1.34 -1.36 0.68 0 0 Z " fill="#CE9E25" transform="translate(16,96)"/>
<path d="M0 0 C6.6 0 13.2 0 20 0 C20.33 0.99 20.66 1.98 21 3 C17.87517438 3.08687496 14.75065754 3.14034568 11.625 3.1875 C10.29082031 3.22520508 10.29082031 3.22520508 8.9296875 3.26367188 C7.65351563 3.27817383 7.65351563 3.27817383 6.3515625 3.29296875 C5.17327881 3.31653442 5.17327881 3.31653442 3.97119141 3.34057617 C3.32069824 3.22818604 2.67020508 3.1157959 2 3 C1.34 2.01 0.68 1.02 0 0 Z " fill="#C38128" transform="translate(24,108)"/>
<path d="M0 0 C0.99 0 1.98 0 3 0 C3.5 2.6875 3.5 2.6875 3 6 C-1.23460363 10.07297754 -6.18535102 11.79949486 -12 12 C-15.35042969 11.77860597 -18.67095025 11.4353888 -22 11 C-22 10.01 -22 9.02 -22 8 C-21.34 8.33 -20.68 8.66 -20 9 C-17.28239892 9.07181821 -14.59140612 9.09299506 -11.875 9.0625 C-10.74384766 9.05573242 -10.74384766 9.05573242 -9.58984375 9.04882812 C-7.72652873 9.03703499 -5.86325445 9.01909942 -4 9 C-3.67 7.68 -3.34 6.36 -3 5 C-2.34 5 -1.68 5 -1 5 C-0.67 3.35 -0.34 1.7 0 0 Z " fill="#EFC248" transform="translate(55,66)"/>
<path d="M0 0 C0.33 1.32 0.66 2.64 1 4 C2.32 4 3.64 4 5 4 C5.33 2.68 5.66 1.36 6 0 C6.66 2.64 7.32 5.28 8 8 C8.66 8 9.32 8 10 8 C10 8.66 10 9.32 10 10 C9.34 10 8.68 10 8 10 C7.67 10.66 7.34 11.32 7 12 C7.66 12 8.32 12 9 12 C8.67 12.99 8.34 13.98 8 15 C0.17307692 7.59615385 0.17307692 7.59615385 -0.1875 2.1875 C-0.125625 1.465625 -0.06375 0.74375 0 0 Z M6 7 C7 9 7 9 7 9 Z " fill="#493716" transform="translate(104,72)"/>
<path d="M0 0 C0.99 0 1.98 0 3 0 C5 3.75 5 3.75 5 6 C5.66 5.34 6.32 4.68 7 4 C9.32086397 9.324335 8.91457003 13.43842552 8 19 C7.34 18.67 6.68 18.34 6 18 C5.3671875 15.49609375 5.3671875 15.49609375 4.875 12.4375 C4.70742187 11.42558594 4.53984375 10.41367187 4.3671875 9.37109375 C4.24601562 8.58863281 4.12484375 7.80617188 4 7 C3.01 6.67 2.02 6.34 1 6 C0.67 4.02 0.34 2.04 0 0 Z M6 7 C7 10 7 10 7 10 Z M7 11 C8 13 8 13 8 13 Z " fill="#80726B" transform="translate(95,23)"/>
<path d="M0 0 C2.95626392 0.07140734 4.49382477 0.24851208 7.1875 1.5625 C8.625 3.3125 8.625 3.3125 8.625 7.3125 C7.965 7.3125 7.305 7.3125 6.625 7.3125 C6.4703125 8.9521875 6.4703125 8.9521875 6.3125 10.625 C5.61385988 14.37225155 5.31102762 14.97212741 2.625 17.3125 C2.76607747 15.85369891 2.91302415 14.39546449 3.0625 12.9375 C3.14371094 12.12539063 3.22492187 11.31328125 3.30859375 10.4765625 C3.625 8.3125 3.625 8.3125 4.625 6.3125 C4.295 4.9925 3.965 3.6725 3.625 2.3125 C0.325 2.3125 -2.975 2.3125 -6.375 2.3125 C-3.97049822 -0.09200178 -3.29266058 0.01640861 0 0 Z " fill="#FAD546" transform="translate(50.375,17.6875)"/>
<path d="M0 0 C7.4057508 -0.36421725 7.4057508 -0.36421725 9.9375 1.1875 C11.24912987 3.42498625 11.65447612 5.44312331 12 8 C9.69 8 7.38 8 5 8 C4.731875 7.05125 4.46375 6.1025 4.1875 5.125 C3.25013412 1.74732727 3.25013412 1.74732727 0 0 Z " fill="#8C6116" transform="translate(109,101)"/>
<path d="M0 0 C0.75 1.625 0.75 1.625 1 4 C-1.08139861 7.85444186 -2.79030081 10.49653601 -7 12 C-6.01 10.35 -5.02 8.7 -4 7 C-5.32 6.67 -6.64 6.34 -8 6 C-8 4.35 -8 2.7 -8 1 C-6.576875 1.309375 -6.576875 1.309375 -5.125 1.625 C-4.09375 1.74875 -3.0625 1.8725 -2 2 C-1.34 1.34 -0.68 0.68 0 0 Z " fill="#A3792E" transform="translate(25,75)"/>
<path d="M0 0 C11.22 0 22.44 0 34 0 C34.495 2.475 34.495 2.475 35 5 C33.68 5 32.36 5 31 5 C31 4.01 31 3.02 31 2 C29.68386719 2.01160156 28.36773437 2.02320312 27.01171875 2.03515625 C8.91683133 2.14528109 8.91683133 2.14528109 0 1 C0 0.67 0 0.34 0 0 Z " fill="#9B8B67" transform="translate(14,114)"/>
<path d="M0 0 C1.13088241 3.39264724 0.72337492 4.5826771 0 8 C-0.06533435 9.93651019 -0.08584303 11.87502861 -0.0625 13.8125 C-0.05347656 14.78832031 -0.04445313 15.76414062 -0.03515625 16.76953125 C-0.02355469 17.50558594 -0.01195312 18.24164063 0 19 C-0.99 18.67 -1.98 18.34 -3 18 C-3.22262606 15.91814549 -3.42757926 13.83439574 -3.625 11.75 C-3.74101562 10.58984375 -3.85703125 9.4296875 -3.9765625 8.234375 C-3.99967934 5.04425092 -3.80520773 3.57886818 -2 1 C-1.34 0.67 -0.68 0.34 0 0 Z M-3 5 C-2 9 -2 9 -2 9 Z " fill="#9C8364" transform="translate(28,29)"/>
<path d="M0 0 C0.66 1.98 1.32 3.96 2 6 C0 8 0 8 -3.625 8.125 C-4.73875 8.08375 -5.8525 8.0425 -7 8 C-4.18918919 0 -4.18918919 0 0 0 Z " fill="#FAF977" transform="translate(42,66)"/>
<path d="M0 0 C0.99 0.33 1.98 0.66 3 1 C3 2.98 3 4.96 3 7 C1.02 7.33 -0.96 7.66 -3 8 C-3 8.66 -3 9.32 -3 10 C-6.63 9.67 -10.26 9.34 -14 9 C-14 8.67 -14 8.34 -14 8 C-12.98679687 7.90912109 -12.98679687 7.90912109 -11.953125 7.81640625 C-11.06109375 7.73261719 -10.1690625 7.64882812 -9.25 7.5625 C-8.36828125 7.48128906 -7.4865625 7.40007812 -6.578125 7.31640625 C-4.30649548 7.03761535 -2.20148177 6.61209423 0 6 C0 4.02 0 2.04 0 0 Z " fill="#9E7927" transform="translate(111,103)"/>
<path d="M0 0 C1.60332791 -0.08121924 3.20784026 -0.13929134 4.8125 -0.1875 C6.15248047 -0.23970703 6.15248047 -0.23970703 7.51953125 -0.29296875 C10.41647515 0.04918998 11.22555028 0.75393573 13 3 C11.68 2.67 10.36 2.34 9 2 C9 3.98 9 5.96 9 8 C7.68 8 6.36 8 5 8 C5 5.69 5 3.38 5 1 C3.35 1 1.7 1 0 1 C0 0.67 0 0.34 0 0 Z " fill="#91773C" transform="translate(59,1)"/>
<path d="M0 0 C2.45840605 -0.02691685 4.91651882 -0.04679802 7.375 -0.0625 C8.07367188 -0.07087891 8.77234375 -0.07925781 9.4921875 -0.08789062 C14.7734375 -0.11328125 14.7734375 -0.11328125 17 1 C17.36923077 6.53846154 17.36923077 6.53846154 15.5 8.875 C15.005 9.24625 14.51 9.6175 14 10 C13.34 9.67 12.68 9.34 12 9 C13.32 6.69 14.64 4.38 16 2 C13.54159395 1.97308315 11.08348118 1.95320198 8.625 1.9375 C7.57699219 1.92493164 7.57699219 1.92493164 6.5078125 1.91210938 C2.62704624 1.8164558 2.62704624 1.8164558 -1 3 C-0.67 2.01 -0.34 1.02 0 0 Z " fill="#C18F3A" transform="translate(64,105)"/>
<path d="M0 0 C-1 2 -1 2 -3.87109375 3.0703125 C-5.04800781 3.41835937 -6.22492187 3.76640625 -7.4375 4.125 C-9.19900391 4.65480469 -9.19900391 4.65480469 -10.99609375 5.1953125 C-14 6 -14 6 -16 6 C-16 4.68 -16 3.36 -16 2 C-14.7315625 1.814375 -14.7315625 1.814375 -13.4375 1.625 C-9.92478131 1.05497912 -9.92478131 1.05497912 -6.3125 -0.125 C-3 -1 -3 -1 0 0 Z " fill="#8D7656" transform="translate(56,11)"/>
<path d="M0 0 C3.25696479 0.41755959 4.63443291 0.63443291 7 3 C7 3.99 7 4.98 7 6 C2.25 7.125 2.25 7.125 0 6 C-0.6875 3.5 -0.6875 3.5 -1 1 C-0.67 0.67 -0.34 0.34 0 0 Z " fill="#684C1B" transform="translate(59,109)"/>
<path d="M0 0 C2.00946222 -0.27050453 4.01354224 -0.59367909 6 -1 C5.67 0.32 5.34 1.64 5 3 C-0.28 3 -5.56 3 -11 3 C-4.65263158 -1.23157895 -4.65263158 -1.23157895 0 0 Z " fill="#AD8F39" transform="translate(69,95)"/>
<path d="M0 0 C0.33 0 0.66 0 1 0 C1 1.65 1 3.3 1 5 C0.67 5 0.34 5 0 5 C0 3.35 0 1.7 0 0 Z M-1 5 C-0.67 5 -0.34 5 0 5 C0.02700675 7.91672884 0.04684237 10.83320677 0.0625 13.75 C0.07087891 14.575 0.07925781 15.4 0.08789062 16.25 C0.09111328 17.04921875 0.09433594 17.8484375 0.09765625 18.671875 C0.10289307 19.4050293 0.10812988 20.13818359 0.11352539 20.89355469 C-0.0024891 23.0461849 -0.40926729 24.9314135 -1 27 C-0.34 27 0.32 27 1 27 C0.67 27.99 0.34 28.98 0 30 C-1.32 29.67 -2.64 29.34 -4 29 C-3.34 29 -2.68 29 -2 29 C-2.01160156 28.44054687 -2.02320312 27.88109375 -2.03515625 27.3046875 C-2.11923413 19.83376696 -1.60066109 12.44390714 -1 5 Z " fill="#AB7822" transform="translate(31,44)"/>
<path d="M0 0 C1.52835982 3.05671964 0.77871069 5.79798812 0 9 C-1.21283327 12.38705878 -2.57180855 15.6985528 -4 19 C-4.33 19 -4.66 19 -5 19 C-5.22577402 13.5814234 -4.46670113 9.22512279 -3 4 C-2.34 4 -1.68 4 -1 4 C-0.67 2.68 -0.34 1.36 0 0 Z " fill="#845616" transform="translate(32,25)"/>
<path d="M0 0 C1.66611905 -0.042721 3.33382885 -0.04063832 5 0 C6 1 6 1 6.0625 3.5625 C6.041875 4.366875 6.02125 5.17125 6 6 C4.02 6.66 2.04 7.32 0 8 C0 5.36 0 2.72 0 0 Z " fill="#FEFE8C" transform="translate(41,23)"/>
<path d="M0 0 C-1.6396875 0.7734375 -1.6396875 0.7734375 -3.3125 1.5625 C-7.55183965 3.9396196 -8.51903023 6.46997482 -10 11 C-10.66 10.01 -11.32 9.02 -12 8 C-12.99 8.495 -12.99 8.495 -14 9 C-13.66960927 5.91635318 -13.02342865 5.02152903 -10.6875 2.875 C-4.34330709 -1.5511811 -4.34330709 -1.5511811 0 0 Z " fill="#CE9F3C" transform="translate(48,18)"/>
<path d="M0 0 C0.99 0 1.98 0 3 0 C3 0.66 3 1.32 3 2 C16.365 2.495 16.365 2.495 30 3 C29.67 3.66 29.34 4.32 29 5 C19.43 4.67 9.86 4.34 0 4 C0 2.68 0 1.36 0 0 Z " fill="#D08B19" transform="translate(50,101)"/>
<path d="M0 0 C8.91 0 17.82 0 27 0 C27.33 1.98 27.66 3.96 28 6 C27.41863281 5.35546875 26.83726563 4.7109375 26.23828125 4.046875 C21.40640655 0.99271053 16.79572354 1.32537014 11.1875 1.25 C10.11306641 1.22035156 9.03863281 1.19070312 7.93164062 1.16015625 C5.28768573 1.08965079 2.6446027 1.03685857 0 1 C0 0.67 0 0.34 0 0 Z " fill="#CB7B08" transform="translate(53,100)"/>
<path d="M0 0 C2 2 2 2 2.1953125 5.0390625 C2.17210938 6.22242188 2.14890625 7.40578125 2.125 8.625 C2.10695313 9.81351563 2.08890625 11.00203125 2.0703125 12.2265625 C2.04710938 13.14179687 2.02390625 14.05703125 2 15 C2.99 15.33 3.98 15.66 5 16 C5 16.66 5 17.32 5 18 C4.34 18 3.68 18 3 18 C2.67 18.99 2.34 19.98 2 21 C1.1727161 18.01488392 0.76609994 15.14640821 0.5 12.0625 C0.24818278 9.30469527 -0.05935147 6.71511293 -0.625 4 C-1 2 -1 2 0 0 Z " fill="#5D511F" transform="translate(101,54)"/>
<path d="M0 0 C0.66 0 1.32 0 2 0 C2 1.65 2 3.3 2 5 C-0.31 5.33 -2.62 5.66 -5 6 C-5 4.68 -5 3.36 -5 2 C-5.99 1.67 -6.98 1.34 -8 1 C-6.865625 1.020625 -5.73125 1.04125 -4.5625 1.0625 C-1.18424326 1.41577477 -1.18424326 1.41577477 0 0 Z " fill="#5E3E10" transform="translate(125,102)"/>
<path d="M0 0 C0.33 0 0.66 0 1 0 C2.72107623 7.66816143 2.72107623 7.66816143 0.953125 10.93359375 C-0.4375 12.5625 -0.4375 12.5625 -3 15 C-3.66 14.01 -4.32 13.02 -5 12 C-4.34 11.34 -3.68 10.68 -3 10 C-2.36233239 8.09999642 -2.36233239 8.09999642 -1.9375 6 C-1.44544792 3.78779893 -1.01674863 2.03349727 0 0 Z " fill="#BC9C37" transform="translate(66,22)"/>
<path d="M0 0 C0 2.31 0 4.62 0 7 C-1.65 7 -3.3 7 -5 7 C-5.33 5.35 -5.66 3.7 -6 2 C-3 0 -3 0 0 0 Z " fill="#E1C545" transform="translate(64,2)"/>
<path d="M0 0 C1.97909398 -0.02686553 3.95828971 -0.04633375 5.9375 -0.0625 C7.03964844 -0.07410156 8.14179687 -0.08570312 9.27734375 -0.09765625 C12 0 12 0 13 1 C13.04063832 2.66617115 13.042721 4.33388095 13 6 C11.35 5.67 9.7 5.34 8 5 C8 4.01 8 3.02 8 2 C5.36 1.67 2.72 1.34 0 1 C0 0.67 0 0.34 0 0 Z " fill="#A07D19" transform="translate(32,99)"/>
<path d="M0 0 C1.32 0.33 2.64 0.66 4 1 C4 2.32 4 3.64 4 5 C2.35 5.33 0.7 5.66 -1 6 C-1 6.66 -1 7.32 -1 8 C-2.65 8 -4.3 8 -6 8 C-4 5 -4 5 -1 4 C-0.26676204 1.98491642 -0.26676204 1.98491642 0 0 Z " fill="#FEED4B" transform="translate(45,89)"/>
<path d="M0 0 C-0.66 1.98 -1.32 3.96 -2 6 C-3.98 6.33 -5.96 6.66 -8 7 C-7.39816251 4.97954558 -6.72693904 2.97888961 -6 1 C-4 0 -4 0 0 0 Z " fill="#875F26" transform="translate(78,115)"/>
<path d="M0 0 C2.97 0.495 2.97 0.495 6 1 C5.67715014 4.01326538 4.96634616 5.03461538 2.8125 7.25 C-0.43411922 9.27011863 -2.24742282 9.34907695 -6 9 C-6 8.67 -6 8.34 -6 8 C-4.6078125 7.6596875 -4.6078125 7.6596875 -3.1875 7.3125 C0.50719183 5.7911563 1.32482761 4.53647504 3 1 C2.01 0.67 1.02 0.34 0 0 Z " fill="#EDC740" transform="translate(53,88)"/>
<path d="M0 0 C0.66 0.33 1.32 0.66 2 1 C-0.80993891 6.17620325 -3.72807677 10.099804 -9.3125 12.3125 C-10.6428125 12.6528125 -10.6428125 12.6528125 -12 13 C-10.37240915 10.51578239 -9.1762454 9.09942048 -6.5625 7.625 C-3.36313456 5.59613411 -1.9299271 3.21654517 0 0 Z " fill="#B68C39" transform="translate(26,78)"/>
<path d="M0 0 C1.32 0.66 2.64 1.32 4 2 C3.67 2.66 3.34 3.32 3 4 C2.34 3.67 1.68 3.34 1 3 C1.350625 3.598125 1.70125 4.19625 2.0625 4.8125 C3 7 3 7 2 10 C0.99406757 8.8803014 -0.0045849 7.7540588 -1 6.625 C-1.556875 5.99851562 -2.11375 5.37203125 -2.6875 4.7265625 C-4 3 -4 3 -4 1 C-2.68 1.33 -1.36 1.66 0 2 C0 1.34 0 0.68 0 0 Z " fill="#594E32" transform="translate(94,19)"/>
<path d="M0 0 C1.65 0.99 3.3 1.98 5 3 C4.67 3.99 4.34 4.98 4 6 C-0.24223102 6.3636198 -2.58168085 5.5393228 -6 3 C-6 2.34 -6 1.68 -6 1 C-3.03 1.495 -3.03 1.495 0 2 C0 1.34 0 0.68 0 0 Z " fill="#7D705B" transform="translate(90,15)"/>
<path d="M0 0 C2.10353495 -0.0810206 4.20795952 -0.13919907 6.3125 -0.1875 C7.48425781 -0.22230469 8.65601562 -0.25710937 9.86328125 -0.29296875 C13 0 13 0 14.91796875 1.51171875 C15.27503906 2.00285156 15.63210937 2.49398437 16 3 C10.22192976 3.2358396 5.48675196 2.86783046 0 1 C0 0.67 0 0.34 0 0 Z " fill="#DB8609" transform="translate(63,101)"/>
<path d="M0 0 C0.33 1.32 0.66 2.64 1 4 C3.31 4.33 5.62 4.66 8 5 C4.5647952 7.29013653 3.014669 7.17842973 -1 7 C-1 6.34 -1 5.68 -1 5 C-2.32 5 -3.64 5 -5 5 C-5 4.34 -5 3.68 -5 3 C-3.68 3 -2.36 3 -1 3 C-0.67 2.01 -0.34 1.02 0 0 Z " fill="#DDAD42" transform="translate(32,72)"/>
<path d="M0 0 C1.65 0 3.3 0 5 0 C5 0.66 5 1.32 5 2 C5.66 2 6.32 2 7 2 C7 2.66 7 3.32 7 4 C7.66 4 8.32 4 9 4 C9.33 3.34 9.66 2.68 10 2 C9.67 3.32 9.34 4.64 9 6 C7.35 5.67 5.7 5.34 4 5 C4 4.01 4 3.02 4 2 C2.35 2 0.7 2 -1 2 C-0.67 1.34 -0.34 0.68 0 0 Z " fill="#C79145" transform="translate(67,109)"/>
<path d="M0 0 C2.64 0 5.28 0 8 0 C8 0.99 8 1.98 8 3 C5.36 3.33 2.72 3.66 0 4 C0 2.68 0 1.36 0 0 Z " fill="#FEFE8B" transform="translate(24,92)"/>
<path d="M0 0 C-3.88309282 3.64775386 -6.71201818 4.58525633 -12 5 C-12 4.34 -12 3.68 -12 3 C-10.5682384 2.30062798 -9.12932968 1.61587282 -7.6875 0.9375 C-6.48673828 0.36322266 -6.48673828 0.36322266 -5.26171875 -0.22265625 C-3 -1 -3 -1 0 0 Z " fill="#DBA941" transform="translate(26,88)"/>
<path d="M0 0 C0.99 0 1.98 0 3 0 C3.1875 2.875 3.1875 2.875 3 6 C0 8 0 8 -4 8 C-3.67 7.01 -3.34 6.02 -3 5 C-2.34 5 -1.68 5 -1 5 C-0.67 3.35 -0.34 1.7 0 0 Z " fill="#F5D242" transform="translate(55,66)"/>
<path d="M0 0 C2.75 -0.25 2.75 -0.25 6 0 C8.1875 1.9375 8.1875 1.9375 10 4 C10.99 4.33 11.98 4.66 13 5 C12.67 6.65 12.34 8.3 12 10 C11.34 10 10.68 10 10 10 C10.33 8.68 10.66 7.36 11 6 C10.38125 5.71125 9.7625 5.4225 9.125 5.125 C7 4 7 4 5 2 C2.42938689 1.35232207 2.42938689 1.35232207 0 1 C0 0.67 0 0.34 0 0 Z " fill="#90682E" transform="translate(57,107)"/>
<path d="M0 0 C2.64 0 5.28 0 8 0 C8 1.98 8 3.96 8 6 C6.68 5.34 5.36 4.68 4 4 C4 3.34 4 2.68 4 2 C2.68 1.67 1.36 1.34 0 1 C0 0.67 0 0.34 0 0 Z " fill="#B48D1C" transform="translate(103,103)"/>
<path d="M0 0 C1.32 0 2.64 0 4 0 C3.67 1.32 3.34 2.64 3 4 C4.65 4 6.3 4 8 4 C8 4.33 8 4.66 8 5 C1.375 5.125 1.375 5.125 -2 4 C-1.34 2.68 -0.68 1.36 0 0 Z " fill="#4C3007" transform="translate(6,104)"/>
<path d="M0 0 C2.97 0 5.94 0 9 0 C8.67 1.32 8.34 2.64 8 4 C5.125 3.6875 5.125 3.6875 2 3 C1.34 2.01 0.68 1.02 0 0 Z " fill="#5A3C10" transform="translate(17,102)"/>
<path d="M0 0 C4.30367853 1.43455951 6.43959778 4.33677394 9 8 C9.875 10.9375 9.875 10.9375 10 13 C7.46281378 10.56039786 5.07566573 8.01479593 2.75 5.375 C2.22921875 4.78460938 1.7084375 4.19421875 1.171875 3.5859375 C0 2 0 2 0 0 Z " fill="#412F0D" transform="translate(115,88)"/>
<path d="M0 0 C0.33 0.99 0.66 1.98 1 3 C0.01 3.99 -0.98 4.98 -2 6 C-2.66 5.67 -3.32 5.34 -4 5 C-4 4.34 -4 3.68 -4 3 C-2 1.375 -2 1.375 0 0 Z M-9 4 C-7.35 4 -5.7 4 -4 4 C-6.38573379 5.89213369 -8.07175348 7.02391783 -11 8 C-10.34 6.68 -9.68 5.36 -9 4 Z " fill="#CCA33A" transform="translate(64,71)"/>
<path d="M0 0 C0.99 0 1.98 0 3 0 C2.75 3.375 2.75 3.375 2 7 C-0.0625 8.4375 -0.0625 8.4375 -2 9 C-2 5.78735765 -1.2314107 3.92460042 0 1 C0 0.67 0 0.34 0 0 Z " fill="#FFF74F" transform="translate(51,21)"/>
<path d="M0 0 C2.31 0 4.62 0 7 0 C5.75 2.5 5.75 2.5 4 5 C2.68 5 1.36 5 0 5 C0 3.35 0 1.7 0 0 Z " fill="#704F16" transform="translate(25,101)"/>
<path d="M0 0 C2.475 0.495 2.475 0.495 5 1 C4.67 2.65 4.34 4.3 4 6 C2.68 5.67 1.36 5.34 0 5 C0 3.35 0 1.7 0 0 Z " fill="#8E8168" transform="translate(17,76)"/>
<path d="M0 0 C1.41377341 2.63904371 2.37240135 5.07120629 3 8 C3.66 8 4.32 8 5 8 C5 8.66 5 9.32 5 10 C2.0625 9.25 2.0625 9.25 -1 8 C-1.875 5.875 -1.875 5.875 -2 4 C-1.34 4 -0.68 4 0 4 C0 2.68 0 1.36 0 0 Z " fill="#787582" transform="translate(109,72)"/>
<path d="M0 0 C1.64846769 0.44876616 3.29373455 0.90930488 4.9375 1.375 C5.85402344 1.63023438 6.77054688 1.88546875 7.71484375 2.1484375 C10 3 10 3 11 5 C8.03 4.67 5.06 4.34 2 4 C2 3.34 2 2.68 2 2 C1.34 2 0.68 2 0 2 C0 1.34 0 0.68 0 0 Z " fill="#E4BA40" transform="translate(48,84)"/>
<path d="M0 0 C0.33 0 0.66 0 1 0 C1.02692484 2.29160319 1.04636124 4.58329546 1.0625 6.875 C1.07410156 8.15117188 1.08570312 9.42734375 1.09765625 10.7421875 C1 14 1 14 0 16 C-0.66 16 -1.32 16 -2 16 C-2 14.68 -2 13.36 -2 12 C-1.34 12 -0.68 12 0 12 C0 8.04 0 4.08 0 0 Z " fill="#8B757C" transform="translate(107,60)"/>
<path d="M0 0 C3.93846154 3.32307692 3.93846154 3.32307692 4.25 6.75 C4.1675 7.4925 4.085 8.235 4 9 C3.01 9 2.02 9 1 9 C-0.4783226 6.04335481 -0.06032783 3.25770263 0 0 Z " fill="#5F5126" transform="translate(99,38)"/>
<path d="M0 0 C3.3 0.33 6.6 0.66 10 1 C10 1.66 10 2.32 10 3 C2.25 3.125 2.25 3.125 0 2 C0 1.34 0 0.68 0 0 Z " fill="#734F13" transform="translate(14,108)"/>
<path d="M0 0 C0.33 0 0.66 0 1 0 C1 1.65 1 3.3 1 5 C3.97 5.33 6.94 5.66 10 6 C10 6.33 10 6.66 10 7 C3.375 8.125 3.375 8.125 0 7 C0 4.69 0 2.38 0 0 Z " fill="#A06C18" transform="translate(47,102)"/>
<path d="M0 0 C0 0.99 0 1.98 0 3 C-4.95 4.485 -4.95 4.485 -10 6 C-10 4 -10 4 -8.8125 2.4375 C-6.10927316 0.29356147 -3.38992165 0 0 0 Z " fill="#8F8376" transform="translate(40,17)"/>
<path d="M0 0 C0 3 0 3 -1.3125 4.6875 C-3 6 -3 6 -6 6 C-4.95125002 3.37812506 -4.35068687 2.20628639 -1.875 0.75 C-1.25625 0.5025 -0.6375 0.255 0 0 Z " fill="#785730" transform="translate(19,81)"/>
<path d="M0 0 C0.66 0.33 1.32 0.66 2 1 C2 2.65 2 4.3 2 6 C0.02 6.66 -1.96 7.32 -4 8 C-4 7.34 -4 6.68 -4 6 C-3.01 5.34 -2.02 4.68 -1 4 C-0.27617533 1.94074861 -0.27617533 1.94074861 0 0 Z " fill="#FFFE78" transform="translate(45,23)"/>
<path d="M0 0 C0.33 0.66 0.66 1.32 1 2 C2.65 1.67 4.3 1.34 6 1 C6 2.32 6 3.64 6 5 C5.34 5 4.68 5 4 5 C4 4.34 4 3.68 4 3 C2.02 3.33 0.04 3.66 -2 4 C-1.34 2.68 -0.68 1.36 0 0 Z " fill="#BE8C2D" transform="translate(13,91)"/>
<path d="M0 0 C1.258125 -0.020625 2.51625 -0.04125 3.8125 -0.0625 C4.52019531 -0.07410156 5.22789063 -0.08570313 5.95703125 -0.09765625 C8 0 8 0 11 1 C11 1.66 11 2.32 11 3 C4.6 3.36923077 4.6 3.36923077 1.5625 1.5 C1.046875 1.005 0.53125 0.51 0 0 Z " fill="#756042" transform="translate(77,14)"/>
<path d="M0 0 C0.6875 1.8125 0.6875 1.8125 1 4 C-0.4375 5.75 -0.4375 5.75 -2 7 C-2.66 6.67 -3.32 6.34 -4 6 C-1.125 1.125 -1.125 1.125 0 0 Z " fill="#A67E3E" transform="translate(80,108)"/>
<path d="M0 0 C3.68754757 0.49831724 5.60490662 1.10067643 8 4 C5.69 4 3.38 4 1 4 C1.33 3.01 1.66 2.02 2 1 C1.34 0.67 0.68 0.34 0 0 Z " fill="#744F16" transform="translate(13,102)"/>
<path d="M0 0 C0.66 0.99 1.32 1.98 2 3 C1 4 1 4 -0.84765625 4.09765625 C-2.8984375 4.06510417 -4.94921875 4.03255208 -7 4 C-4.68143083 2.45428722 -2.49361571 1.20381448 0 0 Z " fill="#BD9E3D" transform="translate(65,94)"/>
<path d="M0 0 C3.36016893 1.12005631 4.69064913 2.37211797 7 5 C7 5.66 7 6.32 7 7 C5.35 6.67 3.7 6.34 2 6 C2 4.68 2 3.36 2 2 C1.34 2 0.68 2 0 2 C0 1.34 0 0.68 0 0 Z " fill="#7B6B5B" transform="translate(111,82)"/>
<path d="M0 0 C6.0546875 -0.1953125 6.0546875 -0.1953125 8 0 C8.66 0.66 9.32 1.32 10 2 C6.18510326 3.46726798 3.70988378 2.43336419 0 1 C0 0.67 0 0.34 0 0 Z " fill="#795819" transform="translate(109,101)"/>
<path d="M0 0 C0 0.66 0 1.32 0 2 C0.66 2.33 1.32 2.66 2 3 C-0.97 3 -3.94 3 -7 3 C-7.33 2.34 -7.66 1.68 -8 1 C-2.25 0 -2.25 0 0 0 Z " fill="#776B2C" transform="translate(112,96)"/>
<path d="M0 0 C-2.31 0.33 -4.62 0.66 -7 1 C-3.375 -1.125 -3.375 -1.125 0 0 Z " fill="#563535" transform="translate(74,127)"/>
<path d="M0 0 C2.31 0 4.62 0 7 0 C7 0.33 7 0.66 7 1 C4.69 1 2.38 1 0 1 C0 0.67 0 0.34 0 0 Z " fill="#7F6161" transform="translate(7,113)"/>
<path d="M0 0 C1.65 0 3.3 0 5 0 C5 0.33 5 0.66 5 1 C3.35 1 1.7 1 0 1 C0 0.67 0 0.34 0 0 Z " fill="#7F6565" transform="translate(3,111)"/>
<path d="M0 0 C0.99 0.99 1.98 1.98 3 3 C2.01 2.67 1.02 2.34 0 2 C0 1.34 0 0.68 0 0 Z " fill="#111100" transform="translate(119,87)"/>
<path d="M0 0 C0.99 0.99 1.98 1.98 3 3 C2.01 2.67 1.02 2.34 0 2 C0 1.34 0 0.68 0 0 Z " fill="#4C4433" transform="translate(115,83)"/>
<path d="M0 0 C0 0.99 0 1.98 0 3 C-0.66 2.67 -1.32 2.34 -2 2 C-1.34 1.34 -0.68 0.68 0 0 Z " fill="#445555" transform="translate(37,15)"/>
<path d="M0 0 C0.99 0.33 1.98 0.66 3 1 C2.01 1 1.02 1 0 1 C0 0.67 0 0.34 0 0 Z " fill="#5B3B5B" transform="translate(49,122)"/>
<path d="M0 0 C0 3 0 3 0 3 Z " fill="#4A3525" transform="translate(13,82)"/>
<path d="M0 0 C1 4 1 4 1 4 Z " fill="#6A7474" transform="translate(18,72)"/>
<path d="M0 0 C0.66 0 1.32 0 2 0 C1.67 0.66 1.34 1.32 1 2 C0.67 1.34 0.34 0.68 0 0 Z " fill="#545454" transform="translate(124,93)"/>
<path d="" fill="#E27171" transform="translate(0,0)"/>
<path d="M0 0 C3 1 3 1 3 1 Z " fill="#9B9B2A" transform="translate(80,10)"/>
<path d="M0 0 C3 1 3 1 3 1 Z " fill="#9B9B2A" transform="translate(45,10)"/>
<path d="M0 0 C2 1 2 1 2 1 Z " fill="#3F3F3F" transform="translate(74,125)"/>
<path d="M0 0 C2 1 2 1 2 1 Z " fill="#BFBFBF" transform="translate(52,125)"/>
<path d="M0 0 C2 1 2 1 2 1 Z " fill="#6A2A2A" transform="translate(76,123)"/>
<path d="M0 0 C2 1 2 1 2 1 Z " fill="#72593F" transform="translate(1,110)"/>
<path d="" fill="#AA5555" transform="translate(0,0)"/>
<path d="M0 0 C2 1 2 1 2 1 Z " fill="#946A6A" transform="translate(6,89)"/>
<path d="M0 0 C2 1 2 1 2 1 Z " fill="#6A6A3F" transform="translate(10,85)"/>
<path d="M0 0 C2 1 2 1 2 1 Z " fill="#7F7F2A" transform="translate(14,81)"/>
<path d="" fill="#7F5454" transform="translate(0,0)"/>
<path d="M0 0 C2 1 2 1 2 1 Z " fill="#AAAA00" transform="translate(88,14)"/>
<path d="M0 0 C2 1 2 1 2 1 Z " fill="#BFBF00" transform="translate(38,14)"/>
<path d="M0 0 C2 1 2 1 2 1 Z " fill="#6A5454" transform="translate(86,13)"/>
<path d="M0 0 C2 1 2 1 2 1 Z " fill="#000000" transform="translate(71,1)"/>
<path d="M0 0 C2 1 2 1 2 1 Z " fill="#4C3319" transform="translate(55,1)"/>
<path d="M0 0 C2 1 2 1 2 1 Z " fill="#2A2A2A" transform="translate(69,0)"/>
<path d="M0 0 C2 1 2 1 2 1 Z " fill="#AAAA2A" transform="translate(57,0)"/>
<path d="" fill="#999999" transform="translate(0,0)"/>
<path d="" fill="#7F7F7F" transform="translate(0,0)"/>
<path d="" fill="#000000" transform="translate(0,0)"/>
<path d="" fill="#663333" transform="translate(0,0)"/>
<path d="" fill="#000000" transform="translate(0,0)"/>
<path d="" fill="#000000" transform="translate(0,0)"/>
</svg>
