<?xml version="1.0" encoding="UTF-8"?>
<svg version="1.1" xmlns="http://www.w3.org/2000/svg" width="128" height="128">
<path d="M0 0 C42.24 0 84.48 0 128 0 C128 42.24 128 84.48 128 128 C85.76 128 43.52 128 0 128 C0 85.76 0 43.52 0 0 Z " fill="#DADADA" transform="translate(0,0)"/>
<path d="M0 0 C42.24 0 84.48 0 128 0 C128 16.5 128 33 128 50 C85.76 50 43.52 50 0 50 C0 33.5 0 17 0 0 Z " fill="#AB6161" transform="translate(0,0)"/>
<path d="M0 0 C30.03 0 60.06 0 91 0 C90.67 0.99 90.34 1.98 90 3 C89.505 2.01 89.505 2.01 89 1 C61.775 1.495 61.775 1.495 34 2 C34.66 3.98 35.32 5.96 36 8 C35.125 10.375 35.125 10.375 34 12 C34.495 12.495 34.495 12.495 35 13 C35.495 14.485 35.495 14.485 36 16 C34.02 16.99 34.02 16.99 32 18 C32 17.01 32 16.02 32 15 C31.979375 14.175 31.95875 13.35 31.9375 12.5 C32 10 32 10 33 7 C30.74239143 6.21329449 30.74239143 6.21329449 28 6 C25.32323453 7.37249963 25.32323453 7.37249963 23 9 C22.34 9 21.68 9 21 9 C21.59861742 11.35171131 22.26924352 13.6859378 23 16 C23.66 16.33 24.32 16.66 25 17 C25 18.32 25 19.64 25 21 C24.01 21.33 23.02 21.66 22 22 C22.99 22.33 23.98 22.66 25 23 C25.07347656 24.58941406 25.07347656 24.58941406 25.1484375 26.2109375 C25.22346709 27.59898497 25.29901485 28.98700451 25.375 30.375 C25.4059375 31.07367187 25.436875 31.77234375 25.46875 32.4921875 C25.59499498 36.70185827 25.59499498 36.70185827 28 40 C31.04182893 40.25005386 31.04182893 40.25005386 34 40 C36.11925604 37.88074396 35.41831017 33.3803907 35.5625 30.4375 C35.62727539 29.22803711 35.62727539 29.22803711 35.69335938 27.99414062 C35.79975262 25.99631195 35.90040888 23.9981793 36 22 C36.99 22 37.98 22 39 22 C39.495 30.415 39.495 30.415 40 39 C40.33 39 40.66 39 41 39 C41.33 33.39 41.66 27.78 42 22 C43.32 22 44.64 22 46 22 C46 27.94 46 33.88 46 40 C49.3 40 52.6 40 56 40 C56 41.32 56 42.64 56 44 C52.04 44 48.08 44 44 44 C44.33 44.99 44.66 45.98 45 47 C32.50135142 49.0831081 19.67105187 48 7 48 C46.6 48.33 86.2 48.66 127 49 C127 33.16 127 17.32 127 1 C116.11 1 105.22 1 94 1 C94 2.65 94 4.3 94 6 C96.64 6 99.28 6 102 6 C102 6.33 102 6.66 102 7 C99.03 7 96.06 7 93 7 C92.01 5.02 92.01 5.02 91 3 C91.33 2.01 91.66 1.02 92 0 C103.88 0 115.76 0 128 0 C128 16.5 128 33 128 50 C85.76 50 43.52 50 0 50 C0 33.5 0 17 0 0 Z " fill="#AA5F5F" transform="translate(0,0)"/>
<path d="M0 0 C0 25.74 0 51.48 0 78 C-41.58 78 -83.16 78 -126 78 C-126 52.59 -126 27.18 -126 1 C-125.67 1 -125.34 1 -125 1 C-125 25.42 -125 49.84 -125 75 C-84.74 75 -44.48 75 -3 75 C-3 50.58 -3 26.16 -3 1 C-1 0 -1 0 0 0 Z " fill="#E9E8E8" transform="translate(128,50)"/>
<path d="M0 0 C12.21 0 24.42 0 37 0 C37 9 37 9 34.88867188 13.13085938 C34.42819458 14.05120972 33.96771729 14.97156006 33.49328613 15.9197998 C32.73864075 17.36715515 32.73864075 17.36715515 31.96875 18.84375 C31.45824097 19.85344849 30.94773193 20.86314697 30.42175293 21.90344238 C28.79609986 25.11015392 27.14849807 28.30498273 25.5 31.5 C24.39045683 33.67893945 23.28236737 35.85861981 22.17578125 38.0390625 C19.46729812 43.36807085 16.74073072 48.68751133 14 54 C11.36 54 8.72 54 6 54 C6.50712033 50.28111761 7.11608215 47.26545761 9 44 C9.66 44 10.32 44 11 44 C11.23074219 42.87335938 11.46148437 41.74671875 11.69921875 40.5859375 C12.97257621 35.50368729 15.29595241 31.19110696 17.8125 26.625 C21.32933925 20.13401077 24.69552161 13.60895678 28 7 C18.76 7 9.52 7 0 7 C0 4.69 0 2.38 0 0 Z " fill="#474747" transform="translate(60,60)"/>
<path d="M0 0 C0 18.15 0 36.3 0 55 C-2.64 55 -5.28 55 -8 55 C-8 39.82 -8 24.64 -8 9 C-13.5855689 12.06388175 -13.5855689 12.06388175 -18.3125 15.75 C-21 18 -21 18 -23 18 C-23.29292233 15.0832415 -23.48503005 12.85004179 -23 10 C-21.00423309 7.62259742 -19.57203327 6.24474569 -17.125 4.5 C-16.58875 4.05914062 -16.0525 3.61828125 -15.5 3.1640625 C-9.92943917 -1.00738073 -7.88477095 0 0 0 Z " fill="#4F4F4F" transform="translate(53,60)"/>
<path d="M0 0 C0.99 0 1.98 0 3 0 C3.33 5.61 3.66 11.22 4 17 C4.66 16.67 5.32 16.34 6 16 C6.31241371 13.45058627 6.51303421 10.99638487 6.625 8.4375 C6.68300781 7.37112305 6.68300781 7.37112305 6.7421875 6.28320312 C6.83671783 4.52257575 6.91945817 2.76132272 7 1 C7.66 1 8.32 1 9 1 C9.04898437 2.05960938 9.09796875 3.11921875 9.1484375 4.2109375 C9.22346709 5.59898497 9.29901485 6.98700451 9.375 8.375 C9.4059375 9.07367188 9.436875 9.77234375 9.46875 10.4921875 C9.59499498 14.70185827 9.59499498 14.70185827 12 18 C15.04182893 18.25005386 15.04182893 18.25005386 18 18 C20.11925604 15.88074396 19.41831017 11.3803907 19.5625 8.4375 C19.60568359 7.63119141 19.64886719 6.82488281 19.69335938 5.99414062 C19.79975262 3.99631195 19.90040888 1.9981793 20 0 C20.99 0 21.98 0 23 0 C23.495 8.415 23.495 8.415 24 17 C24.33 17 24.66 17 25 17 C25.33 11.39 25.66 5.78 26 0 C27.32 0 28.64 0 30 0 C30 5.94 30 11.88 30 18 C33.3 18 36.6 18 40 18 C40 19.32 40 20.64 40 22 C36.04 22 32.08 22 28 22 C28.495 23.485 28.495 23.485 29 25 C18.89945834 27.24456481 8.19540173 25.920875 -2 25 C-1.67 24.01 -1.34 23.02 -1 22 C-1.763125 22.061875 -2.52625 22.12375 -3.3125 22.1875 C-6 22 -6 22 -7.8125 20.6875 C-9 19 -9 19 -9 16 C-8.01 16 -7.02 16 -6 16 C-6 16.99 -6 17.98 -6 19 C-4.35 18.67 -2.7 18.34 -1 18 C-0.505 9.09 -0.505 9.09 0 0 Z " fill="#AE6969" transform="translate(16,22)"/>
<path d="M0 0 C8.25 0 16.5 0 25 0 C25 0.33 25 0.66 25 1 C17.08 1 9.16 1 1 1 C1 16.84 1 32.68 1 49 C42.58 49 84.16 49 127 49 C127 33.16 127 17.32 127 1 C116.11 1 105.22 1 94 1 C94 2.65 94 4.3 94 6 C96.64 6 99.28 6 102 6 C102 6.33 102 6.66 102 7 C99.03 7 96.06 7 93 7 C92.01 5.02 92.01 5.02 91 3 C91.33 2.01 91.66 1.02 92 0 C103.88 0 115.76 0 128 0 C128 16.5 128 33 128 50 C85.76 50 43.52 50 0 50 C0 33.5 0 17 0 0 Z " fill="#B87F7F" transform="translate(0,0)"/>
<path d="M0 0 C0.99 0 1.98 0 3 0 C3.33 5.61 3.66 11.22 4 17 C4.99 16.67 5.98 16.34 7 16 C7.22429688 16.63421875 7.44859375 17.2684375 7.6796875 17.921875 C8.83785757 20.22016157 8.83785757 20.22016157 11.3828125 20.828125 C12.28773437 20.96734375 13.19265625 21.1065625 14.125 21.25 C15.03507812 21.39953125 15.94515625 21.5490625 16.8828125 21.703125 C17.58148438 21.80109375 18.28015625 21.8990625 19 22 C17 25 17 25 14.3046875 25.71484375 C10.81719676 26.0157738 7.60891413 25.8824513 4.125 25.5625 C2.97257812 25.46066406 1.82015625 25.35882813 0.6328125 25.25390625 C-0.23601563 25.17011719 -1.10484375 25.08632813 -2 25 C-1.67 24.01 -1.34 23.02 -1 22 C-1.763125 22.061875 -2.52625 22.12375 -3.3125 22.1875 C-6 22 -6 22 -7.8125 20.6875 C-9 19 -9 19 -9 16 C-8.01 16 -7.02 16 -6 16 C-6 16.99 -6 17.98 -6 19 C-4.35 18.67 -2.7 18.34 -1 18 C-0.505 9.09 -0.505 9.09 0 0 Z " fill="#AB6161" transform="translate(16,22)"/>
<path d="M0 0 C21.45 0 42.9 0 65 0 C64.67 0.99 64.34 1.98 64 3 C63.505 2.01 63.505 2.01 63 1 C35.775 1.495 35.775 1.495 8 2 C8.66 3.98 9.32 5.96 10 8 C9.125 10.375 9.125 10.375 8 12 C8.33 12.33 8.66 12.66 9 13 C9.33 13.99 9.66 14.98 10 16 C8.02 16.99 8.02 16.99 6 18 C6 17.01 6 16.02 6 15 C5.979375 14.175 5.95875 13.35 5.9375 12.5 C6 10 6 10 7 7 C3.71303767 6.20046862 2.28976808 5.90341064 -1 7 C-0.67 4.69 -0.34 2.38 0 0 Z " fill="#C4908F" transform="translate(26,0)"/>
<path d="M0 0 C0.33 0 0.66 0 1 0 C1 14.19 1 28.38 1 43 C1.99 43 2.98 43 4 43 C4 29.8 4 16.6 4 3 C4.66 2.67 5.32 2.34 6 2 C6 16.19 6 30.38 6 45 C4.02 45 2.04 45 0 45 C0 30.15 0 15.3 0 0 Z " fill="#363636" transform="translate(46,69)"/>
<path d="M0 0 C12.21 0 24.42 0 37 0 C33.36743982 2.42170679 31.47421305 2.3044503 27.14453125 2.4140625 C26.15207649 2.44311172 26.15207649 2.44311172 25.13957214 2.4727478 C23.03067836 2.53242687 20.92172963 2.57888087 18.8125 2.625 C17.38083585 2.66319066 15.94919441 2.70224303 14.51757812 2.7421875 C11.01192688 2.83811773 7.50610555 2.92219197 4 3 C3.67 3.66 3.34 4.32 3 5 C15.87 5.495 15.87 5.495 29 6 C29.33 7.32 29.66 8.64 30 10 C28.68 10.99 27.36 11.98 26 13 C26.66 11.02 27.32 9.04 28 7 C18.76 7 9.52 7 0 7 C0 4.69 0 2.38 0 0 Z " fill="#5F5F5F" transform="translate(60,60)"/>
<path d="M0 0 C0.99 0 1.98 0 3 0 C3.13559675 2.56428515 3.23433188 5.12135216 3.3125 7.6875 C3.35439453 8.40873047 3.39628906 9.12996094 3.43945312 9.87304688 C3.53454982 14.03828211 3.34072603 15.55728795 0.703125 18.984375 C-2 21 -2 21 -5.5625 21.5625 C-9.64193188 20.8949566 -10.59629973 20.31095374 -13 17 C-13.2906124 14.10550051 -13.38186045 11.62050065 -13.25 8.75 C-13.23195313 8.00492188 -13.21390625 7.25984375 -13.1953125 6.4921875 C-13.14835649 4.66090299 -13.07661652 2.83028351 -13 1 C-12.34 1 -11.68 1 -11 1 C-10.95101563 2.05960938 -10.90203125 3.11921875 -10.8515625 4.2109375 C-10.77653291 5.59898497 -10.70098515 6.98700451 -10.625 8.375 C-10.57859375 9.42300781 -10.57859375 9.42300781 -10.53125 10.4921875 C-10.40500502 14.70185827 -10.40500502 14.70185827 -8 18 C-4.95817107 18.25005386 -4.95817107 18.25005386 -2 18 C0.11925604 15.88074396 -0.58168983 11.3803907 -0.4375 8.4375 C-0.39431641 7.63119141 -0.35113281 6.82488281 -0.30664062 5.99414062 C-0.20024738 3.99631195 -0.09959112 1.9981793 0 0 Z " fill="#D5CCCC" transform="translate(36,22)"/>
<path d="M0 0 C0 14.85 0 29.7 0 45 C-0.66 45 -1.32 45 -2 45 C-2.33 31.47 -2.66 17.94 -3 4 C-4.32 4.99 -5.64 5.98 -7 7 C-7.66 6.67 -8.32 6.34 -9 6 C-3.30769231 0 -3.30769231 0 0 0 Z " fill="#E3E3E3" transform="translate(44,70)"/>
<path d="M0 0 C11.88 0 23.76 0 36 0 C36 16.5 36 33 36 50 C35.67 50 35.34 50 35 50 C35 33.83 35 17.66 35 1 C24.11 1 13.22 1 2 1 C2 2.65 2 4.3 2 6 C4.64 6 7.28 6 10 6 C10 6.33 10 6.66 10 7 C7.03 7 4.06 7 1 7 C0.34 5.68 -0.32 4.36 -1 3 C-0.67 2.01 -0.34 1.02 0 0 Z " fill="#CFA6A6" transform="translate(92,0)"/>
<path d="M0 0 C1.43655854 -0.08131463 2.8744483 -0.13933559 4.3125 -0.1875 C5.51326172 -0.23970703 5.51326172 -0.23970703 6.73828125 -0.29296875 C9 0 9 0 10.80078125 1.3203125 C12 3 12 3 11.875 6.0625 C11 9 11 9 8 11 C4.9375 10.8125 4.9375 10.8125 2 10 C1.34 9.01 0.68 8.02 0 7 C0.4375 4.875 0.4375 4.875 1 3 C0.67 2.67 0.34 2.34 0 2 C0 1.34 0 0.68 0 0 Z " fill="#190606" transform="translate(93,7)"/>
<path d="M0 0 C0.33 1.32 0.66 2.64 1 4 C-10.385 3.505 -10.385 3.505 -22 3 C-22 17.52 -22 32.04 -22 47 C-22.33 47 -22.66 47 -23 47 C-23.33 31.82 -23.66 16.64 -24 1 C-16.08 0.67 -8.16 0.34 0 0 Z " fill="#B76868" transform="translate(25,0)"/>
<path d="M0 0 C0.99 0 1.98 0 3 0 C3 5.94 3 11.88 3 18 C6.3 18 9.6 18 13 18 C13 18.99 13 19.98 13 21 C8.71 21 4.42 21 0 21 C0 14.07 0 7.14 0 0 Z " fill="#D3C5C5" transform="translate(43,22)"/>
<path d="M0 0 C1 3 1 3 -0.26342773 6.09448242 C-0.89324258 7.35332029 -1.53405739 8.60669253 -2.18359375 9.85546875 C-2.51794937 10.51710526 -2.85230499 11.17874176 -3.1967926 11.86042786 C-4.26774356 13.97432301 -5.35238501 16.0808463 -6.4375 18.1875 C-7.16562563 19.61867696 -7.89285072 21.05031246 -8.61914062 22.48242188 C-10.40235101 25.99368912 -12.19787206 29.49840697 -14 33 C-16.64 33 -19.28 33 -22 33 C-21.67 32.01 -21.34 31.02 -21 30 C-20.10410156 30.020625 -19.20820312 30.04125 -18.28515625 30.0625 C-15.00213607 29.35506818 -15.00213607 29.35506818 -13.74169922 27.28125 C-12.53365886 24.88938273 -11.46628007 22.47428119 -10.4375 20 C-9.71017221 18.33196024 -8.97970549 16.66528562 -8.24609375 15 C-7.88628418 14.17628906 -7.52647461 13.35257813 -7.15576172 12.50390625 C-2.57080768 2.57080768 -2.57080768 2.57080768 0 0 Z " fill="#323232" transform="translate(88,81)"/>
<path d="M0 0 C0.99 0 1.98 0 3 0 C3.08086376 2.93804996 3.1404283 5.87388075 3.1875 8.8125 C3.21263672 9.64587891 3.23777344 10.47925781 3.26367188 11.33789062 C3.27817383 12.54155273 3.27817383 12.54155273 3.29296875 13.76953125 C3.31653442 14.87711792 3.31653442 14.87711792 3.34057617 16.00708008 C2.89811063 18.59621715 2.09783412 19.45509737 0 21 C-3.5625 21.3125 -3.5625 21.3125 -7 21 C-7.66 20.34 -8.32 19.68 -9 19 C-9 18.01 -9 17.02 -9 16 C-8.01 16 -7.02 16 -6 16 C-6 16.99 -6 17.98 -6 19 C-4.35 18.67 -2.7 18.34 -1 18 C-0.505 9.09 -0.505 9.09 0 0 Z " fill="#D5CCCC" transform="translate(16,22)"/>
<path d="M0 0 C0.66 0.99 1.32 1.98 2 3 C2.99 3.33 3.98 3.66 5 4 C5.33 4.99 5.66 5.98 6 7 C5.34 7 4.68 7 4 7 C4.66 8.98 5.32 10.96 6 13 C4 15 4 15 0.875 15.125 C-0.548125 15.063125 -0.548125 15.063125 -2 15 C-2 12.97905928 -1.9787351 10.95802 -1.9375 8.9375 C-1.78892965 6.06540208 -1.78892965 6.06540208 -3 4 C-2.34 3.67 -1.68 3.34 -1 3 C-0.67 2.01 -0.34 1.02 0 0 Z " fill="#0C0808" transform="translate(28,3)"/>
<path d="M0 0 C0.33 0 0.66 0 1 0 C1 14.19 1 28.38 1 43 C1.99 43 2.98 43 4 43 C4.33 40.03 4.66 37.06 5 34 C5.33 34 5.66 34 6 34 C6 37.63 6 41.26 6 45 C4.02 45 2.04 45 0 45 C0 30.15 0 15.3 0 0 Z " fill="#2E2E2E" transform="translate(46,69)"/>
<path d="M0 0 C0.66 0 1.32 0 2 0 C2.04898437 1.05960938 2.09796875 2.11921875 2.1484375 3.2109375 C2.22346709 4.59898497 2.29901485 5.98700451 2.375 7.375 C2.42140625 8.42300781 2.42140625 8.42300781 2.46875 9.4921875 C2.59499498 13.70185827 2.59499498 13.70185827 5 17 C6.98356483 17.71408334 8.98315437 18.38617742 11 19 C11 19.33 11 19.66 11 20 C4.71510791 20.48345324 4.71510791 20.48345324 1.78125 18.5 C-0.70381201 15.01219368 -0.43867424 11.85729312 -0.25 7.75 C-0.23195313 7.00492188 -0.21390625 6.25984375 -0.1953125 5.4921875 C-0.14835649 3.66090299 -0.07661652 1.83028351 0 0 Z " fill="#DBDADA" transform="translate(23,23)"/>
<path d="M0 0 C1.43655854 -0.08131463 2.8744483 -0.13933559 4.3125 -0.1875 C5.51326172 -0.23970703 5.51326172 -0.23970703 6.73828125 -0.29296875 C9 0 9 0 10.80078125 1.3203125 C12 3 12 3 11.875 6.0625 C11 9 11 9 8 11 C6.68 11 5.36 11 4 11 C4 10.34 4 9.68 4 9 C5.32 9 6.64 9 8 9 C8.33 6.69 8.66 4.38 9 2 C6.03 2 3.06 2 0 2 C0 1.34 0 0.68 0 0 Z " fill="#402626" transform="translate(93,7)"/>
<path d="M0 0 C2.475 0.495 2.475 0.495 5 1 C4.67 3.31 4.34 5.62 4 8 C2.68 8 1.36 8 0 8 C0 5.36 0 2.72 0 0 Z " fill="#B47878" transform="translate(86,35)"/>
<path d="M0 0 C2.475 0.495 2.475 0.495 5 1 C4.67 2.98 4.34 4.96 4 7 C2.68 7.33 1.36 7.66 0 8 C0 5.36 0 2.72 0 0 Z " fill="#B37575" transform="translate(94,35)"/>
<path d="M0 0 C1.32 0 2.64 0 4 0 C4 2.64 4 5.28 4 8 C2.68 8 1.36 8 0 8 C0 5.36 0 2.72 0 0 Z " fill="#B47979" transform="translate(78,35)"/>
<path d="M0 0 C0.99 0.33 1.98 0.66 3 1 C2.67 3.31 2.34 5.62 2 8 C1.34 7.01 0.68 6.02 0 5 C0.33 6.65 0.66 8.3 1 10 C-0.32 9.34 -1.64 8.68 -3 8 C-3.1875 5.125 -3.1875 5.125 -3 2 C-2.01 1.34 -1.02 0.68 0 0 Z " fill="#CAAEA4" transform="translate(24,7)"/>
<path d="M0 0 C1.65 0 3.3 0 5 0 C5.33 2.31 5.66 4.62 6 7 C5.401875 6.814375 4.80375 6.62875 4.1875 6.4375 C1.83591238 5.77906313 1.83591238 5.77906313 -1 7 C-0.67 4.69 -0.34 2.38 0 0 Z " fill="#CAAFA7" transform="translate(26,0)"/>
<path d="M0 0 C1 3 1 3 0.00390625 5.48046875 C-0.47175781 6.37378906 -0.94742188 7.26710938 -1.4375 8.1875 C-1.91058594 9.08855469 -2.38367188 9.98960938 -2.87109375 10.91796875 C-3.24363281 11.60503906 -3.61617188 12.29210937 -4 13 C-4.66 12.01 -5.32 11.02 -6 10 C-5.18957164 8.51969728 -4.37659652 7.04078858 -3.5625 5.5625 C-2.88380859 4.32693359 -2.88380859 4.32693359 -2.19140625 3.06640625 C-1 1 -1 1 0 0 Z " fill="#3B3B3B" transform="translate(88,81)"/>
<path d="M0 0 C0.99 0 1.98 0 3 0 C3 2.31 3 4.62 3 7 C1.68 7 0.36 7 -1 7 C-0.67 4.69 -0.34 2.38 0 0 Z " fill="#B57C7C" transform="translate(118,27)"/>
<path d="M0 0 C1.32 0.33 2.64 0.66 4 1 C3.67 2.98 3.34 4.96 3 7 C2.01 7 1.02 7 0 7 C0 4.69 0 2.38 0 0 Z " fill="#B47878" transform="translate(94,26)"/>
<path d="M0 0 C0.99 0 1.98 0 3 0 C2.67 2.31 2.34 4.62 2 7 C0.68 6.67 -0.64 6.34 -2 6 C-1.34 4.02 -0.68 2.04 0 0 Z " fill="#B57B7B" transform="translate(88,27)"/>
<path d="M0 0 C0.66 0 1.32 0 2 0 C2 1.98 2 3.96 2 6 C4.64 6 7.28 6 10 6 C10 6.33 10 6.66 10 7 C7.03 7 4.06 7 1 7 C0.34 5.68 -0.32 4.36 -1 3 C-0.67 2.01 -0.34 1.02 0 0 Z " fill="#E3CBC5" transform="translate(92,0)"/>
<path d="M0 0 C-0.33 0.99 -0.66 1.98 -1 3 C-2.98 3 -4.96 3 -7 3 C-7.33 2.34 -7.66 1.68 -8 1 C-5.29120665 -0.35439668 -2.99066732 -0.06501451 0 0 Z " fill="#B17171" transform="translate(35,38)"/>
<path d="M0 0 C1.125 1.75 1.125 1.75 2 4 C1.125 6.25 1.125 6.25 0 8 C-0.99 8 -1.98 8 -3 8 C-1.125 2.25 -1.125 2.25 0 0 Z " fill="#565656" transform="translate(83,77)"/>
<path d="M0 0 C0.33 0 0.66 0 1 0 C1.34833144 4.87664009 0.41685712 7.77050005 -2 12 C-3.15957207 8.52128379 -2.77456651 7.65780355 -1.5625 4.3125 C-1.13130859 3.10013672 -1.13130859 3.10013672 -0.69140625 1.86328125 C-0.46324219 1.24839844 -0.23507813 0.63351563 0 0 Z " fill="#4E4E4E" transform="translate(96,62)"/>
<path d="M0 0 C0.68707555 2.49064888 1 4.37886292 1 7 C-1.475 6.01 -1.475 6.01 -4 5 C-4 4.34 -4 3.68 -4 3 C-3.01 2.67 -2.02 2.34 -1 2 C-0.67 1.34 -0.34 0.68 0 0 Z " fill="#695552" transform="translate(91,0)"/>
</svg>
