<?xml version="1.0" encoding="UTF-8"?>
<svg version="1.1" xmlns="http://www.w3.org/2000/svg" width="128" height="128">
<path d="M0 0 C1.010625 0.391875 2.02125 0.78375 3.0625 1.1875 C4.0215625 1.5896875 4.0215625 1.5896875 5 2 C5 2.66 5 3.32 5 4 C5.598125 4.28875 6.19625 4.5775 6.8125 4.875 C9 6 9 6 12 8 C12.99 8.33 13.98 8.66 15 9 C16.1875 12.0625 16.1875 12.0625 17 15 C17.66 15 18.32 15 19 15 C19.05607422 15.90492187 19.05607422 15.90492187 19.11328125 16.828125 C19.53550307 23.01677652 19.53550307 23.01677652 23 28 C23.33 28 23.66 28 24 28 C24.05398987 30.27057377 24.09278742 32.54151288 24.125 34.8125 C24.14820312 36.07707031 24.17140625 37.34164062 24.1953125 38.64453125 C24 42 24 42 22 45 C21.67 44.67 21.34 44.34 21 44 C20.81824219 45.04800781 20.81824219 45.04800781 20.6328125 46.1171875 C20.46523437 47.02726562 20.29765625 47.93734375 20.125 48.875 C19.96257812 49.77992187 19.80015625 50.68484375 19.6328125 51.6171875 C19 54 19 54 17 56 C17 55.34 17 54.68 17 54 C16.34 54 15.68 54 15 54 C15.309375 54.86625 15.309375 54.86625 15.625 55.75 C16.09239476 58.55436855 15.53712084 59.65386819 14 62 C13.01 62.495 13.01 62.495 12 63 C10.86649466 65.01669827 10.86649466 65.01669827 10 67 C9.34 67 8.68 67 8 67 C7.34 70.63 6.68 74.26 6 78 C5.67 78 5.34 78 5 78 C5 76.35 5 74.7 5 73 C3.99277952 76.02166144 3.92658323 77.97725591 4 81.125 C4.03767103 82.74956329 4.04657584 84.37566762 4 86 C3.67 86.33 3.34 86.66 3 87 C1.97756206 92.57902606 1.97756206 92.57902606 3 98 C3.068991 100.06145107 3.08467727 102.12501401 3.0625 104.1875 C3.05347656 105.27417969 3.04445312 106.36085938 3.03515625 107.48046875 C3.02355469 108.31191406 3.01195312 109.14335938 3 110 C1.68 110 0.36 110 -1 110 C-1.28875 110.639375 -1.5775 111.27875 -1.875 111.9375 C-3 114 -3 114 -5 115 C-4.01 115.99 -4.01 115.99 -3 117 C-3.66 117 -4.32 117 -5 117 C-5 117.66 -5 118.32 -5 119 C-6.32 118.67 -7.64 118.34 -9 118 C-8.67 119.32 -8.34 120.64 -8 122 C-12.95 122 -17.9 122 -23 122 C-23 120.68 -23 119.36 -23 118 C-24.485 118.495 -24.485 118.495 -26 119 C-28 116 -28 116 -28 114 C-29.32 113.67 -30.64 113.34 -32 113 C-32.12375 112.319375 -32.2475 111.63875 -32.375 110.9375 C-32.97884964 107.86828895 -32.97884964 107.86828895 -34.125 104.4375 C-34.95947838 101.15919207 -35.0204466 100.0613398 -34 97 C-34.495 96.01 -34.495 96.01 -35 95 C-35.90690485 88.75243325 -36.06495429 82.71523718 -35.9375 76.40625 C-35.72244515 74.04805213 -35.72244515 74.04805213 -37 73 C-37 74.65 -37 76.3 -37 78 C-37.33 78 -37.66 78 -38 78 C-38.66 74.37 -39.32 70.74 -40 67 C-40.99 66.67 -41.98 66.34 -43 66 C-43.33 65.01 -43.66 64.02 -44 63 C-44.495 62.525625 -44.99 62.05125 -45.5 61.5625 C-47.26696767 59.72190868 -47.67618716 58.50954948 -48 56 C-47.67 55.34 -47.34 54.68 -47 54 C-47.66 54 -48.32 54 -49 54 C-49.33 54.66 -49.66 55.32 -50 56 C-51.80317221 52.03302114 -52.49202991 48.3177458 -53 44 C-53.99 44.495 -53.99 44.495 -55 45 C-56.18681726 41.43954823 -56.09689832 38.56191663 -56.0625 34.8125 C-56.05347656 33.54019531 -56.04445313 32.26789062 -56.03515625 30.95703125 C-56.02355469 29.98121094 -56.01195313 29.00539062 -56 28 C-55.34 28 -54.68 28 -54 28 C-52.32889958 25.03821227 -51.67317248 22.62928808 -51.375 19.25 C-51.26285156 18.05117188 -51.26285156 18.05117188 -51.1484375 16.828125 C-51.09945312 16.22484375 -51.05046875 15.6215625 -51 15 C-50.01 14.67 -49.02 14.34 -48 14 C-47.9071875 12.824375 -47.9071875 12.824375 -47.8125 11.625 C-47.544375 10.75875 -47.27625 9.8925 -47 9 C-44.625 7.875 -44.625 7.875 -42 7 C-40.98131338 6.01904252 -39.97648017 5.02297922 -39 4 C-38.34 4 -37.68 4 -37 4 C-37 3.34 -37 2.68 -37 2 C-35.60721983 1.34760842 -34.21060788 0.70339448 -32.8125 0.0625 C-32.03519531 -0.29714844 -31.25789063 -0.65679687 -30.45703125 -1.02734375 C-20.82109084 -4.84188932 -9.38508331 -4.07614847 0 0 Z M-51 18 C-50 20 -50 20 -50 20 Z M18 18 C19 20 19 20 19 20 Z M-46 58 C-45.67 58.99 -45.34 59.98 -45 61 C-44.34 60.67 -43.68 60.34 -43 60 C-43.99 59.34 -44.98 58.68 -46 58 Z M13 58 C12.01 59.485 12.01 59.485 11 61 C11.99 60.67 12.98 60.34 14 60 C13.67 59.34 13.34 58.68 13 58 Z M-42 63 C-41 65 -41 65 -41 65 Z M9 63 C10 65 10 65 10 65 Z M-38 70 C-37 72 -37 72 -37 72 Z M5 70 C6 72 6 72 6 72 Z M-35 79 C-35 80.98 -35 82.96 -35 85 C-34.67 85 -34.34 85 -34 85 C-34 83.02 -34 81.04 -34 79 C-34.33 79 -34.66 79 -35 79 Z M2 79 C2 80.98 2 82.96 2 85 C2.33 85 2.66 85 3 85 C3 83.02 3 81.04 3 79 C2.67 79 2.34 79 2 79 Z M-34 86 C-34 88.97 -34 91.94 -34 95 C-33.67 95 -33.34 95 -33 95 C-33 92.03 -33 89.06 -33 86 C-33.33 86 -33.66 86 -34 86 Z M0 96 C-0.33 96.66 -0.66 97.32 -1 98 C-0.34 98 0.32 98 1 98 C0.67 97.34 0.34 96.68 0 96 Z M1 99 C2 102 2 102 2 102 Z M1 103 C2 106 2 106 2 106 Z " fill="#FBF4DA" transform="translate(80,5)"/>
<path d="M0 0 C1.010625 0.391875 2.02125 0.78375 3.0625 1.1875 C4.0215625 1.5896875 4.0215625 1.5896875 5 2 C5 2.66 5 3.32 5 4 C5.598125 4.28875 6.19625 4.5775 6.8125 4.875 C9 6 9 6 12 8 C12.99 8.33 13.98 8.66 15 9 C16.1875 12.0625 16.1875 12.0625 17 15 C17.66 15 18.32 15 19 15 C19.05607422 15.90492187 19.05607422 15.90492187 19.11328125 16.828125 C19.53550307 23.01677652 19.53550307 23.01677652 23 28 C23.33 28 23.66 28 24 28 C24.05398987 30.27057377 24.09278742 32.54151288 24.125 34.8125 C24.14820312 36.07707031 24.17140625 37.34164062 24.1953125 38.64453125 C24 42 24 42 22 45 C21.67 44.67 21.34 44.34 21 44 C20.81824219 45.04800781 20.81824219 45.04800781 20.6328125 46.1171875 C20.46523437 47.02726562 20.29765625 47.93734375 20.125 48.875 C19.96257812 49.77992187 19.80015625 50.68484375 19.6328125 51.6171875 C19 54 19 54 17 56 C17 55.34 17 54.68 17 54 C16.34 54 15.68 54 15 54 C15.309375 54.86625 15.309375 54.86625 15.625 55.75 C16.09239476 58.55436855 15.53712084 59.65386819 14 62 C13.01 62.495 13.01 62.495 12 63 C10.86649466 65.01669827 10.86649466 65.01669827 10 67 C9.34 67 8.68 67 8 67 C7.34 70.63 6.68 74.26 6 78 C5.67 78 5.34 78 5 78 C5 76.35 5 74.7 5 73 C3.99277952 76.02166144 3.92658323 77.97725591 4 81.125 C4.03767103 82.74956329 4.04657584 84.37566762 4 86 C3.67 86.33 3.34 86.66 3 87 C1.97756206 92.57902606 1.97756206 92.57902606 3 98 C3.068991 100.06145107 3.08467727 102.12501401 3.0625 104.1875 C3.05347656 105.27417969 3.04445312 106.36085938 3.03515625 107.48046875 C3.02355469 108.31191406 3.01195312 109.14335938 3 110 C1.68 110 0.36 110 -1 110 C-1.28875 110.639375 -1.5775 111.27875 -1.875 111.9375 C-3 114 -3 114 -5 115 C-4.01 115.99 -4.01 115.99 -3 117 C-3.66 117 -4.32 117 -5 117 C-5 117.66 -5 118.32 -5 119 C-6.32 118.67 -7.64 118.34 -9 118 C-8.67 119.32 -8.34 120.64 -8 122 C-12.95 122 -17.9 122 -23 122 C-23 120.68 -23 119.36 -23 118 C-24.485 118.495 -24.485 118.495 -26 119 C-28 116 -28 116 -28 114 C-29.32 113.67 -30.64 113.34 -32 113 C-32.12375 112.319375 -32.2475 111.63875 -32.375 110.9375 C-32.97884964 107.86828895 -32.97884964 107.86828895 -34.125 104.4375 C-34.95947838 101.15919207 -35.0204466 100.0613398 -34 97 C-34.495 96.01 -34.495 96.01 -35 95 C-35.90690485 88.75243325 -36.06495429 82.71523718 -35.9375 76.40625 C-35.72244515 74.04805213 -35.72244515 74.04805213 -37 73 C-37 74.65 -37 76.3 -37 78 C-37.33 78 -37.66 78 -38 78 C-38.66 74.37 -39.32 70.74 -40 67 C-40.99 66.67 -41.98 66.34 -43 66 C-43.33 65.01 -43.66 64.02 -44 63 C-44.495 62.525625 -44.99 62.05125 -45.5 61.5625 C-47.26696767 59.72190868 -47.67618716 58.50954948 -48 56 C-47.67 55.34 -47.34 54.68 -47 54 C-47.66 54 -48.32 54 -49 54 C-49.33 54.66 -49.66 55.32 -50 56 C-51.80317221 52.03302114 -52.49202991 48.3177458 -53 44 C-53.99 44.495 -53.99 44.495 -55 45 C-56.18681726 41.43954823 -56.09689832 38.56191663 -56.0625 34.8125 C-56.05347656 33.54019531 -56.04445313 32.26789062 -56.03515625 30.95703125 C-56.02355469 29.98121094 -56.01195313 29.00539062 -56 28 C-55.34 28 -54.68 28 -54 28 C-52.32889958 25.03821227 -51.67317248 22.62928808 -51.375 19.25 C-51.26285156 18.05117188 -51.26285156 18.05117188 -51.1484375 16.828125 C-51.09945312 16.22484375 -51.05046875 15.6215625 -51 15 C-50.01 14.67 -49.02 14.34 -48 14 C-47.9071875 12.824375 -47.9071875 12.824375 -47.8125 11.625 C-47.544375 10.75875 -47.27625 9.8925 -47 9 C-44.625 7.875 -44.625 7.875 -42 7 C-40.98131338 6.01904252 -39.97648017 5.02297922 -39 4 C-38.34 4 -37.68 4 -37 4 C-37 3.34 -37 2.68 -37 2 C-35.60721983 1.34760842 -34.21060788 0.70339448 -32.8125 0.0625 C-32.03519531 -0.29714844 -31.25789063 -0.65679687 -30.45703125 -1.02734375 C-20.82109084 -4.84188932 -9.38508331 -4.07614847 0 0 Z M-39.8125 16.8125 C-40.96685547 18.05966797 -40.96685547 18.05966797 -42.14453125 19.33203125 C-46.19435243 25.15524781 -45.48824225 33.15619051 -45 40 C-43.39520451 48.22197168 -41.32375191 54.30862328 -35 60 C-34.34 60 -33.68 60 -33 60 C-32.95101562 60.88300781 -32.90203125 61.76601562 -32.8515625 62.67578125 C-32.77679688 63.87589844 -32.70203125 65.07601562 -32.625 66.3125 C-32.55539063 67.48425781 -32.48578125 68.65601563 -32.4140625 69.86328125 C-32.00036825 74.96941308 -30.97715025 79.97703433 -30 85 C-25.54178834 85.08674429 -21.08379196 85.14030513 -16.625 85.1875 C-14.71847656 85.22520508 -14.71847656 85.22520508 -12.7734375 85.26367188 C-11.56171875 85.27333984 -10.35 85.28300781 -9.1015625 85.29296875 C-7.98088379 85.3086792 -6.86020508 85.32438965 -5.70556641 85.34057617 C-4.81272949 85.22818604 -3.91989258 85.1157959 -3 85 C-2.01 83.515 -2.01 83.515 -1 82 C-1.185625 81.113125 -1.37125 80.22625 -1.5625 79.3125 C-2.08059247 75.3897999 -1.22705941 73.43567062 0.40625 69.9296875 C1.20119029 67.98793348 1.20119029 67.98793348 0.38671875 65.99609375 C0.25910156 65.33738281 0.13148437 64.67867187 0 64 C1.36328125 62.10546875 1.36328125 62.10546875 3.3125 60.1875 C6.66489699 56.61560083 7.97281455 53.85578578 9 49 C9.33128906 48.36320312 9.66257813 47.72640625 10.00390625 47.0703125 C13.45302547 39.90155491 12.76584948 28.69496384 12 21 C9.80225671 15.89561901 9.80225671 15.89561901 6 12 C3.27564363 10.92414941 3.27564363 10.92414941 0 10 C-0.62648437 9.73960938 -1.25296875 9.47921875 -1.8984375 9.2109375 C-14.99494268 4.00154697 -30.22654589 6.18139927 -39.8125 16.8125 Z M-51 18 C-50 20 -50 20 -50 20 Z M18 18 C19 20 19 20 19 20 Z M-46 58 C-45.67 58.99 -45.34 59.98 -45 61 C-44.34 60.67 -43.68 60.34 -43 60 C-43.99 59.34 -44.98 58.68 -46 58 Z M13 58 C12.01 59.485 12.01 59.485 11 61 C11.99 60.67 12.98 60.34 14 60 C13.67 59.34 13.34 58.68 13 58 Z M-42 63 C-41 65 -41 65 -41 65 Z M9 63 C10 65 10 65 10 65 Z M-38 70 C-37 72 -37 72 -37 72 Z M5 70 C6 72 6 72 6 72 Z M-35 79 C-35 80.98 -35 82.96 -35 85 C-34.67 85 -34.34 85 -34 85 C-34 83.02 -34 81.04 -34 79 C-34.33 79 -34.66 79 -35 79 Z M2 79 C2 80.98 2 82.96 2 85 C2.33 85 2.66 85 3 85 C3 83.02 3 81.04 3 79 C2.67 79 2.34 79 2 79 Z M-34 86 C-34 88.97 -34 91.94 -34 95 C-33.67 95 -33.34 95 -33 95 C-33 92.03 -33 89.06 -33 86 C-33.33 86 -33.66 86 -34 86 Z M0 96 C-0.33 96.66 -0.66 97.32 -1 98 C-0.34 98 0.32 98 1 98 C0.67 97.34 0.34 96.68 0 96 Z M1 99 C2 102 2 102 2 102 Z M1 103 C2 106 2 106 2 106 Z " fill="#F3D488" transform="translate(80,5)"/>
<path d="M0 0 C1.65 0.33 3.3 0.66 5 1 C5.37125 2.670625 5.37125 2.670625 5.75 4.375 C6.61005339 8.04615198 6.61005339 8.04615198 9.125 9.4375 C9.74375 9.623125 10.3625 9.80875 11 10 C11 10.66 11 11.32 11 12 C12.32 12.33 13.64 12.66 15 13 C15 13.66 15 14.32 15 15 C13.35 15.33 11.7 15.66 10 16 C12.31243792 16.02685412 14.6249627 16.04632841 16.9375 16.0625 C18.22527344 16.07410156 19.51304688 16.08570312 20.83984375 16.09765625 C23.86298403 16.36532549 23.86298403 16.36532549 25 15 C22.525 14.505 22.525 14.505 20 14 C20.33 13.34 20.66 12.68 21 12 C21.99 12 22.98 12 24 12 C23.67 11.01 23.34 10.02 23 9 C25.31 9 27.62 9 30 9 C30 6.36 30 3.72 30 1 C30.99 1 31.98 1 33 1 C33.125 8.625 33.125 8.625 32 12 C32.66 12 33.32 12 34 12 C34.33 11.01 34.66 10.02 35 9 C36.09506492 12.28519475 36.09960608 14.73663415 36.0625 18.1875 C36.05347656 19.27417969 36.04445312 20.36085938 36.03515625 21.48046875 C36.02355469 22.31191406 36.01195312 23.14335938 36 24 C34.68 24 33.36 24 32 24 C31.71125 24.639375 31.4225 25.27875 31.125 25.9375 C30 28 30 28 28 29 C28.66 29.66 29.32 30.32 30 31 C29.34 31 28.68 31 28 31 C28 31.66 28 32.32 28 33 C26.68 32.67 25.36 32.34 24 32 C24.33 33.32 24.66 34.64 25 36 C20.05 36 15.1 36 10 36 C10 34.68 10 33.36 10 32 C8.515 32.495 8.515 32.495 7 33 C5 30 5 30 5 28 C3.68 27.67 2.36 27.34 1 27 C0.814375 25.9790625 0.814375 25.9790625 0.625 24.9375 C0.02115036 21.86828895 0.02115036 21.86828895 -1.125 18.4375 C-2.02044923 14.91966373 -1.89964205 14.27088402 -1 11 C-0.78351622 9.08639029 -0.59743032 7.16916379 -0.4375 5.25 C-0.35371094 4.26515625 -0.26992188 3.2803125 -0.18359375 2.265625 C-0.12300781 1.51796875 -0.06242187 0.7703125 0 0 Z M34 13 C35 16 35 16 35 16 Z M34 17 C35 20 35 20 35 20 Z " fill="#B3AEA8" transform="translate(47,91)"/>
<path d="M0 0 C-0.33 0.66 -0.66 1.32 -1 2 C0.794375 2.804375 0.794375 2.804375 2.625 3.625 C6.96940119 5.77400984 9.75405192 8.42945711 13 12 C12.67 12.99 12.34 13.98 12 15 C11.505 13.515 11.505 13.515 11 12 C9.6078125 11.8453125 9.6078125 11.8453125 8.1875 11.6875 C5 11 5 11 3.65234375 9.5625 C-0.59941711 5.54192235 -8.74522395 4.84677699 -14.4375 4.625 C-15.96121305 4.70781049 -17.48272234 4.83743454 -19 5 C-20.53140625 5.12761719 -20.53140625 5.12761719 -22.09375 5.2578125 C-29.80337338 6.39264024 -34.15954831 9.14894891 -38.80200195 15.25537109 C-39.90729986 16.80970353 -40.95549822 18.4041777 -42 20 C-42.49628906 20.75796875 -42.99257813 21.5159375 -43.50390625 22.296875 C-46.96520329 28.7129378 -47.14071651 35.91995283 -46 43 C-44.15131875 47.6836701 -41.76182465 51.79996375 -39 56 C-38.50242187 56.76957031 -38.00484375 57.53914063 -37.4921875 58.33203125 C-35.24955988 61.7065235 -35.24955988 61.7065235 -32 64 C-31.5859375 66.06640625 -31.5859375 66.06640625 -31.375 68.5625 C-31.30023438 69.38878906 -31.22546875 70.21507813 -31.1484375 71.06640625 C-31.09945312 71.70449219 -31.05046875 72.34257813 -31 73 C-31.556875 72.175 -32.11375 71.35 -32.6875 70.5 C-34.74927133 67.7254586 -34.74927133 67.7254586 -37.75 67.6875 C-38.4925 67.790625 -39.235 67.89375 -40 68 C-40.268125 67.401875 -40.53625 66.80375 -40.8125 66.1875 C-41.87296728 63.9700287 -41.87296728 63.9700287 -43.5625 62.5 C-45.28983327 60.69756529 -45.68304524 59.45639937 -46 57 C-45.67 56.34 -45.34 55.68 -45 55 C-45.66 55 -46.32 55 -47 55 C-47.33 55.66 -47.66 56.32 -48 57 C-49.80317221 53.03302114 -50.49202991 49.3177458 -51 45 C-51.99 45.495 -51.99 45.495 -53 46 C-54.18681726 42.43954823 -54.09689832 39.56191663 -54.0625 35.8125 C-54.05347656 34.54019531 -54.04445313 33.26789062 -54.03515625 31.95703125 C-54.02355469 30.98121094 -54.01195313 30.00539062 -54 29 C-53.34 29 -52.68 29 -52 29 C-50.32889958 26.03821227 -49.67317248 23.62928808 -49.375 20.25 C-49.26285156 19.05117188 -49.26285156 19.05117188 -49.1484375 17.828125 C-49.09945312 17.22484375 -49.05046875 16.6215625 -49 16 C-48.01 15.67 -47.02 15.34 -46 15 C-45.9071875 13.824375 -45.9071875 13.824375 -45.8125 12.625 C-45.544375 11.75875 -45.27625 10.8925 -45 10 C-42.625 8.875 -42.625 8.875 -40 8 C-38.98131338 7.01904252 -37.97648017 6.02297922 -37 5 C-36.34 5 -35.68 5 -35 5 C-35 4.34 -35 3.68 -35 3 C-33.60721983 2.34760842 -32.21060788 1.70339448 -30.8125 1.0625 C-30.03519531 0.70285156 -29.25789063 0.34320313 -28.45703125 -0.02734375 C-19.78890388 -3.4587646 -8.67428479 -3.30448944 0 0 Z M-49 19 C-48 21 -48 21 -48 21 Z M-44 59 C-43.67 59.99 -43.34 60.98 -43 62 C-42.34 61.67 -41.68 61.34 -41 61 C-41.99 60.34 -42.98 59.68 -44 59 Z M-40 64 C-39 66 -39 66 -39 66 Z " fill="#F8DE89" transform="translate(78,4)"/>
<path d="M0 0 C7.2439592 -0.39369343 15.55693392 1.23326845 21.59375 5.2578125 C21.59375 5.9178125 21.59375 6.5778125 21.59375 7.2578125 C22.955 7.28875 22.955 7.28875 24.34375 7.3203125 C27.59375 8.2578125 27.59375 8.2578125 29.78125 11.0703125 C34.36866982 20.49467706 36.79574662 32.56266302 33.8671875 42.796875 C32.91108106 45.05888291 31.8250533 47.13431894 30.59375 49.2578125 C30.23152344 49.95648438 29.86929688 50.65515625 29.49609375 51.375 C26.51336476 56.73380124 22.68738921 59.92103644 17.59375 63.2578125 C18.96934846 60.27402646 20.59791321 57.87426846 22.65625 55.3203125 C24.99667572 52.2658586 26.1624241 50.13974556 26.59375 46.2578125 C27.07714844 45.33355469 27.07714844 45.33355469 27.5703125 44.390625 C31.02992372 37.18090086 30.36407884 25.99778325 29.59375 18.2578125 C28.22263593 15.00719375 27.08579243 12.74985493 24.59375 10.2578125 C22.61390519 9.53347903 20.60791562 8.88037278 18.59375 8.2578125 C17.96597656 7.99613281 17.33820313 7.73445312 16.69140625 7.46484375 C7.98157119 4.0101047 -1.66092774 3.93334957 -10.40625 7.2578125 C-11.829375 7.78375 -11.829375 7.78375 -13.28125 8.3203125 C-18.51738736 11.56671766 -23.31181238 16.1797067 -25.40625 22.0703125 C-25.40625 23.1221875 -25.40625 24.1740625 -25.40625 25.2578125 C-25.45265625 26.13179687 -25.4990625 27.00578125 -25.546875 27.90625 C-25.80969226 35.20881542 -24.60511102 41.33083063 -22.40625 48.2578125 C-22.25027344 48.99902344 -22.09429687 49.74023438 -21.93359375 50.50390625 C-21.75957031 51.08269531 -21.58554687 51.66148438 -21.40625 52.2578125 C-20.08977881 52.95718782 -18.75602849 53.62510383 -17.40625 54.2578125 C-17.07625 55.2478125 -16.74625 56.2378125 -16.40625 57.2578125 C-15.74625 57.2578125 -15.08625 57.2578125 -14.40625 57.2578125 C-13.42376476 61.3105641 -13.32465426 65.09642987 -13.40625 69.2578125 C-13.73625 69.2578125 -14.06625 69.2578125 -14.40625 69.2578125 C-14.73625 66.2878125 -15.06625 63.3178125 -15.40625 60.2578125 C-16.39625 59.9278125 -17.38625 59.5978125 -18.40625 59.2578125 C-25.47421314 52.03146363 -30.70902126 42.24568218 -31.09375 32.1328125 C-30.74811742 25.42606968 -29.1825992 20.76854832 -25.40625 15.2578125 C-24.71273437 14.20980469 -24.01921875 13.16179688 -23.3046875 12.08203125 C-19.33618416 6.50669511 -15.7484058 2.71176849 -8.84375 1.0078125 C-5.89595357 0.57390789 -2.96038183 0.31718377 0 0 Z " fill="#F8E7A9" transform="translate(61.40625,7.7421875)"/>
<path d="M0 0 C2.97 0.495 2.97 0.495 6 1 C4.68 1.33 3.36 1.66 2 2 C2.185625 2.61875 2.37125 3.2375 2.5625 3.875 C3 6 3 6 2 8 C6.29 8 10.58 8 15 8 C15 8.33 15 8.66 15 9 C12.69 9 10.38 9 8 9 C8 9.66 8 10.32 8 11 C14.6 11 21.2 11 28 11 C27.67 12.32 27.34 13.64 27 15 C26.01 15.495 26.01 15.495 25 16 C25.66 16.66 26.32 17.32 27 18 C26.34 18 25.68 18 25 18 C25 18.66 25 19.32 25 20 C23.68 19.67 22.36 19.34 21 19 C21.33 20.32 21.66 21.64 22 23 C17.05 23 12.1 23 7 23 C7 21.68 7 20.36 7 19 C6.01 19.33 5.02 19.66 4 20 C2 17 2 17 2 15 C0.68 14.67 -0.64 14.34 -2 14 C-2.185625 12.9790625 -2.185625 12.9790625 -2.375 11.9375 C-3.09100877 8.5722588 -4.02945125 5.29986575 -5 2 C-4.34 1.67 -3.68 1.34 -3 1 C-2.01 1.33 -1.02 1.66 0 2 C0 1.34 0 0.68 0 0 Z " fill="#97918F" transform="translate(50,104)"/>
<path d="M0 0 C1.794375 -0.00386719 1.794375 -0.00386719 3.625 -0.0078125 C6.55327693 0.10742062 9.15786976 0.44676437 12 1.125 C12 1.785 12 2.445 12 3.125 C11.410979 3.13958252 10.82195801 3.15416504 10.21508789 3.16918945 C7.49696198 3.24453764 4.77995058 3.34090384 2.0625 3.4375 C1.13630859 3.46005859 0.21011719 3.48261719 -0.74414062 3.50585938 C-9.20711679 3.83250056 -16.65630796 5.15446631 -23 11.125 C-23.5775 11.640625 -24.155 12.15625 -24.75 12.6875 C-26.24543588 14.22151001 -26.24543588 14.22151001 -27 17.125 C-27.45375 17.5375 -27.9075 17.95 -28.375 18.375 C-34.11723758 24.55894816 -33.99107564 33.12877039 -34 41.125 C-33.38900031 49.12354144 -30.41020643 56.02656597 -25.27734375 62.1953125 C-24.85582031 62.83210938 -24.43429688 63.46890625 -24 64.125 C-24.33 65.115 -24.66 66.105 -25 67.125 C-27.375 66.5 -27.375 66.5 -30 65.125 C-31.375 62.125 -31.375 62.125 -32 59.125 C-31.67 58.465 -31.34 57.805 -31 57.125 C-31.66 57.125 -32.32 57.125 -33 57.125 C-33.33 57.785 -33.66 58.445 -34 59.125 C-35.80317221 55.15802114 -36.49202991 51.4427458 -37 47.125 C-37.99 47.62 -37.99 47.62 -39 48.125 C-40.18681726 44.56454823 -40.09689832 41.68691663 -40.0625 37.9375 C-40.05347656 36.66519531 -40.04445313 35.39289062 -40.03515625 34.08203125 C-40.02355469 33.10621094 -40.01195313 32.13039062 -40 31.125 C-39.34 31.125 -38.68 31.125 -38 31.125 C-36.32889958 28.16321227 -35.67317248 25.75428808 -35.375 22.375 C-35.26285156 21.17617188 -35.26285156 21.17617188 -35.1484375 19.953125 C-35.09945312 19.34984375 -35.05046875 18.7465625 -35 18.125 C-34.01 17.795 -33.02 17.465 -32 17.125 C-31.9071875 15.949375 -31.9071875 15.949375 -31.8125 14.75 C-31.544375 13.88375 -31.27625 13.0175 -31 12.125 C-28.625 11 -28.625 11 -26 10.125 C-24.98131338 9.14404252 -23.97648017 8.14797922 -23 7.125 C-22.34 7.125 -21.68 7.125 -21 7.125 C-21 6.465 -21 5.805 -21 5.125 C-19.60721983 4.47260842 -18.21060788 3.82839448 -16.8125 3.1875 C-16.03519531 2.82785156 -15.25789063 2.46820313 -14.45703125 2.09765625 C-9.62595536 0.18519537 -5.17070012 -0.01114375 0 0 Z M-35 21.125 C-34 23.125 -34 23.125 -34 23.125 Z M-30 61.125 C-29.67 62.115 -29.34 63.105 -29 64.125 C-28.34 63.795 -27.68 63.465 -27 63.125 C-27.99 62.465 -28.98 61.805 -30 61.125 Z " fill="#EACF7B" transform="translate(64,1.875)"/>
<path d="M0 0 C6.27 0 12.54 0 19 0 C19 1.98 19 3.96 19 6 C18.01 6.66 17.02 7.32 16 8 C16 8.66 16 9.32 16 10 C15.01 10.33 14.02 10.66 13 11 C14.65 11.33 16.3 11.66 18 12 C17.01 13.485 17.01 13.485 16 15 C13.2114711 15.22107787 10.65346819 15.28107535 7.875 15.1875 C7.12089844 15.17396484 6.36679687 15.16042969 5.58984375 15.14648438 C3.72625873 15.11109985 1.86304022 15.05729167 0 15 C2 13 2 13 4.625 12.875 C5.40875 12.91625 6.1925 12.9575 7 13 C7 12.34 7 11.68 7 11 C4.69 11 2.38 11 0 11 C0.99 10.67 1.98 10.34 3 10 C3 9.34 3 8.68 3 8 C2.34 8 1.68 8 1 8 C0 6 0 6 0 0 Z " fill="#ECE5DD" transform="translate(55,93)"/>
<path d="M0 0 C1.9375 0.75 1.9375 0.75 4 2 C4.75 4.125 4.75 4.125 5 6 C5.66 6 6.32 6 7 6 C8.23324723 10.54759916 9.05466946 14.28134231 9 19 C9.93384521 19.02505615 10.86769043 19.0501123 11.82983398 19.07592773 C15.28325189 19.17086928 18.7364896 19.27011258 22.18969727 19.37231445 C23.68639269 19.41571813 25.18313939 19.45738913 26.67993164 19.49731445 C28.82714312 19.55488616 30.97409521 19.61861716 33.12109375 19.68359375 C34.4145874 19.72025146 35.70808105 19.75690918 37.04077148 19.79467773 C40 20 40 20 41 21 C41.25 24.375 41.25 24.375 41 28 C40.01 28.99 39.02 29.98 38 31 C38.33 27.7 38.66 24.4 39 21 C38.01 21 37.02 21 36 21 C36 23.64 36 26.28 36 29 C34.68 28.67 33.36 28.34 32 28 C32.33 26.02 32.66 24.04 33 22 C26.73 22 20.46 22 14 22 C14.33 24.31 14.66 26.62 15 29 C14.01 28.67 13.02 28.34 12 28 C11.67 25.69 11.34 23.38 11 21 C9.02 20.67 7.04 20.34 5 20 C5 22.97 5 25.94 5 29 C4.67 29 4.34 29 4 29 C3.16583499 22.74376243 2.93499746 16.71762584 3.0625 10.40625 C3.27755485 8.04805213 3.27755485 8.04805213 2 7 C2 8.65 2 10.3 2 12 C1.67 12 1.34 12 1 12 C0.63896464 10.18885568 0.28634496 8.37603177 -0.0625 6.5625 C-0.25972656 5.55316406 -0.45695312 4.54382813 -0.66015625 3.50390625 C-0.77230469 2.67761719 -0.88445313 1.85132812 -1 1 C-0.67 0.67 -0.34 0.34 0 0 Z M1 4 C2 6 2 6 2 6 Z M4 13 C4 14.98 4 16.96 4 19 C4.33 19 4.66 19 5 19 C5 17.02 5 15.04 5 13 C4.67 13 4.34 13 4 13 Z " fill="#DCC792" transform="translate(41,71)"/>
<path d="M0 0 C6.75 0.875 6.75 0.875 9 2 C9 2.66 9 3.32 9 4 C9.598125 4.28875 10.19625 4.5775 10.8125 4.875 C13 6 13 6 16 8 C16.99 8.33 17.98 8.66 19 9 C20.1875 12.0625 20.1875 12.0625 21 15 C21.66 15 22.32 15 23 15 C23.03738281 15.60328125 23.07476562 16.2065625 23.11328125 16.828125 C23.53550307 23.01677652 23.53550307 23.01677652 27 28 C27.33 28 27.66 28 28 28 C28.05398987 30.27057377 28.09278742 32.54151288 28.125 34.8125 C28.14820312 36.07707031 28.17140625 37.34164062 28.1953125 38.64453125 C28 42 28 42 26 45 C25.505 44.505 25.505 44.505 25 44 C24.67 45.98 24.34 47.96 24 50 C23.01 49.34 22.02 48.68 21 48 C21.16298584 47.45182617 21.32597168 46.90365234 21.49389648 46.33886719 C22.06803556 43.68558577 22.11273652 41.29257322 22.09765625 38.578125 C22.09443359 37.55332031 22.09121094 36.52851562 22.08789062 35.47265625 C22.07951172 34.40917969 22.07113281 33.34570312 22.0625 32.25 C22.05798828 31.17105469 22.05347656 30.09210937 22.04882812 28.98046875 C22.03705727 26.32025617 22.02061399 23.66015635 22 21 C21.01 20.67 20.02 20.34 19 20 C18.29788106 18.34795544 17.63028587 16.68076231 17 15 C16.34 14.67 15.68 14.34 15 14 C14.62875 13.278125 14.2575 12.55625 13.875 11.8125 C10.52333332 6.78499999 5.41500565 3.55607649 0 1 C0 0.67 0 0.34 0 0 Z M22 18 C23 20 23 20 23 20 Z " fill="#E6D07E" transform="translate(76,5)"/>
<path d="M0 0 C0.99 0.33 1.98 0.66 3 1 C3.70211894 2.65204456 4.36971413 4.31923769 5 6 C5.66 6.33 6.32 6.66 7 7 C7.74212797 10.276565 7.80462333 13.6525463 8 17 C8.08894531 18.04542969 8.17789063 19.09085938 8.26953125 20.16796875 C8.84871133 31.44177642 4.17229263 38.68878632 -2.703125 47.24609375 C-4.05999496 49.08113776 -5.03774551 50.93478399 -6 53 C-6.66 53 -7.32 53 -8 53 C-8.495 55.475 -8.495 55.475 -9 58 C-9.99 57.67 -10.98 57.34 -12 57 C-9.73784583 51.19928064 -7.56097165 47.33848523 -3 43 C3.25571258 34.40738329 4.94770535 26.56801662 4 16 C2.9937551 10.58561899 1.52081555 5.28890764 0 0 Z " fill="#F7E294" transform="translate(91,19)"/>
<path d="M0 0 C1 6.625 1 6.625 1 10 C0.34 10 -0.32 10 -1 10 C-1.33 10.66 -1.66 11.32 -2 12 C-2 11.34 -2 10.68 -2 10 C-2.57524414 10.16298584 -3.15048828 10.32597168 -3.74316406 10.49389648 C-5.95708107 10.99037528 -7.84673797 11.11479744 -10.109375 11.09765625 C-10.86347656 11.09443359 -11.61757812 11.09121094 -12.39453125 11.08789062 C-13.17183594 11.07951172 -13.94914062 11.07113281 -14.75 11.0625 C-15.54277344 11.05798828 -16.33554687 11.05347656 -17.15234375 11.04882812 C-19.10159508 11.03708565 -21.05080738 11.01915146 -23 11 C-22.67 10.01 -22.34 9.02 -22 8 C-24.97 7.505 -24.97 7.505 -28 7 C-28 6.34 -28 5.68 -28 5 C-24.04168191 4.97107143 -20.08339083 4.95322573 -16.125 4.9375 C-14.43310547 4.92493164 -14.43310547 4.92493164 -12.70703125 4.91210938 C-11.63066406 4.90888672 -10.55429688 4.90566406 -9.4453125 4.90234375 C-8.45031738 4.89710693 -7.45532227 4.89187012 -6.43017578 4.88647461 C-4 5 -4 5 -2 6 C-2 5.34 -2 4.68 -2 4 C-3.98 4 -5.96 4 -8 4 C-3.375 0 -3.375 0 0 0 Z " fill="#B5B1AB" transform="translate(80,105)"/>
<path d="M0 0 C1.20785156 -0.01417969 2.41570312 -0.02835938 3.66015625 -0.04296875 C6.74280358 0.17380859 8.41564495 0.46393 10.9375 2.1875 C11.4325 3.1775 11.4325 3.1775 11.9375 4.1875 C13.96213255 4.83963292 13.96213255 4.83963292 15.9375 5.1875 C15.9375 5.8475 15.9375 6.5075 15.9375 7.1875 C18.4125 7.6825 18.4125 7.6825 20.9375 8.1875 C20.6075 9.1775 20.2775 10.1675 19.9375 11.1875 C18.885625 10.73375 17.83375 10.28 16.75 9.8125 C13.82924547 8.55989999 10.89455332 7.35239979 7.9375 6.1875 C7.9375 5.5275 7.9375 4.8675 7.9375 4.1875 C5.35388482 4.13342433 2.77140745 4.093793 0.1875 4.0625 C-0.54210937 4.04574219 -1.27171875 4.02898438 -2.0234375 4.01171875 C-5.94262396 3.97608978 -8.69556022 4.15330721 -12.0625 6.1875 C-13.135 6.331875 -14.2075 6.47625 -15.3125 6.625 C-21.11847003 8.09853252 -24.02506274 14.46961043 -27.0625 19.1875 C-27.84765625 17.53515625 -27.84765625 17.53515625 -28.0625 15.1875 C-26.18359375 12.49609375 -26.18359375 12.49609375 -23.5 9.625 C-22.63246094 8.67496094 -21.76492187 7.72492187 -20.87109375 6.74609375 C-14.50844534 0.94980069 -8.3307826 0.04454964 0 0 Z " fill="#FAEFC7" transform="translate(64.0625,11.8125)"/>
<path d="M0 0 C2.5625718 -0.02710123 5.12485365 -0.04688771 7.6875 -0.0625 C8.40873047 -0.07087891 9.12996094 -0.07925781 9.87304688 -0.08789062 C13.71555382 -0.10543632 17.26639526 0.06475779 21 1 C20.01 1.495 20.01 1.495 19 2 C19 2.66 19 3.32 19 4 C17.68 3.67 16.36 3.34 15 3 C15.33 4.32 15.66 5.64 16 7 C11.05 7 6.1 7 1 7 C0.67 4.69 0.34 2.38 0 0 Z " fill="#484744" transform="translate(56,120)"/>
<path d="M0 0 C0.33 0 0.66 0 1 0 C0.96519531 1.09957031 0.93039063 2.19914062 0.89453125 3.33203125 C0.70286872 12.09984722 1.12684504 19.61872412 4 28 C4.15597656 28.73476563 4.31195313 29.46953125 4.47265625 30.2265625 C4.64667969 30.81179687 4.82070313 31.39703125 5 32 C6.31647119 32.69937532 7.65022151 33.36729133 9 34 C9.33 34.99 9.66 35.98 10 37 C10.66 37 11.32 37 12 37 C12.98248524 41.0527516 13.08159574 44.83861737 13 49 C12.67 49 12.34 49 12 49 C11.67 46.03 11.34 43.06 11 40 C10.01 39.67 9.02 39.34 8 39 C1.09807076 32.2821222 -2.16455797 22.73304385 -2.375 13.25 C-2.19954446 8.6004282 -1.34235792 4.44656062 0 0 Z " fill="#FAEDB7" transform="translate(35,28)"/>
<path d="M0 0 C4.62 0 9.24 0 14 0 C14.33 0.99 14.66 1.98 15 3 C14.01 3.33 13.02 3.66 12 4 C13.65 4.33 15.3 4.66 17 5 C16.01 6.485 16.01 6.485 15 8 C12.2114711 8.22107787 9.65346819 8.28107535 6.875 8.1875 C6.12089844 8.17396484 5.36679687 8.16042969 4.58984375 8.14648438 C2.72625873 8.11109985 0.86304022 8.05729167 -1 8 C1 6 1 6 3.625 5.875 C4.40875 5.91625 5.1925 5.9575 6 6 C6 5.34 6 4.68 6 4 C3.69 4 1.38 4 -1 4 C-0.01 3.67 0.98 3.34 2 3 C2 2.34 2 1.68 2 1 C1.34 0.67 0.68 0.34 0 0 Z " fill="#CAC5BF" transform="translate(56,100)"/>
<path d="M0 0 C6.75 0.875 6.75 0.875 9 2 C9 2.66 9 3.32 9 4 C9.598125 4.28875 10.19625 4.5775 10.8125 4.875 C13 6 13 6 16 8 C16.99 8.33 17.98 8.66 19 9 C20.1875 12.0625 20.1875 12.0625 21 15 C21.66 15 22.32 15 23 15 C24.23076923 20.41538462 24.23076923 20.41538462 23.0625 23.375 C22.711875 23.91125 22.36125 24.4475 22 25 C22 23.68 22 22.36 22 21 C21.01 20.67 20.02 20.34 19 20 C18.29788106 18.34795544 17.63028587 16.68076231 17 15 C16.34 14.67 15.68 14.34 15 14 C14.62875 13.278125 14.2575 12.55625 13.875 11.8125 C10.52333332 6.78499999 5.41500565 3.55607649 0 1 C0 0.67 0 0.34 0 0 Z M22 18 C23 20 23 20 23 20 Z " fill="#E4C37D" transform="translate(76,5)"/>
<path d="M0 0 C1.794375 -0.00386719 1.794375 -0.00386719 3.625 -0.0078125 C6.55327693 0.10742062 9.15786976 0.44676437 12 1.125 C12 1.785 12 2.445 12 3.125 C11.410979 3.13958252 10.82195801 3.15416504 10.21508789 3.16918945 C7.49696198 3.24453764 4.77995058 3.34090384 2.0625 3.4375 C1.13630859 3.46005859 0.21011719 3.48261719 -0.74414062 3.50585938 C-6.28545842 3.7197348 -10.94751507 4.48048504 -16.12719727 6.49291992 C-18 7.125 -18 7.125 -21 7.125 C-21 6.465 -21 5.805 -21 5.125 C-19.60721983 4.47260842 -18.21060788 3.82839448 -16.8125 3.1875 C-16.03519531 2.82785156 -15.25789063 2.46820313 -14.45703125 2.09765625 C-9.62595536 0.18519537 -5.17070012 -0.01114375 0 0 Z " fill="#EAC772" transform="translate(64,1.875)"/>
<path d="M0 0 C2.33837891 -0.34057617 2.33837891 -0.34057617 5.2265625 -0.29296875 C6.7734375 -0.2784668 6.7734375 -0.2784668 8.3515625 -0.26367188 C9.43179688 -0.23853516 10.51203125 -0.21339844 11.625 -0.1875 C12.71296875 -0.17396484 13.8009375 -0.16042969 14.921875 -0.14648438 C17.61507409 -0.11104754 20.30729374 -0.06164331 23 0 C23 0.66 23 1.32 23 2 C24.09054688 1.91492188 24.09054688 1.91492188 25.203125 1.828125 C28.50916808 2.03128966 30.02753252 2.90456902 32.75 4.75 C33.91789062 5.51570312 33.91789062 5.51570312 35.109375 6.296875 C37.20959315 8.18880705 37.64020946 9.24160584 38 12 C37.34 11.67 36.68 11.34 36 11 C36 10.34 36 9.68 36 9 C35.071875 8.896875 34.14375 8.79375 33.1875 8.6875 C30 8 30 8 28.65234375 6.5625 C24.30850405 2.45485017 16.04142789 1.82062717 10.25 1.75 C6.13082651 1.90060963 2.07687625 2.40699982 -2 3 C-1.34 2.01 -0.68 1.02 0 0 Z " fill="#F6DE8F" transform="translate(53,7)"/>
<path d="M0 0 C0.99 0.33 1.98 0.66 3 1 C3.70211894 2.65204456 4.36971413 4.31923769 5 6 C5.66 6.33 6.32 6.66 7 7 C8.61896549 14.14788539 8.82438666 22.75717437 8 30 C6.484375 32.3828125 6.484375 32.3828125 5 34 C5.05800781 32.77925781 5.11601563 31.55851562 5.17578125 30.30078125 C5.52812214 19.48281485 4.57102642 11.90933228 0 2 C0 1.34 0 0.68 0 0 Z " fill="#F7DC85" transform="translate(91,19)"/>
<path d="M0 0 C0.99 0.495 0.99 0.495 2 1 C3.4465242 1.15067214 4.8987934 1.24861036 6.3515625 1.31640625 C7.62773438 1.37924805 7.62773438 1.37924805 8.9296875 1.44335938 C9.81914063 1.48267578 10.70859375 1.52199219 11.625 1.5625 C12.97078125 1.62727539 12.97078125 1.62727539 14.34375 1.69335938 C16.56234283 1.79956861 18.7810488 1.90161194 21 2 C20.67 2.99 20.34 3.98 20 5 C12.08 5.495 12.08 5.495 4 6 C4.33 6.66 4.66 7.32 5 8 C4.01 8.33 3.02 8.66 2 9 C-0.29013653 5.5647952 -0.17842973 4.014669 0 0 Z " fill="#757472" transform="translate(52,115)"/>
<path d="M0 0 C0.99 0 1.98 0 3 0 C3.125 7.625 3.125 7.625 2 11 C2.66 11 3.32 11 4 11 C4.33 10.01 4.66 9.02 5 8 C6.09506492 11.28519475 6.09960608 13.73663415 6.0625 17.1875 C6.05347656 18.27417969 6.04445313 19.36085938 6.03515625 20.48046875 C6.02355469 21.31191406 6.01195313 22.14335938 6 23 C4.9047323 20.90584815 4.03784223 19.21443933 3.625 16.875 C3.15459658 14.78940378 3.15459658 14.78940378 0.9375 13.75 C0.298125 13.5025 -0.34125 13.255 -1 13 C-1 12.34 -1 11.68 -1 11 C-1.66 11 -2.32 11 -3 11 C-2.67 10.01 -2.34 9.02 -2 8 C-1.34 8 -0.68 8 0 8 C0 5.36 0 2.72 0 0 Z M4 12 C5 15 5 15 5 15 Z " fill="#A29B8E" transform="translate(77,92)"/>
<path d="M0 0 C0.33 0 0.66 0 1 0 C2.76013424 9.54479302 3.73922163 19.61190685 -2 28 C-2.99 28.66 -3.98 29.32 -5 30 C-4.566875 28.9790625 -4.566875 28.9790625 -4.125 27.9375 C-1.53588986 21.17704575 -0.85966009 16.07339405 -0.99609375 8.82421875 C-1.00029223 5.78871636 -0.65848473 2.9631813 0 0 Z " fill="#FAEEBF" transform="translate(92,27)"/>
<path d="M0 0 C0 0.33 0 0.66 0 1 C-2.31 1 -4.62 1 -7 1 C-7 1.66 -7 2.32 -7 3 C-0.4 3 6.2 3 13 3 C12.67 4.32 12.34 5.64 12 7 C9.4375 8.25 9.4375 8.25 7 9 C7 8.01 7 7.02 7 6 C1.06 5.67 -4.88 5.34 -11 5 C-11.66 3.68 -12.32 2.36 -13 1 C-8.59085217 -0.10228696 -4.51617599 -0.07654536 0 0 Z " fill="#908F8C" transform="translate(65,112)"/>
<path d="M0 0 C8.25 0 16.5 0 25 0 C25 2.64 25 5.28 25 8 C23.68 7.67 22.36 7.34 21 7 C21.33 5.02 21.66 3.04 22 1 C15.73 1 9.46 1 3 1 C3.33 3.31 3.66 5.62 4 8 C3.01 7.67 2.02 7.34 1 7 C0.67 4.69 0.34 2.38 0 0 Z " fill="#D2C9B7" transform="translate(52,92)"/>
<path d="M0 0 C3.37462715 0.54723683 5.08235 1.0549 8 3 C8 3.66 8 4.32 8 5 C9.36125 5.0309375 9.36125 5.0309375 10.75 5.0625 C14.80915467 6.23341 15.47253982 7.56800337 17.43359375 11.11328125 C18.12727367 13.42395299 17.76164729 14.74492665 17 17 C16.72027344 16.45730469 16.44054687 15.91460937 16.15234375 15.35546875 C13.17162457 10.03617889 10.93953238 8.01519849 5 6 C2.0625 4.5 2.0625 4.5 0 3 C0 2.01 0 1.02 0 0 Z " fill="#F6E4A1" transform="translate(75,10)"/>
<path d="M0 0 C1.9375 0.75 1.9375 0.75 4 2 C4.75 4.125 4.75 4.125 5 6 C5.66 6 6.32 6 7 6 C8.25541557 9.76624671 7.37061958 11.37188934 6 15 C4.22293791 12.33440687 3.12451727 9.9719385 2 7 C2 8.65 2 10.3 2 12 C1.67 12 1.34 12 1 12 C0.63896464 10.18885568 0.28634496 8.37603177 -0.0625 6.5625 C-0.25972656 5.55316406 -0.45695312 4.54382813 -0.66015625 3.50390625 C-0.77230469 2.67761719 -0.88445313 1.85132812 -1 1 C-0.67 0.67 -0.34 0.34 0 0 Z M1 4 C2 6 2 6 2 6 Z " fill="#EBCD7D" transform="translate(41,71)"/>
<path d="M0 0 C3 1 3 1 4.0625 2.70703125 C4.371875 3.40183594 4.68125 4.09664062 5 4.8125 C6.14008763 7.27755434 7.12458224 9.15894976 8.8125 11.3125 C9.204375 11.869375 9.59625 12.42625 10 13 C9.67 13.99 9.34 14.98 9 16 C6.625 15.375 6.625 15.375 4 14 C2.625 11 2.625 11 2 8 C2.33 7.34 2.66 6.68 3 6 C2.34 6 1.68 6 1 6 C0.67 6.66 0.34 7.32 0 8 C0 5.36 0 2.72 0 0 Z M4 10 C4.33 10.99 4.66 11.98 5 13 C5.66 12.67 6.32 12.34 7 12 C6.01 11.34 5.02 10.68 4 10 Z " fill="#EECF8C" transform="translate(30,53)"/>
<path d="M0 0 C1.33897583 0.95043374 2.67105427 1.91059147 4 2.875 C5.11375 3.67550781 5.11375 3.67550781 6.25 4.4921875 C6.8275 4.98976563 7.405 5.48734375 8 6 C8 6.66 8 7.32 8 8 C8.66 8 9.32 8 10 8 C10.98248524 12.0527516 11.08159574 15.83861737 11 20 C10.67 20 10.34 20 10 20 C9.67 17.03 9.34 14.06 9 11 C8.01 10.67 7.02 10.34 6 10 C4.39453125 8.22265625 4.39453125 8.22265625 2.8125 6.0625 C2.28269531 5.35222656 1.75289062 4.64195313 1.20703125 3.91015625 C0 2 0 2 0 0 Z " fill="#F8E7AA" transform="translate(37,57)"/>
<path d="M0 0 C1.98 0.495 1.98 0.495 4 1 C5 7.625 5 7.625 5 11 C4.34 11 3.68 11 3 11 C3 10.34 3 9.68 3 9 C1.02 9.99 1.02 9.99 -1 11 C-0.67 7.37 -0.34 3.74 0 0 Z " fill="#9B9F8C" transform="translate(47,91)"/>
<path d="M0 0 C6.75 0.875 6.75 0.875 9 2 C9 2.66 9 3.32 9 4 C9.598125 4.268125 10.19625 4.53625 10.8125 4.8125 C12.97224808 5.98493467 14.35790256 7.19369282 16 9 C15.67 9.99 15.34 10.98 15 12 C14.41992188 11.45730469 13.83984375 10.91460937 13.2421875 10.35546875 C9.03272029 6.50026363 5.30205308 3.17520126 0 1 C0 0.67 0 0.34 0 0 Z " fill="#E7C76E" transform="translate(76,5)"/>
<path d="M0 0 C1.65 0 3.3 0 5 0 C4.67 0.99 4.34 1.98 4 3 C4.66 3 5.32 3 6 3 C6.33 3.99 6.66 4.98 7 6 C5.35 6.33 3.7 6.66 2 7 C2 6.67 2 6.34 2 6 C0.35 5.67 -1.3 5.34 -3 5 C-2.67 4.34 -2.34 3.68 -2 3 C-1.01 3 -0.02 3 1 3 C0.67 2.01 0.34 1.02 0 0 Z " fill="#C7C2BA" transform="translate(70,100)"/>
<path d="M0 0 C4.95 0.99 4.95 0.99 10 2 C10 2.33 10 2.66 10 3 C8.35 3 6.7 3 5 3 C5 4.65 5 6.3 5 8 C4.01 8.33 3.02 8.66 2 9 C0 3.375 0 3.375 0 0 Z " fill="#9B9895" transform="translate(47,110)"/>
<path d="M0 0 C0.66 0 1.32 0 2 0 C5.77089394 4.50106704 8.69306887 9.01484303 9 15 C7.68 15.33 6.36 15.66 5 16 C4.67 14.68 4.34 13.36 4 12 C4.66 12.33 5.32 12.66 6 13 C5.37229008 9.78929984 4.23119535 7.53625961 2.4375 4.8125 C0 1.09065156 0 1.09065156 0 0 Z " fill="#F8DC85" transform="translate(33,56)"/>
<path d="M0 0 C1.09506492 3.28519475 1.09960608 5.73663415 1.0625 9.1875 C1.05347656 10.27417969 1.04445313 11.36085938 1.03515625 12.48046875 C1.02355469 13.31191406 1.01195313 14.14335938 1 15 C-0.07806737 12.93442293 -0.95620527 11.240871 -1.375 8.9375 C-2.22572995 6.30023717 -3.72213316 5.46959151 -6 4 C-5.34 4 -4.68 4 -4 4 C-3.67 3.01 -3.34 2.02 -3 1 C-3 1.66 -3 2.32 -3 3 C-2.34 3 -1.68 3 -1 3 C-0.67 2.01 -0.34 1.02 0 0 Z M-1 4 C0 7 0 7 0 7 Z " fill="#A88C91" transform="translate(82,100)"/>
<path d="M0 0 C0 0.99 0 1.98 0 3 C-1.43554025 3.50559908 -2.8735202 4.0042749 -4.3125 4.5 C-5.51326172 4.91765625 -5.51326172 4.91765625 -6.73828125 5.34375 C-9 6 -9 6 -12 6 C-12 5.34 -12 4.68 -12 4 C-10.56570999 3.32645501 -9.12742943 2.66140299 -7.6875 2 C-6.88699219 1.62875 -6.08648437 1.2575 -5.26171875 0.875 C-3 0 -3 0 0 0 Z " fill="#E6BB6B" transform="translate(55,3)"/>
<path d="M0 0 C2.64 0 5.28 0 8 0 C8.33 0.99 8.66 1.98 9 3 C6.03 3 3.06 3 0 3 C0 2.01 0 1.02 0 0 Z " fill="#D5CFC7" transform="translate(62,100)"/>
<path d="M0 0 C0.99 0.33 1.98 0.66 3 1 C3.33 2.98 3.66 4.96 4 7 C1 7 1 7 -1 6 C-0.67 4.02 -0.34 2.04 0 0 Z " fill="#E9D17C" transform="translate(92,13)"/>
<path d="M0 0 C1.32 0.99 2.64 1.98 4 3 C3.67 3.99 3.34 4.98 3 6 C3.66 6.66 4.32 7.32 5 8 C4.01 8.33 3.02 8.66 2 9 C-0.29013653 5.5647952 -0.17842973 4.014669 0 0 Z " fill="#81817E" transform="translate(52,115)"/>
<path d="M0 0 C1.65 0 3.3 0 5 0 C4.67 0.99 4.34 1.98 4 3 C4.66 3.33 5.32 3.66 6 4 C3.69 4 1.38 4 -1 4 C-0.34 3.67 0.32 3.34 1 3 C0.67 2.01 0.34 1.02 0 0 Z " fill="#BAB4AB" transform="translate(70,100)"/>
<path d="M0 0 C5.28 0 10.56 0 16 0 C16 0.33 16 0.66 16 1 C10.72 1 5.44 1 0 1 C0 0.67 0 0.34 0 0 Z " fill="#F7CC64" transform="translate(56,0)"/>
<path d="M0 0 C1.42944945 2.35438733 2.08661261 3.48032433 1.625 6.25 C1.41875 6.8275 1.2125 7.405 1 8 C0.67 5.36 0.34 2.72 0 0 Z " fill="#D9EC42" transform="translate(101,25)"/>
<path d="M0 0 C0.33 0 0.66 0 1 0 C0.67 2.64 0.34 5.28 0 8 C-0.98120464 4.94736336 -0.98120464 3.05263664 0 0 Z " fill="#D9EC42" transform="translate(26,25)"/>
<path d="M0 0 C0.33 0 0.66 0 1 0 C1 2.64 1 5.28 1 8 C0.67 8 0.34 8 0 8 C0 5.36 0 2.72 0 0 Z " fill="#FFFFFF" transform="translate(83,92)"/>
<path d="M0 0 C1.65 0 3.3 0 5 0 C5 0.33 5 0.66 5 1 C3.35 1 1.7 1 0 1 C0 0.67 0 0.34 0 0 Z " fill="#DBAC69" transform="translate(72,1)"/>
<path d="M0 0 C1.65 0 3.3 0 5 0 C5 0.33 5 0.66 5 1 C3.35 1 1.7 1 0 1 C0 0.67 0 0.34 0 0 Z " fill="#DBAC69" transform="translate(51,1)"/>
<path d="M0 0 C0.99 0.495 0.99 0.495 2 1 C1.67 1.66 1.34 2.32 1 3 C0.67 2.01 0.34 1.02 0 0 Z " fill="#FF9D6E" transform="translate(90,10)"/>
<path d="M0 0 C0 3 0 3 0 3 Z " fill="#FF9D6E" transform="translate(37,10)"/>
<path d="" fill="#8D8D8D" transform="translate(0,0)"/>
<path d="" fill="#87875D" transform="translate(0,0)"/>
<path d="" fill="#E2E271" transform="translate(0,0)"/>
<path d="" fill="#E2E271" transform="translate(0,0)"/>
<path d="M0 0 C3 1 3 1 3 1 Z " fill="#FFC638" transform="translate(80,4)"/>
<path d="M0 0 C3 1 3 1 3 1 Z " fill="#FFC638" transform="translate(45,4)"/>
<path d="M0 0 C3 1 3 1 3 1 Z " fill="#E2B89B" transform="translate(77,2)"/>
<path d="M0 0 C3 1 3 1 3 1 Z " fill="#E2B89B" transform="translate(48,2)"/>
<path d="M0 0 C2 1 2 1 2 1 Z " fill="#7F7F7F" transform="translate(50,119)"/>
<path d="" fill="#BFBF3F" transform="translate(0,0)"/>
<path d="" fill="#BFBF3F" transform="translate(0,0)"/>
<path d="M0 0 C2 1 2 1 2 1 Z " fill="#D4D47F" transform="translate(88,9)"/>
<path d="M0 0 C2 1 2 1 2 1 Z " fill="#D4D47F" transform="translate(38,9)"/>
<path d="M0 0 C2 1 2 1 2 1 Z " fill="#FFFF3F" transform="translate(85,6)"/>
<path d="M0 0 C2 1 2 1 2 1 Z " fill="#FFFF3F" transform="translate(41,6)"/>
<path d="M0 0 C2 1 2 1 2 1 Z " fill="#FFE572" transform="translate(83,5)"/>
<path d="M0 0 C2 1 2 1 2 1 Z " fill="#FFE572" transform="translate(43,5)"/>
<path d="" fill="#7F7F7F" transform="translate(0,0)"/>
<path d="" fill="#7F7F7F" transform="translate(0,0)"/>
<path d="" fill="#7F7F7F" transform="translate(0,0)"/>
<path d="" fill="#7F7F7F" transform="translate(0,0)"/>
<path d="" fill="#FFFFFF" transform="translate(0,0)"/>
<path d="" fill="#FFFF55" transform="translate(0,0)"/>
<path d="" fill="#FFFF55" transform="translate(0,0)"/>
</svg>
