<?xml version="1.0" encoding="UTF-8"?>
<svg version="1.1" xmlns="http://www.w3.org/2000/svg" width="128" height="128">
<path d="M0 0 C0.90905594 0.00045822 1.81811188 0.00091644 2.75471497 0.00138855 C4.66323158 0.00439196 6.57174616 0.01222038 8.48022461 0.0246582 C11.39641011 0.04298055 14.31227838 0.04516708 17.22851562 0.04492188 C19.08984649 0.04983568 20.95117521 0.0556634 22.8125 0.0625 C23.68029587 0.06361282 24.54809174 0.06472565 25.44218445 0.06587219 C29.49156236 0.09758363 33.25642955 0.21949793 37.20703125 1.23046875 C37.20703125 2.22046875 37.20703125 3.21046875 37.20703125 4.23046875 C39.51703125 4.23046875 41.82703125 4.23046875 44.20703125 4.23046875 C44.20703125 4.89046875 44.20703125 5.55046875 44.20703125 6.23046875 C46.19075821 7.58092499 46.19075821 7.58092499 48.70703125 8.91796875 C53.13155662 11.46238419 56.75004798 14.27724871 60.41796875 17.8125 C62.35844927 19.3504791 63.78816837 19.82022108 66.20703125 20.23046875 C66.70203125 23.20046875 66.70203125 23.20046875 67.20703125 26.23046875 C67.86703125 25.57046875 68.52703125 24.91046875 69.20703125 24.23046875 C71.03882096 28.12302188 71.20703125 30.97601916 71.20703125 35.23046875 C72.13118066 38.50611238 72.13118066 38.50611238 73.20703125 41.23046875 C73.86703125 40.90046875 74.52703125 40.57046875 75.20703125 40.23046875 C75.25672235 45.08681776 75.29288789 49.94301651 75.31689453 54.79956055 C75.32690976 56.44932638 75.34052585 58.09907466 75.35791016 59.7487793 C75.38235667 62.1294388 75.39355928 64.50986222 75.40234375 66.890625 C75.41266632 67.62007828 75.42298889 68.34953156 75.43362427 69.10108948 C75.43464744 73.84366286 74.70121954 77.72463797 73.20703125 82.23046875 C72.54703125 81.24046875 71.88703125 80.25046875 71.20703125 79.23046875 C71.26890625 80.13796875 71.33078125 81.04546875 71.39453125 81.98046875 C71.19036558 85.51934031 70.62110042 86.71983681 68.20703125 89.23046875 C67.87703125 89.23046875 67.54703125 89.23046875 67.20703125 89.23046875 C66.80484375 90.43703125 66.80484375 90.43703125 66.39453125 91.66796875 C66.00265625 92.51359375 65.61078125 93.35921875 65.20703125 94.23046875 C63.72203125 94.72546875 63.72203125 94.72546875 62.20703125 95.23046875 C60.31099293 96.4944943 58.41742685 97.76224314 56.52734375 99.03515625 C55.47289063 99.71835938 54.4184375 100.4015625 53.33203125 101.10546875 C52.30335937 101.78351563 51.2746875 102.4615625 50.21484375 103.16015625 C37.7576349 110.085974 25.49175467 109.59159271 11.75366211 109.07299805 C9.31241131 108.98842266 6.87182123 108.93453723 4.4296875 108.8828125 C3.69210709 108.84445786 2.95452667 108.80610321 2.19459534 108.7665863 C-1.72012549 108.69209627 -4.21442886 109.16325503 -7.24438477 111.56469727 C-9.96280259 114.02829625 -9.96280259 114.02829625 -10.79296875 117.23046875 C-11.45296875 117.23046875 -12.11296875 117.23046875 -12.79296875 117.23046875 C-14.48333433 118.18986543 -16.14691049 119.19689728 -17.79296875 120.23046875 C-22.57074653 123.23046875 -22.57074653 123.23046875 -24.79296875 123.23046875 C-24.79296875 123.89046875 -24.79296875 124.55046875 -24.79296875 125.23046875 C-30.5765394 127.2421455 -35.69515874 127.45131499 -41.79296875 127.23046875 C-41.67887282 125.77124182 -41.55131331 124.31306277 -41.41796875 122.85546875 C-41.31355469 121.63730469 -41.31355469 121.63730469 -41.20703125 120.39453125 C-40.79296875 118.23046875 -40.79296875 118.23046875 -38.79296875 116.23046875 C-37.80296875 116.23046875 -36.81296875 116.23046875 -35.79296875 116.23046875 C-35.96699219 115.3796875 -36.14101563 114.52890625 -36.3203125 113.65234375 C-36.81059659 110.102849 -36.6878048 107.0417983 -36.35546875 103.48046875 C-35.94988741 99.36108452 -35.94988741 99.36108452 -35.79296875 95.23046875 C-37.44296875 94.57046875 -39.09296875 93.91046875 -40.79296875 93.23046875 C-40.79296875 92.57046875 -40.79296875 91.91046875 -40.79296875 91.23046875 C-41.78296875 90.90046875 -42.77296875 90.57046875 -43.79296875 90.23046875 C-44.28796875 87.75546875 -44.28796875 87.75546875 -44.79296875 85.23046875 C-45.78296875 85.72546875 -45.78296875 85.72546875 -46.79296875 86.23046875 C-48.88647564 82.82852005 -48.97239038 80.17774463 -48.79296875 76.23046875 C-49.78296875 76.23046875 -50.77296875 76.23046875 -51.79296875 76.23046875 C-52.72384784 72.29758511 -52.9090576 68.65392712 -52.890625 64.6171875 C-52.88740234 63.37001953 -52.88417969 62.12285156 -52.88085938 60.83789062 C-52.86829102 58.8975293 -52.86829102 58.8975293 -52.85546875 56.91796875 C-52.85095703 55.60505859 -52.84644531 54.29214844 -52.84179688 52.93945312 C-52.83002824 49.70307865 -52.81358635 46.46679697 -52.79296875 43.23046875 C-52.13296875 43.23046875 -51.47296875 43.23046875 -50.79296875 43.23046875 C-49.741715 39.23570449 -48.82222974 35.45724142 -48.29296875 31.35546875 C-47.79296875 28.23046875 -47.79296875 28.23046875 -45.79296875 26.23046875 C-45.46296875 26.23046875 -45.13296875 26.23046875 -44.79296875 26.23046875 C-44.54546875 25.32296875 -44.29796875 24.41546875 -44.04296875 23.48046875 C-42.72815538 20.06195398 -41.63611758 18.48826341 -38.79296875 16.23046875 C-37.8803125 16.02550781 -37.8803125 16.02550781 -36.94921875 15.81640625 C-34.24956706 15.08280525 -32.44646032 13.77967767 -30.16796875 12.16796875 C-26.0070864 9.23046875 -26.0070864 9.23046875 -23.79296875 9.23046875 C-23.79296875 8.57046875 -23.79296875 7.91046875 -23.79296875 7.23046875 C-20.82296875 6.24046875 -17.85296875 5.25046875 -14.79296875 4.23046875 C-15.78296875 3.57046875 -16.77296875 2.91046875 -17.79296875 2.23046875 C-11.7171557 0.46293562 -6.30920528 -0.05260958 0 0 Z M-8.79296875 1.23046875 C-8.79296875 1.56046875 -8.79296875 1.89046875 -8.79296875 2.23046875 C-6.15296875 2.23046875 -3.51296875 2.23046875 -0.79296875 2.23046875 C-0.79296875 1.90046875 -0.79296875 1.57046875 -0.79296875 1.23046875 C-3.43296875 1.23046875 -6.07296875 1.23046875 -8.79296875 1.23046875 Z M23.20703125 1.23046875 C23.20703125 1.56046875 23.20703125 1.89046875 23.20703125 2.23046875 C25.84703125 2.23046875 28.48703125 2.23046875 31.20703125 2.23046875 C31.20703125 1.90046875 31.20703125 1.57046875 31.20703125 1.23046875 C28.56703125 1.23046875 25.92703125 1.23046875 23.20703125 1.23046875 Z M-13.79296875 2.23046875 C-13.79296875 2.56046875 -13.79296875 2.89046875 -13.79296875 3.23046875 C-12.14296875 3.23046875 -10.49296875 3.23046875 -8.79296875 3.23046875 C-8.79296875 2.90046875 -8.79296875 2.57046875 -8.79296875 2.23046875 C-10.44296875 2.23046875 -12.09296875 2.23046875 -13.79296875 2.23046875 Z M-42.79296875 22.23046875 C-42.46296875 22.89046875 -42.13296875 23.55046875 -41.79296875 24.23046875 C-41.46296875 23.57046875 -41.13296875 22.91046875 -40.79296875 22.23046875 C-41.45296875 22.23046875 -42.11296875 22.23046875 -42.79296875 22.23046875 Z M68.20703125 27.23046875 C69.20703125 29.23046875 69.20703125 29.23046875 69.20703125 29.23046875 Z M69.20703125 30.23046875 C70.20703125 32.23046875 70.20703125 32.23046875 70.20703125 32.23046875 Z M-51.79296875 65.23046875 C-51.79296875 66.88046875 -51.79296875 68.53046875 -51.79296875 70.23046875 C-51.46296875 70.23046875 -51.13296875 70.23046875 -50.79296875 70.23046875 C-50.79296875 68.58046875 -50.79296875 66.93046875 -50.79296875 65.23046875 C-51.12296875 65.23046875 -51.45296875 65.23046875 -51.79296875 65.23046875 Z M73.20703125 68.23046875 C73.20703125 70.21046875 73.20703125 72.19046875 73.20703125 74.23046875 C73.53703125 74.23046875 73.86703125 74.23046875 74.20703125 74.23046875 C74.20703125 72.25046875 74.20703125 70.27046875 74.20703125 68.23046875 C73.87703125 68.23046875 73.54703125 68.23046875 73.20703125 68.23046875 Z M72.20703125 74.23046875 C73.20703125 78.23046875 73.20703125 78.23046875 73.20703125 78.23046875 Z M-47.79296875 79.23046875 C-46.79296875 81.23046875 -46.79296875 81.23046875 -46.79296875 81.23046875 Z M-34.79296875 99.23046875 C-34.79296875 102.53046875 -34.79296875 105.83046875 -34.79296875 109.23046875 C-34.46296875 109.23046875 -34.13296875 109.23046875 -33.79296875 109.23046875 C-33.79296875 105.93046875 -33.79296875 102.63046875 -33.79296875 99.23046875 C-34.12296875 99.23046875 -34.45296875 99.23046875 -34.79296875 99.23046875 Z M-35.79296875 110.23046875 C-34.79296875 113.23046875 -34.79296875 113.23046875 -34.79296875 113.23046875 Z M-39.79296875 119.23046875 C-38.79296875 121.23046875 -38.79296875 121.23046875 -38.79296875 121.23046875 Z " fill="#EDEDED" transform="translate(52.79296875,-0.23046875)"/>
<path d="M0 0 C0.90905594 0.00045822 1.81811188 0.00091644 2.75471497 0.00138855 C4.66323158 0.00439196 6.57174616 0.01222038 8.48022461 0.0246582 C11.39641011 0.04298055 14.31227838 0.04516708 17.22851562 0.04492188 C19.08984649 0.04983568 20.95117521 0.0556634 22.8125 0.0625 C23.68029587 0.06361282 24.54809174 0.06472565 25.44218445 0.06587219 C29.49156236 0.09758363 33.25642955 0.21949793 37.20703125 1.23046875 C37.20703125 2.22046875 37.20703125 3.21046875 37.20703125 4.23046875 C39.51703125 4.23046875 41.82703125 4.23046875 44.20703125 4.23046875 C44.20703125 4.89046875 44.20703125 5.55046875 44.20703125 6.23046875 C46.19075821 7.58092499 46.19075821 7.58092499 48.70703125 8.91796875 C53.13155662 11.46238419 56.75004798 14.27724871 60.41796875 17.8125 C62.35844927 19.3504791 63.78816837 19.82022108 66.20703125 20.23046875 C66.70203125 23.20046875 66.70203125 23.20046875 67.20703125 26.23046875 C67.86703125 25.57046875 68.52703125 24.91046875 69.20703125 24.23046875 C71.03882096 28.12302188 71.20703125 30.97601916 71.20703125 35.23046875 C72.13118066 38.50611238 72.13118066 38.50611238 73.20703125 41.23046875 C73.86703125 40.90046875 74.52703125 40.57046875 75.20703125 40.23046875 C75.25672235 45.08681776 75.29288789 49.94301651 75.31689453 54.79956055 C75.32690976 56.44932638 75.34052585 58.09907466 75.35791016 59.7487793 C75.38235667 62.1294388 75.39355928 64.50986222 75.40234375 66.890625 C75.41266632 67.62007828 75.42298889 68.34953156 75.43362427 69.10108948 C75.43464744 73.84366286 74.70121954 77.72463797 73.20703125 82.23046875 C72.54703125 81.24046875 71.88703125 80.25046875 71.20703125 79.23046875 C71.26890625 80.13796875 71.33078125 81.04546875 71.39453125 81.98046875 C71.19036558 85.51934031 70.62110042 86.71983681 68.20703125 89.23046875 C67.87703125 89.23046875 67.54703125 89.23046875 67.20703125 89.23046875 C66.80484375 90.43703125 66.80484375 90.43703125 66.39453125 91.66796875 C66.00265625 92.51359375 65.61078125 93.35921875 65.20703125 94.23046875 C63.72203125 94.72546875 63.72203125 94.72546875 62.20703125 95.23046875 C60.31099293 96.4944943 58.41742685 97.76224314 56.52734375 99.03515625 C55.47289063 99.71835938 54.4184375 100.4015625 53.33203125 101.10546875 C52.30335937 101.78351563 51.2746875 102.4615625 50.21484375 103.16015625 C37.7576349 110.085974 25.49175467 109.59159271 11.75366211 109.07299805 C9.31241131 108.98842266 6.87182123 108.93453723 4.4296875 108.8828125 C3.69210709 108.84445786 2.95452667 108.80610321 2.19459534 108.7665863 C-1.72012549 108.69209627 -4.21442886 109.16325503 -7.24438477 111.56469727 C-9.96280259 114.02829625 -9.96280259 114.02829625 -10.79296875 117.23046875 C-11.45296875 117.23046875 -12.11296875 117.23046875 -12.79296875 117.23046875 C-14.48333433 118.18986543 -16.14691049 119.19689728 -17.79296875 120.23046875 C-22.57074653 123.23046875 -22.57074653 123.23046875 -24.79296875 123.23046875 C-24.79296875 123.89046875 -24.79296875 124.55046875 -24.79296875 125.23046875 C-30.5765394 127.2421455 -35.69515874 127.45131499 -41.79296875 127.23046875 C-41.67887282 125.77124182 -41.55131331 124.31306277 -41.41796875 122.85546875 C-41.31355469 121.63730469 -41.31355469 121.63730469 -41.20703125 120.39453125 C-40.79296875 118.23046875 -40.79296875 118.23046875 -38.79296875 116.23046875 C-37.80296875 116.23046875 -36.81296875 116.23046875 -35.79296875 116.23046875 C-35.96699219 115.38226563 -36.14101563 114.5340625 -36.3203125 113.66015625 C-36.81482724 110.0718592 -36.68618212 106.95656992 -36.35546875 103.35546875 C-36.25363281 102.20304687 -36.15179688 101.050625 -36.046875 99.86328125 C-35.92119141 98.56003906 -35.92119141 98.56003906 -35.79296875 97.23046875 C-35.46296875 97.23046875 -35.13296875 97.23046875 -34.79296875 97.23046875 C-34.46296875 98.88046875 -34.13296875 100.53046875 -33.79296875 102.23046875 C-32.47296875 101.24046875 -31.15296875 100.25046875 -29.79296875 99.23046875 C-28.97746766 108.40485597 -33.04001931 116.59180001 -37.79296875 124.23046875 C-34.67099397 122.92151155 -34.67099397 122.92151155 -32.79296875 120.23046875 C-29.86066424 118.24918192 -27.28194554 116.87657556 -23.79296875 116.23046875 C-23.46296875 117.22046875 -23.13296875 118.21046875 -22.79296875 119.23046875 C-22.23867188 118.86953125 -21.684375 118.50859375 -21.11328125 118.13671875 C-20.02660156 117.440625 -20.02660156 117.440625 -18.91796875 116.73046875 C-17.83902344 116.034375 -17.83902344 116.034375 -16.73828125 115.32421875 C-14.79296875 114.23046875 -14.79296875 114.23046875 -12.79296875 114.23046875 C-12.29796875 112.74546875 -12.29796875 112.74546875 -11.79296875 111.23046875 C-10.16644559 109.524603 -8.50290309 107.85271415 -6.79296875 106.23046875 C-7.43234375 105.65296875 -8.07171875 105.07546875 -8.73046875 104.48046875 C-10.83225544 102.18761054 -11.20682804 101.16734221 -11.79296875 98.23046875 C-10.06311633 98.34559028 -8.33408124 98.47302552 -6.60546875 98.60546875 C-5.64253906 98.67507812 -4.67960937 98.7446875 -3.6875 98.81640625 C-0.79296875 99.23046875 -0.79296875 99.23046875 1.61328125 100.25390625 C9.38607708 103.1804107 19.44186509 101.5463955 27.20703125 99.23046875 C28.55923569 99.08577761 29.9137201 98.96114985 31.26953125 98.85546875 C35.18878568 98.23336487 37.24057069 97.32750023 40.49609375 95.2578125 C42.20703125 94.23046875 42.20703125 94.23046875 45.64453125 92.91796875 C54.5470002 88.70100977 60.79642797 80.49494337 67.20703125 73.23046875 C67.53703125 73.89046875 67.86703125 74.55046875 68.20703125 75.23046875 C68.86703125 75.23046875 69.52703125 75.23046875 70.20703125 75.23046875 C69.87703125 73.91046875 69.54703125 72.59046875 69.20703125 71.23046875 C67.88703125 71.56046875 66.56703125 71.89046875 65.20703125 72.23046875 C65.52285156 71.7303125 65.83867188 71.23015625 66.1640625 70.71484375 C67.57335782 67.35787064 67.71626662 64.07105 67.89453125 60.48046875 C67.93433105 59.7639917 67.97413086 59.04751465 68.01513672 58.30932617 C68.29257489 52.47715093 67.89382862 47.35921233 66.64453125 41.66796875 C66.20703125 39.23046875 66.20703125 39.23046875 66.33203125 35.85546875 C66.07950814 28.53229861 62.41359379 23.10327728 57.20703125 18.23046875 C54.29780721 16.07231889 51.30322683 14.1088274 48.20703125 12.23046875 C47.87703125 12.89046875 47.54703125 13.55046875 47.20703125 14.23046875 C47.20703125 13.57046875 47.20703125 12.91046875 47.20703125 12.23046875 C46.33820313 12.10671875 45.469375 11.98296875 44.57421875 11.85546875 C40.32621575 11.06697631 36.45519729 9.63780363 32.40234375 8.16796875 C16.58087733 3.52597371 -3.1465167 4.73552473 -18.23828125 11.29296875 C-26.02492842 15.69013421 -32.3453531 23.10423308 -37.4375 30.3359375 C-38.79296875 32.23046875 -38.79296875 32.23046875 -40.3046875 33.96875 C-43.08009397 37.24294531 -43.08009397 37.24294531 -43.7734375 41.3515625 C-43.53506263 42.86301637 -43.27433026 44.37110145 -42.9921875 45.875 C-42.64601988 49.96792309 -44.23361627 53.50388063 -45.79296875 57.23046875 C-45.13296875 57.23046875 -44.47296875 57.23046875 -43.79296875 57.23046875 C-42.89647852 60.2801168 -42.69775627 62.9371965 -42.765625 66.109375 C-42.77787109 67.03041016 -42.79011719 67.95144531 -42.80273438 68.90039062 C-42.83796318 70.83275599 -42.87704161 72.76505491 -42.91992188 74.69726562 C-42.93087891 75.61701172 -42.94183594 76.53675781 -42.953125 77.484375 C-42.97838257 78.74229858 -42.97838257 78.74229858 -43.00415039 80.02563477 C-42.94044347 82.52150156 -42.94044347 82.52150156 -40.79296875 85.23046875 C-40.66796875 88.41796875 -40.66796875 88.41796875 -40.79296875 91.23046875 C-41.78296875 90.90046875 -42.77296875 90.57046875 -43.79296875 90.23046875 C-44.28796875 87.75546875 -44.28796875 87.75546875 -44.79296875 85.23046875 C-45.78296875 85.72546875 -45.78296875 85.72546875 -46.79296875 86.23046875 C-48.88647564 82.82852005 -48.97239038 80.17774463 -48.79296875 76.23046875 C-49.78296875 76.23046875 -50.77296875 76.23046875 -51.79296875 76.23046875 C-52.72384784 72.29758511 -52.9090576 68.65392712 -52.890625 64.6171875 C-52.88740234 63.37001953 -52.88417969 62.12285156 -52.88085938 60.83789062 C-52.86829102 58.8975293 -52.86829102 58.8975293 -52.85546875 56.91796875 C-52.85095703 55.60505859 -52.84644531 54.29214844 -52.84179688 52.93945312 C-52.83002824 49.70307865 -52.81358635 46.46679697 -52.79296875 43.23046875 C-52.13296875 43.23046875 -51.47296875 43.23046875 -50.79296875 43.23046875 C-49.741715 39.23570449 -48.82222974 35.45724142 -48.29296875 31.35546875 C-47.79296875 28.23046875 -47.79296875 28.23046875 -45.79296875 26.23046875 C-45.46296875 26.23046875 -45.13296875 26.23046875 -44.79296875 26.23046875 C-44.54546875 25.32296875 -44.29796875 24.41546875 -44.04296875 23.48046875 C-42.72815538 20.06195398 -41.63611758 18.48826341 -38.79296875 16.23046875 C-37.8803125 16.02550781 -37.8803125 16.02550781 -36.94921875 15.81640625 C-34.24956706 15.08280525 -32.44646032 13.77967767 -30.16796875 12.16796875 C-26.0070864 9.23046875 -26.0070864 9.23046875 -23.79296875 9.23046875 C-23.79296875 8.57046875 -23.79296875 7.91046875 -23.79296875 7.23046875 C-20.82296875 6.24046875 -17.85296875 5.25046875 -14.79296875 4.23046875 C-15.78296875 3.57046875 -16.77296875 2.91046875 -17.79296875 2.23046875 C-11.7171557 0.46293562 -6.30920528 -0.05260958 0 0 Z M-8.79296875 1.23046875 C-8.79296875 1.56046875 -8.79296875 1.89046875 -8.79296875 2.23046875 C-6.15296875 2.23046875 -3.51296875 2.23046875 -0.79296875 2.23046875 C-0.79296875 1.90046875 -0.79296875 1.57046875 -0.79296875 1.23046875 C-3.43296875 1.23046875 -6.07296875 1.23046875 -8.79296875 1.23046875 Z M23.20703125 1.23046875 C23.20703125 1.56046875 23.20703125 1.89046875 23.20703125 2.23046875 C25.84703125 2.23046875 28.48703125 2.23046875 31.20703125 2.23046875 C31.20703125 1.90046875 31.20703125 1.57046875 31.20703125 1.23046875 C28.56703125 1.23046875 25.92703125 1.23046875 23.20703125 1.23046875 Z M-13.79296875 2.23046875 C-13.79296875 2.56046875 -13.79296875 2.89046875 -13.79296875 3.23046875 C-12.14296875 3.23046875 -10.49296875 3.23046875 -8.79296875 3.23046875 C-8.79296875 2.90046875 -8.79296875 2.57046875 -8.79296875 2.23046875 C-10.44296875 2.23046875 -12.09296875 2.23046875 -13.79296875 2.23046875 Z M-42.79296875 22.23046875 C-42.46296875 22.89046875 -42.13296875 23.55046875 -41.79296875 24.23046875 C-41.46296875 23.57046875 -41.13296875 22.91046875 -40.79296875 22.23046875 C-41.45296875 22.23046875 -42.11296875 22.23046875 -42.79296875 22.23046875 Z M68.20703125 27.23046875 C69.20703125 29.23046875 69.20703125 29.23046875 69.20703125 29.23046875 Z M69.20703125 30.23046875 C70.20703125 32.23046875 70.20703125 32.23046875 70.20703125 32.23046875 Z M-51.79296875 65.23046875 C-51.79296875 66.88046875 -51.79296875 68.53046875 -51.79296875 70.23046875 C-51.46296875 70.23046875 -51.13296875 70.23046875 -50.79296875 70.23046875 C-50.79296875 68.58046875 -50.79296875 66.93046875 -50.79296875 65.23046875 C-51.12296875 65.23046875 -51.45296875 65.23046875 -51.79296875 65.23046875 Z M73.20703125 68.23046875 C73.20703125 70.21046875 73.20703125 72.19046875 73.20703125 74.23046875 C73.53703125 74.23046875 73.86703125 74.23046875 74.20703125 74.23046875 C74.20703125 72.25046875 74.20703125 70.27046875 74.20703125 68.23046875 C73.87703125 68.23046875 73.54703125 68.23046875 73.20703125 68.23046875 Z M72.20703125 74.23046875 C73.20703125 78.23046875 73.20703125 78.23046875 73.20703125 78.23046875 Z M-47.79296875 79.23046875 C-46.79296875 81.23046875 -46.79296875 81.23046875 -46.79296875 81.23046875 Z M-35.79296875 110.23046875 C-34.79296875 113.23046875 -34.79296875 113.23046875 -34.79296875 113.23046875 Z M-39.79296875 119.23046875 C-38.79296875 121.23046875 -38.79296875 121.23046875 -38.79296875 121.23046875 Z " fill="#ABABAB" transform="translate(52.79296875,-0.23046875)"/>
<path d="M0 0 C0.73903564 0.11746582 1.47807129 0.23493164 2.23950195 0.35595703 C6.43596294 1.11983683 9.53929397 2.30490024 13.0625 4.6875 C14.71619357 5.38572617 16.37977014 6.06248605 18.0625 6.6875 C17.4025 7.6775 16.7425 8.6675 16.0625 9.6875 C16.0625 9.0275 16.0625 8.3675 16.0625 7.6875 C15.19367188 7.56375 14.32484375 7.44 13.4296875 7.3125 C9.1816845 6.52400756 5.31066604 5.09483488 1.2578125 3.625 C-14.56365392 -1.01699504 -34.29104795 0.19255598 -49.3828125 6.75 C-57.16945967 11.14716546 -63.48988435 18.56126433 -68.58203125 25.79296875 C-69.9375 27.6875 -69.9375 27.6875 -71.44921875 29.42578125 C-74.22462522 32.69997656 -74.22462522 32.69997656 -74.91796875 36.80859375 C-74.67959388 38.32004762 -74.41886151 39.8281327 -74.13671875 41.33203125 C-73.79055113 45.42495434 -75.37814752 48.96091188 -76.9375 52.6875 C-76.2775 52.6875 -75.6175 52.6875 -74.9375 52.6875 C-74.04100977 55.73714805 -73.84228752 58.39422775 -73.91015625 61.56640625 C-73.92240234 62.48744141 -73.93464844 63.40847656 -73.94726562 64.35742188 C-73.98249443 66.28978724 -74.02157286 68.22208616 -74.06445312 70.15429688 C-74.07541016 71.07404297 -74.08636719 71.99378906 -74.09765625 72.94140625 C-74.12291382 74.19932983 -74.12291382 74.19932983 -74.14868164 75.48266602 C-74.08497472 77.97853281 -74.08497472 77.97853281 -71.9375 80.6875 C-71.8125 83.875 -71.8125 83.875 -71.9375 86.6875 C-72.9275 86.3575 -73.9175 86.0275 -74.9375 85.6875 C-75.4325 83.2125 -75.4325 83.2125 -75.9375 80.6875 C-76.9275 81.1825 -76.9275 81.1825 -77.9375 81.6875 C-80.03100689 78.2855513 -80.11692163 75.63477588 -79.9375 71.6875 C-80.9275 71.6875 -81.9175 71.6875 -82.9375 71.6875 C-83.86837909 67.75461636 -84.05358885 64.11095837 -84.03515625 60.07421875 C-84.03193359 58.82705078 -84.02871094 57.57988281 -84.02539062 56.29492188 C-84.01282227 54.35456055 -84.01282227 54.35456055 -84 52.375 C-83.99548828 51.06208984 -83.99097656 49.74917969 -83.98632812 48.39648438 C-83.97455949 45.1601099 -83.9581176 41.92382822 -83.9375 38.6875 C-83.2775 38.6875 -82.6175 38.6875 -81.9375 38.6875 C-80.88624625 34.69273574 -79.96676099 30.91427267 -79.4375 26.8125 C-78.9375 23.6875 -78.9375 23.6875 -76.9375 21.6875 C-76.6075 21.6875 -76.2775 21.6875 -75.9375 21.6875 C-75.69 20.78 -75.4425 19.8725 -75.1875 18.9375 C-73.89768658 15.58398511 -72.61778958 14.01041764 -69.9375 11.6875 C-69.2775 12.0175 -68.6175 12.3475 -67.9375 12.6875 C-68.9275 14.1725 -68.9275 14.1725 -69.9375 15.6875 C-69.2775 15.6875 -68.6175 15.6875 -67.9375 15.6875 C-67.2775 14.98625 -66.6175 14.285 -65.9375 13.5625 C-49.6707719 -3.32802594 -21.44164978 -3.43190069 0 0 Z M-73.9375 17.6875 C-73.6075 18.3475 -73.2775 19.0075 -72.9375 19.6875 C-72.6075 19.0275 -72.2775 18.3675 -71.9375 17.6875 C-72.5975 17.6875 -73.2575 17.6875 -73.9375 17.6875 Z M-82.9375 60.6875 C-82.9375 62.3375 -82.9375 63.9875 -82.9375 65.6875 C-82.6075 65.6875 -82.2775 65.6875 -81.9375 65.6875 C-81.9375 64.0375 -81.9375 62.3875 -81.9375 60.6875 C-82.2675 60.6875 -82.5975 60.6875 -82.9375 60.6875 Z M-78.9375 74.6875 C-77.9375 76.6875 -77.9375 76.6875 -77.9375 76.6875 Z " fill="#BEBEBE" transform="translate(83.9375,4.3125)"/>
<path d="M0 0 C0.495 0.99 0.495 0.99 1 2 C-1.38743028 4.56687766 -3.95973349 6.49543077 -6.875 8.4375 C-7.71804687 9.01371094 -8.56109375 9.58992188 -9.4296875 10.18359375 C-21.67792803 16.95429011 -33.97605834 16.3512798 -47.45336914 15.8425293 C-49.89461994 15.75795391 -52.33521002 15.70406848 -54.77734375 15.65234375 C-55.88371437 15.59481178 -55.88371437 15.59481178 -57.01243591 15.53611755 C-60.92715674 15.46162752 -63.42146011 15.93278628 -66.45141602 18.33422852 C-69.16983384 20.7978275 -69.16983384 20.7978275 -70 24 C-70.66 24 -71.32 24 -72 24 C-73.69036558 24.95939668 -75.35394174 25.96642853 -77 27 C-81.77777778 30 -81.77777778 30 -84 30 C-84 30.66 -84 31.32 -84 32 C-89.78357065 34.01167675 -94.90218999 34.22084624 -101 34 C-100.88590407 32.54077307 -100.75834456 31.08259402 -100.625 29.625 C-100.55539063 28.81289062 -100.48578125 28.00078125 -100.4140625 27.1640625 C-100 25 -100 25 -98 23 C-97.01 23 -96.02 23 -95 23 C-95.17402344 22.15179688 -95.34804687 21.30359375 -95.52734375 20.4296875 C-96.02185849 16.84139045 -95.89321337 13.72610117 -95.5625 10.125 C-95.46066406 8.97257812 -95.35882813 7.82015625 -95.25390625 6.6328125 C-95.12822266 5.32957031 -95.12822266 5.32957031 -95 4 C-94.67 4 -94.34 4 -94 4 C-93.67 5.65 -93.34 7.3 -93 9 C-91.68 8.01 -90.36 7.02 -89 6 C-88.18449891 15.17438722 -92.24705056 23.36133126 -97 31 C-93.87802522 29.6910428 -93.87802522 29.6910428 -92 27 C-89.06769549 25.01871317 -86.48897679 23.64610681 -83 23 C-82.67 23.99 -82.34 24.98 -82 26 C-81.44570312 25.6390625 -80.89140625 25.278125 -80.3203125 24.90625 C-79.59585938 24.4421875 -78.87140625 23.978125 -78.125 23.5 C-77.04605469 22.80390625 -77.04605469 22.80390625 -75.9453125 22.09375 C-74 21 -74 21 -72 21 C-71.67 20.01 -71.34 19.02 -71 18 C-69.33710133 15.6251619 -68.0483425 14.21311862 -65.14169312 13.6222229 C-62.78879713 13.45611145 -60.46424567 13.42037301 -58.10546875 13.42578125 C-57.23988846 13.41161667 -56.37430817 13.39745209 -55.48249817 13.38285828 C-52.71737302 13.3409773 -49.95289738 13.32573617 -47.1875 13.3125 C-44.43312002 13.28332889 -41.67890018 13.24861072 -38.92463684 13.21000671 C-37.21286753 13.18774475 -35.50100061 13.17178987 -33.78910828 13.16316223 C-29.09326026 13.12121008 -24.63310717 12.77612392 -20 12 C-20 11.34 -20 10.68 -20 10 C-19.071875 9.79375 -18.14375 9.5875 -17.1875 9.375 C-11.12295313 7.66002568 -4.47065885 4.47065885 0 0 Z M-95 17 C-94 20 -94 20 -94 20 Z M-99 26 C-98 28 -98 28 -98 28 Z " fill="#7E7E7E" transform="translate(112,93)"/>
<path d="M0 0 C0.90905594 0.00045822 1.81811188 0.00091644 2.75471497 0.00138855 C4.66323158 0.00439196 6.57174616 0.01222038 8.48022461 0.0246582 C11.39641011 0.04298055 14.31227838 0.04516708 17.22851562 0.04492188 C19.08984649 0.04983568 20.95117521 0.0556634 22.8125 0.0625 C23.68029587 0.06361282 24.54809174 0.06472565 25.44218445 0.06587219 C29.49156236 0.09758363 33.25642955 0.21949793 37.20703125 1.23046875 C37.20703125 2.22046875 37.20703125 3.21046875 37.20703125 4.23046875 C39.51703125 4.23046875 41.82703125 4.23046875 44.20703125 4.23046875 C44.20703125 4.89046875 44.20703125 5.55046875 44.20703125 6.23046875 C46.19075821 7.58092499 46.19075821 7.58092499 48.70703125 8.91796875 C53.13155662 11.46238419 56.75004798 14.27724871 60.41796875 17.8125 C62.35844927 19.3504791 63.78816837 19.82022108 66.20703125 20.23046875 C66.20703125 21.22046875 66.20703125 22.21046875 66.20703125 23.23046875 C64.20703125 22.23046875 64.20703125 22.23046875 63.20703125 21.23046875 C62.71203125 22.71546875 62.71203125 22.71546875 62.20703125 24.23046875 C61.58828125 23.38484375 60.96953125 22.53921875 60.33203125 21.66796875 C55.04556296 15.33021415 47.82740407 11.14890941 40.20703125 8.23046875 C39.71203125 7.73546875 39.71203125 7.73546875 39.20703125 7.23046875 C17.97033217 2.42544774 -7.36885238 0.91905495 -26.62890625 12.78515625 C-27.34304687 13.26210937 -28.0571875 13.7390625 -28.79296875 14.23046875 C-29.40398438 14.60429687 -30.015 14.978125 -30.64453125 15.36328125 C-33.7534087 17.30824399 -36.30195532 19.5478389 -38.79296875 22.23046875 C-38.08369525 17.56365472 -35.41121884 15.70418099 -31.9375 12.78125 C-29.35377101 10.91287039 -26.89796103 9.92909201 -23.79296875 9.23046875 C-23.79296875 8.57046875 -23.79296875 7.91046875 -23.79296875 7.23046875 C-20.82296875 6.24046875 -17.85296875 5.25046875 -14.79296875 4.23046875 C-15.78296875 3.57046875 -16.77296875 2.91046875 -17.79296875 2.23046875 C-11.7171557 0.46293562 -6.30920528 -0.05260958 0 0 Z M-8.79296875 1.23046875 C-8.79296875 1.56046875 -8.79296875 1.89046875 -8.79296875 2.23046875 C-6.15296875 2.23046875 -3.51296875 2.23046875 -0.79296875 2.23046875 C-0.79296875 1.90046875 -0.79296875 1.57046875 -0.79296875 1.23046875 C-3.43296875 1.23046875 -6.07296875 1.23046875 -8.79296875 1.23046875 Z M23.20703125 1.23046875 C23.20703125 1.56046875 23.20703125 1.89046875 23.20703125 2.23046875 C25.84703125 2.23046875 28.48703125 2.23046875 31.20703125 2.23046875 C31.20703125 1.90046875 31.20703125 1.57046875 31.20703125 1.23046875 C28.56703125 1.23046875 25.92703125 1.23046875 23.20703125 1.23046875 Z M-13.79296875 2.23046875 C-13.79296875 2.56046875 -13.79296875 2.89046875 -13.79296875 3.23046875 C-12.14296875 3.23046875 -10.49296875 3.23046875 -8.79296875 3.23046875 C-8.79296875 2.90046875 -8.79296875 2.57046875 -8.79296875 2.23046875 C-10.44296875 2.23046875 -12.09296875 2.23046875 -13.79296875 2.23046875 Z " fill="#A2A2A2" transform="translate(52.79296875,-0.23046875)"/>
<path d="M0 0 C0.66 0.66 1.32 1.32 2 2 C2.99 2 3.98 2 5 2 C4.60167969 2.78310547 4.60167969 2.78310547 4.1953125 3.58203125 C-0.40546387 13.16978055 -1.36710144 22.45603077 -1 33 C-0.34 33 0.32 33 1 33 C1.66 34.32 2.32 35.64 3 37 C3.33 37 3.66 37 4 37 C3.98428955 37.83978394 3.98428955 37.83978394 3.96826172 38.6965332 C3.92666674 41.23514307 3.90066315 43.7736812 3.875 46.3125 C3.85824219 47.19357422 3.84148438 48.07464844 3.82421875 48.98242188 C3.81455078 50.25375977 3.81455078 50.25375977 3.8046875 51.55078125 C3.78897705 52.72120972 3.78897705 52.72120972 3.77294922 53.9152832 C3.87119141 56.3065848 3.87119141 56.3065848 6 59 C6.125 62.1875 6.125 62.1875 6 65 C5.01 64.67 4.02 64.34 3 64 C2.67 62.35 2.34 60.7 2 59 C1.01 59.495 1.01 59.495 0 60 C-2.09350689 56.5980513 -2.17942163 53.94727588 -2 50 C-2.99 50 -3.98 50 -5 50 C-5.93087909 46.06711636 -6.11608885 42.42345837 -6.09765625 38.38671875 C-6.09443359 37.13955078 -6.09121094 35.89238281 -6.08789062 34.60742188 C-6.07532227 32.66706055 -6.07532227 32.66706055 -6.0625 30.6875 C-6.05798828 29.37458984 -6.05347656 28.06167969 -6.04882812 26.70898438 C-6.03705949 23.4726099 -6.0206176 20.23632822 -6 17 C-5.34 17 -4.68 17 -4 17 C-2.68225439 11.99256667 -1.71879568 7.13425489 -1 2 C-0.67 1.34 -0.34 0.68 0 0 Z M-5 39 C-5 40.65 -5 42.3 -5 44 C-4.67 44 -4.34 44 -4 44 C-4 42.35 -4 40.7 -4 39 C-4.33 39 -4.66 39 -5 39 Z M-1 53 C0 55 0 55 0 55 Z " fill="#9A9A9A" transform="translate(6,26)"/>
<path d="M0 0 C0 6.53402649 -6.38470178 12.03492043 -10.57421875 16.6015625 C-14.06242754 20.05045171 -17.72756346 22.61643014 -22 25 C-23.00933594 25.58394531 -23.00933594 25.58394531 -24.0390625 26.1796875 C-37.61172718 33.14393867 -59.28074136 33.44480494 -73.75 29 C-75.51096705 28.36286619 -77.26654177 27.70856687 -79 27 C-79 26.34 -79 25.68 -79 25 C-77.27014758 25.11512153 -75.54111249 25.24255677 -73.8125 25.375 C-72.84957031 25.44460937 -71.88664062 25.51421875 -70.89453125 25.5859375 C-68 26 -68 26 -65.59375 27.0234375 C-57.82095417 29.94994195 -47.76516616 28.31592675 -40 26 C-38.64779556 25.85530886 -37.29331115 25.7306811 -35.9375 25.625 C-32.01824557 25.00289612 -29.96646056 24.09703148 -26.7109375 22.02734375 C-25 21 -25 21 -21.5625 19.6875 C-12.66003105 15.47054102 -6.41060328 7.26447462 0 0 Z " fill="#C1C1C1" transform="translate(120,73)"/>
<path d="M0 0 C0.33 0 0.66 0 1 0 C1.33 1.65 1.66 3.3 2 5 C3.32 4.01 4.64 3.02 6 2 C6.81550109 11.17438722 2.75294944 19.36133126 -2 27 C1.12197478 25.6910428 1.12197478 25.6910428 3 23 C5.93230451 21.01871317 8.51102321 19.64610681 12 19 C12.33 20.65 12.66 22.3 13 24 C12.34 24 11.68 24 11 24 C11 25.32 11 26.64 11 28 C5.21642935 30.01167675 0.09781001 30.22084624 -6 30 C-5.88590407 28.54077307 -5.75834456 27.08259402 -5.625 25.625 C-5.55539062 24.81289062 -5.48578125 24.00078125 -5.4140625 23.1640625 C-5 21 -5 21 -3 19 C-2.01 19 -1.02 19 0 19 C-0.17402344 18.15179688 -0.34804688 17.30359375 -0.52734375 16.4296875 C-1.02185849 12.84139045 -0.89321337 9.72610117 -0.5625 6.125 C-0.46066406 4.97257812 -0.35882812 3.82015625 -0.25390625 2.6328125 C-0.12822266 1.32957031 -0.12822266 1.32957031 0 0 Z M0 13 C1 16 1 16 1 16 Z M-4 22 C-3 24 -3 24 -3 24 Z " fill="#A8A8A8" transform="translate(17,97)"/>
<path d="M0 0 C0.495 0.99 0.495 0.99 1 2 C1.99 2.495 1.99 2.495 3 3 C2.02727325 4.35335895 1.0260734 5.68662604 0 7 C-0.33 7 -0.66 7 -1 7 C-1.268125 7.804375 -1.53625 8.60875 -1.8125 9.4375 C-2.204375 10.283125 -2.59625 11.12875 -3 12 C-3.99 12.33 -4.98 12.66 -6 13 C-6.66 13.33 -7.32 13.66 -8 14 C-8.495 13.01 -8.495 13.01 -9 12 C-9.9590625 12.8353125 -9.9590625 12.8353125 -10.9375 13.6875 C-21.83767773 21.91824645 -21.83767773 21.91824645 -29 21 C-29 21.66 -29 22.32 -29 23 C-34.48295509 24.84359979 -39.23482048 25.27011196 -44.99609375 25.1953125 C-46.24641136 25.19106766 -46.24641136 25.19106766 -47.52198792 25.18673706 C-50.1606436 25.17562289 -52.79894848 25.15053515 -55.4375 25.125 C-57.23632319 25.11495885 -59.03515175 25.10583499 -60.83398438 25.09765625 C-65.22278955 25.07571235 -69.61133548 25.04124387 -74 25 C-74 24.67 -74 24.34 -74 24 C-73.14881592 23.94465088 -72.29763184 23.88930176 -71.4206543 23.83227539 C-68.20931711 23.62277875 -64.99806613 23.41201419 -61.78686523 23.20043945 C-60.40701481 23.10977595 -59.02713275 23.01959233 -57.6472168 22.92993164 C-53.09710502 22.63408347 -48.54821791 22.32395227 -44 22 C-42.91066162 21.92257568 -41.82132324 21.84515137 -40.69897461 21.76538086 C-39.72839111 21.68811768 -38.75780762 21.61085449 -37.7578125 21.53125 C-36.50508545 21.43360352 -36.50508545 21.43360352 -35.22705078 21.33398438 C-32.96922156 20.99538425 -31.25185212 20.39413738 -29.1875 19.4375 C-25.8223655 17.91989032 -23.64256138 17.73347112 -20 18 C-19.505 16.515 -19.505 16.515 -19 15 C-17.35 14.67 -15.7 14.34 -14 14 C-13.67 13.01 -13.34 12.02 -13 11 C-8.75688073 6.18348624 -8.75688073 6.18348624 -5.9375 5.5 C-2.89379668 4.71452818 -1.77171717 2.46774892 0 0 Z " fill="#979797" transform="translate(121,82)"/>
<path d="M0 0 C0.99 0 1.98 0 3 0 C3.33 1.32 3.66 2.64 4 4 C4.66 3.34 5.32 2.68 6 2 C6.77320082 5.67270389 7.02486412 9.07913991 6.9375 12.8125 C6.89382 16.09820633 7.11286188 18.84228461 8 22 C9.16466155 26.72665561 9.33299904 31.40425163 9.4375 36.25 C9.48874023 37.42175781 9.48874023 37.42175781 9.54101562 38.6171875 C9.57446296 42.94304308 9.37563132 44.52358954 6.59765625 48.046875 C4 50 4 50 2 50 C2.31582031 49.49984375 2.63164063 48.9996875 2.95703125 48.484375 C4.36632657 45.12740189 4.50923537 41.84058125 4.6875 38.25 C4.74719971 37.17528442 4.74719971 37.17528442 4.80810547 36.07885742 C5.08554364 30.24668218 4.68679737 25.12874358 3.4375 19.4375 C3 17 3 17 3.125 13.625 C2.97540944 9.28687378 1.80427219 6.90925642 0 3 C0 2.01 0 1.02 0 0 Z M5 5 C6 7 6 7 6 7 Z " fill="#C2C2C2" transform="translate(116,22)"/>
<path d="M0 0 C1.65369357 0.69822617 3.31727014 1.37498605 5 2 C4.34 2.99 3.68 3.98 3 5 C3 4.34 3 3.68 3 3 C2.13117188 2.87625 1.26234375 2.7525 0.3671875 2.625 C-3.8808155 1.83650756 -7.75183396 0.40733488 -11.8046875 -1.0625 C-29.79197908 -6.33994496 -48.72483039 -2.85509565 -66 3 C-63.83412262 -0.47346825 -62.05474702 -2.27099798 -58.15625 -3.36328125 C-56.61004674 -3.70727408 -55.05715528 -4.02208131 -53.5 -4.3125 C-52.66412354 -4.47564697 -51.82824707 -4.63879395 -50.96704102 -4.80688477 C-35.89559826 -7.49134064 -13.23202373 -8.94827504 0 0 Z " fill="#C7C7C7" transform="translate(97,9)"/>
<path d="M0 0 C1 4 2 8 3 12 C3.66 11.67 4.32 11.34 5 11 C5.0496911 15.85634901 5.08585664 20.71254776 5.10986328 25.5690918 C5.11987851 27.21885763 5.1334946 28.86860591 5.15087891 30.51831055 C5.17532542 32.89897005 5.18652803 35.27939347 5.1953125 37.66015625 C5.20563507 38.38960953 5.21595764 39.11906281 5.22659302 39.87062073 C5.22761619 44.61319411 4.49418829 48.49416922 3 53 C2.34 52.01 1.68 51.02 1 50 C0.01 50.66 -0.98 51.32 -2 52 C-1.69147815 50.041036 -1.3780582 48.08284287 -1.0625 46.125 C-0.88847656 45.03445312 -0.71445313 43.94390625 -0.53515625 42.8203125 C0 40 0 40 1 38 C1.12614229 35.13392974 1.18979174 32.30389622 1.1875 29.4375 C1.18814453 28.61846191 1.18878906 27.79942383 1.18945312 26.95556641 C1.14655601 22.060421 0.76330538 17.62506478 -0.55078125 12.890625 C-1.58391004 8.54250037 -1.41121871 4.23365613 0 0 Z M3 39 C3 40.98 3 42.96 3 45 C3.33 45 3.66 45 4 45 C4 43.02 4 41.04 4 39 C3.67 39 3.34 39 3 39 Z M2 45 C3 49 3 49 3 49 Z " fill="#A1A1A1" transform="translate(123,29)"/>
<path d="M0 0 C0.66 0.33 1.32 0.66 2 1 C-3.461 5.699 -3.461 5.699 -6.40625 7.34375 C-9.43355589 9.27684894 -11.45840719 11.48205005 -13.8125 14.1875 C-14.60269531 15.08855469 -15.39289062 15.98960938 -16.20703125 16.91796875 C-16.79871094 17.60503906 -17.39039063 18.29210937 -18 19 C-20.475 18.01 -20.475 18.01 -23 17 C-21.79157144 12.56909529 -20.48331435 10.01887244 -17 7 C-16.34 7.33 -15.68 7.66 -15 8 C-15.99 9.485 -15.99 9.485 -17 11 C-16.34 11 -15.68 11 -15 11 C-14.34 10.29875 -13.68 9.5975 -13 8.875 C-9.35445294 5.06523911 -4.75326177 2.23781882 0 0 Z M-21 13 C-20.67 13.66 -20.34 14.32 -20 15 C-19.67 14.34 -19.34 13.68 -19 13 C-19.66 13 -20.32 13 -21 13 Z " fill="#BABABA" transform="translate(31,9)"/>
<path d="M0 0 C3 0.25 3 0.25 5 2.25 C5.36487512 5.09602594 5.40199375 6.6364306 3.8125 9.0625 C1.3864306 10.65199375 -0.15397406 10.61487512 -3 10.25 C-5 8.25 -5 8.25 -5.25 5.25 C-4.90584825 1.120179 -4.129821 0.34415175 0 0 Z " fill="#565656" transform="translate(65,51.75)"/>
<path d="M0 0 C3 0.25 3 0.25 5 2.25 C5.36487512 5.09602594 5.40199375 6.6364306 3.8125 9.0625 C1.36655047 10.66501866 -0.13381787 10.6909511 -3 10.25 C-5.14915785 7.02626323 -5.38286803 5.98296326 -5 2.25 C-3 0.25 -3 0.25 0 0 Z " fill="#565656" transform="translate(87,51.75)"/>
<path d="M0 0 C0.61875 0.165 1.2375 0.33 1.875 0.5 C1.875 0.83 1.875 1.16 1.875 1.5 C1.15054688 1.44199219 0.42609375 1.38398437 -0.3203125 1.32421875 C-6.99410019 0.89502922 -6.99410019 0.89502922 -12.75 3.8125 C-15.28498154 6.32784907 -15.28498154 6.32784907 -16.125 9.5 C-16.785 9.5 -17.445 9.5 -18.125 9.5 C-19.81536558 10.45939668 -21.47894174 11.46642853 -23.125 12.5 C-27.90277778 15.5 -27.90277778 15.5 -30.125 15.5 C-30.125 14.84 -30.125 14.18 -30.125 13.5 C-29.465 13.5 -28.805 13.5 -28.125 13.5 C-28.125 12.84 -28.125 12.18 -28.125 11.5 C-26.4453125 10.2109375 -26.4453125 10.2109375 -24.25 8.875 C-23.53070313 8.42898437 -22.81140625 7.98296875 -22.0703125 7.5234375 C-20.125 6.5 -20.125 6.5 -18.125 6.5 C-17.795 5.51 -17.465 4.52 -17.125 3.5 C-13.15807945 -2.53661823 -6.32191607 -1.01150657 0 0 Z " fill="#717171" transform="translate(58.125,107.5)"/>
<path d="M0 0 C3 0.25 3 0.25 5 2.25 C5.1875 5.3125 5.1875 5.3125 5 8.25 C4 9.25 4 9.25 0.5625 9.4375 C-3 9.25 -3 9.25 -5 7.25 C-5.25 4.75 -5.25 4.75 -5 2.25 C-3 0.25 -3 0.25 0 0 Z " fill="#545454" transform="translate(43,51.75)"/>
<path d="M0 0 C0.93457031 0.00080566 1.86914062 0.00161133 2.83203125 0.00244141 C11.32765628 0.07787262 18.93330386 0.88600584 26.8125 4.1875 C24.07722549 5.23952866 22.97069527 5.24513432 20.16552734 4.22314453 C16.30023324 3.02927693 12.78707738 2.93428455 8.7890625 2.9921875 C8.04288666 2.9950174 7.29671082 2.99784729 6.52792358 3.00076294 C4.16428012 3.01188313 1.80102732 3.03697179 -0.5625 3.0625 C-2.17317158 3.07254038 -3.78384915 3.08166438 -5.39453125 3.08984375 C-9.32566944 3.1117956 -13.25651867 3.14626815 -17.1875 3.1875 C-16.8575 2.5275 -16.5275 1.8675 -16.1875 1.1875 C-10.8857843 -0.15286935 -5.43464225 -0.00482479 0 0 Z " fill="#DDDDDD" transform="translate(63.1875,4.8125)"/>
<path d="M0 0 C0.33 0 0.66 0 1 0 C1.04898437 1.04800781 1.09796875 2.09601563 1.1484375 3.17578125 C1.22348143 4.55471354 1.29902857 5.9336185 1.375 7.3125 C1.4059375 8.00279297 1.436875 8.69308594 1.46875 9.40429688 C1.68124919 13.06990789 1.91933861 14.87900792 4 18 C4.125 21.1875 4.125 21.1875 4 24 C3.01 23.67 2.02 23.34 1 23 C0.67 21.35 0.34 19.7 0 18 C-0.66 18.33 -1.32 18.66 -2 19 C-4.11146301 15.56887261 -4.08444564 12.96894519 -4 9 C-4.33 8.01 -4.66 7.02 -5 6 C-4.67 5.34 -4.34 4.68 -4 4 C-3.34 4 -2.68 4 -2 4 C-1.67 5.32 -1.34 6.64 -1 8 C-0.67 5.36 -0.34 2.72 0 0 Z M-3 12 C-2 14 -2 14 -2 14 Z " fill="#8B8B8B" transform="translate(8,67)"/>
<path d="M0 0 C7.1940502 -0.54034839 11.39728324 2.86221377 17 7 C18.00899926 7.92687142 18.99684385 8.8788393 19.9375 9.875 C22.0301932 12.03110815 23.05939842 12.67326649 26 13 C26 13.99 26 14.98 26 16 C24 15 24 15 23 14 C22.67 14.99 22.34 15.98 22 17 C21.38125 16.154375 20.7625 15.30875 20.125 14.4375 C14.87297565 8.14103899 7.6221171 3.81686936 0 1 C0 0.67 0 0.34 0 0 Z " fill="#A5A5A5" transform="translate(93,7)"/>
<path d="M0 0 C0.66 0 1.32 0 2 0 C2.66 1.32 3.32 2.64 4 4 C4.33 4 4.66 4 5 4 C5 9.61 5 15.22 5 21 C0.48514851 15.35643564 0.48514851 15.35643564 -0.25 11 C-0.39953125 10.175 -0.5490625 9.35 -0.703125 8.5 C-1.00448946 5.96219404 -1.12409119 3.55273305 -1 1 C-0.67 0.67 -0.34 0.34 0 0 Z " fill="#AEAEAE" transform="translate(5,59)"/>
<path d="M0 0 C0.66 0.33 1.32 0.66 2 1 C1.28714844 1.70125 0.57429688 2.4025 -0.16015625 3.125 C-5.66651948 8.56978587 -11.0160937 14.06353823 -16 20 C-16.33 19.34 -16.66 18.68 -17 18 C-12.50014017 10.8193726 -7.92634815 3.74299774 0 0 Z " fill="#CFCFCF" transform="translate(29,12)"/>
<path d="M0 0 C2 2 2 2 2 5 C1.34 5 0.68 5 0 5 C0 6.32 0 7.64 0 9 C-4.873261 10.5912689 -8.80790596 11.21192221 -14 11 C-13.34 10.34 -12.68 9.68 -12 9 C-10.68 9 -9.36 9 -8 9 C-7.938125 8.401875 -7.87625 7.80375 -7.8125 7.1875 C-6.67199005 4.11689628 -4.82187415 3.51417637 -2 2 C-1.34 1.34 -0.68 0.68 0 0 Z " fill="#9D9D9D" transform="translate(28,116)"/>
<path d="M0 0 C-11.63795953 6.55134564 -32.23902697 3.24280781 -45 2 C-45 1.67 -45 1.34 -45 1 C-44.32122803 1.00523682 -43.64245605 1.01047363 -42.94311523 1.01586914 C-25.40055323 1.14547382 -25.40055323 1.14547382 -7.890625 0.21875 C-5.24588111 0.01860722 -2.65078694 -0.03927092 0 0 Z " fill="#808080" transform="translate(92,109)"/>
<path d="M0 0 C1.70923212 0.08819881 3.41743713 0.19638572 5.125 0.3125 C6.07632813 0.37050781 7.02765625 0.42851563 8.0078125 0.48828125 C11 1 11 1 13.84375 2.5 C17.78469188 4.37292287 21.07022423 4.55127292 25.375 4.6875 C26.11105469 4.72166016 26.84710938 4.75582031 27.60546875 4.79101562 C29.40313853 4.87272789 31.20154046 4.93805781 33 5 C33 5.33 33 5.66 33 6 C21.22417163 6.42266184 11.07053631 6.52518272 0 2 C0 1.34 0 0.68 0 0 Z " fill="#BDBDBD" transform="translate(41,98)"/>
<path d="M0 0 C-3 2 -3 2 -6.6875 3.25 C-11.46066032 4.95912791 -15.11314882 7.80575262 -19 11 C-19.66 10.67 -20.32 10.34 -21 10 C-14.58727803 3.92040645 -9.32901335 -0.68261073 0 0 Z " fill="#DEDEDE" transform="translate(46,8)"/>
<path d="M0 0 C1.08335233 3.25005699 0.9100037 4.27395738 0.125 7.5 C-0.05804688 8.2734375 -0.24109375 9.046875 -0.4296875 9.84375 C-0.88910067 11.58070939 -1.43183731 13.29551194 -2 15 C-1.34 15 -0.68 15 0 15 C0.625 17.875 0.625 17.875 1 21 C0.34 21.66 -0.32 22.32 -1 23 C-4.09660222 15.25849444 -3.31216185 8.75254267 -1 1 C-0.67 0.67 -0.34 0.34 0 0 Z " fill="#C5C5C5" transform="translate(9,42)"/>
<path d="M0 0 C0.99 0 1.98 0 3 0 C3.33 1.32 3.66 2.64 4 4 C4.66 3.34 5.32 2.68 6 2 C6.92844389 6.33273814 6.92844389 9.66726186 6 14 C2.59801074 9.95001278 0 5.36373351 0 0 Z M5 5 C6 7 6 7 6 7 Z " fill="#BABABA" transform="translate(116,22)"/>
<path d="M0 0 C0.33 0 0.66 0 1 0 C1.11227478 6.08778799 1.09163808 11.99599056 0 18 C-0.66 18.33 -1.32 18.66 -2 19 C-2.19818283 12.29481414 -2.30844801 6.34823202 0 0 Z " fill="#B6B6B6" transform="translate(6,41)"/>
<path d="M0 0 C0.66 0.33 1.32 0.66 2 1 C-1.55780056 4.06136327 -4.97314915 6.58388949 -9 9 C-11.05179873 10.61317192 -13.02067247 12.2968577 -15 14 C-12.34974986 7.49484057 -6.25124843 2.89792974 0 0 Z " fill="#C2C2C2" transform="translate(31,9)"/>
<path d="M0 0 C2.9375 0.1875 2.9375 0.1875 3.9375 1.1875 C3.97830783 3.18708364 3.98004356 5.18795254 3.9375 7.1875 C3.2775 5.8675 2.6175 4.5475 1.9375 3.1875 C-0.04741642 3.45426204 -0.04741642 3.45426204 -2.0625 4.1875 C-2.3925 5.1775 -2.7225 6.1675 -3.0625 7.1875 C-3.7225 7.1875 -4.3825 7.1875 -5.0625 7.1875 C-5.1875 4.8125 -5.1875 4.8125 -5.0625 2.1875 C-3.0625 0.1875 -3.0625 0.1875 0 0 Z " fill="#4D4D4D" transform="translate(43.0625,51.8125)"/>
<path d="M0 0 C5.73491451 -0.88229454 8.76938812 1.49896975 13.2421875 4.6875 C13.82226562 5.120625 14.40234375 5.55375 15 6 C13.11328125 6.578125 13.11328125 6.578125 11 7 C9.62797869 6.05377841 8.30144802 5.04115841 7 4 C4.70153214 2.89296256 2.36774396 1.95620429 0 1 C0 0.67 0 0.34 0 0 Z " fill="#B4B4B4" transform="translate(93,7)"/>
<path d="M0 0 C0.36814024 6.50381098 0.36814024 6.50381098 -1.4375 8.9375 C-3 10 -3 10 -4 10 C-4.36814024 3.49618902 -4.36814024 3.49618902 -2.5625 1.0625 C-1 0 -1 0 0 0 Z " fill="#979797" transform="translate(23,99)"/>
<path d="M0 0 C0.99 0 1.98 0 3 0 C2.67 0.99 2.34 1.98 2 3 C-3.38490641 3.91657981 -8.54230189 4.11138159 -14 4 C-11.04496433 2.32976245 -8.68683399 1.69963834 -5.3125 1.4375 C-2.35818712 1.40493693 -2.35818712 1.40493693 0 0 Z M-17 4 C-14 5 -14 5 -14 5 Z " fill="#CACACA" transform="translate(89,97)"/>
<path d="M0 0 C0 0.66 0 1.32 0 2 C-4.873261 3.5912689 -8.80790596 4.21192221 -14 4 C-11.72385081 1.72385081 -10.64803179 1.51338589 -7.5625 0.875 C-6.78003906 0.70742187 -5.99757813 0.53984375 -5.19140625 0.3671875 C-3 0 -3 0 0 0 Z " fill="#7D7D7D" transform="translate(28,123)"/>
<path d="M0 0 C4.97093824 0.41153737 9.44508386 0.79600832 14 3 C13.01 4.485 13.01 4.485 12 6 C12 5.34 12 4.68 12 4 C11.13375 3.87625 10.2675 3.7525 9.375 3.625 C6.10486147 3.01941879 3.12743101 2.11693965 0 1 C0 0.67 0 0.34 0 0 Z " fill="#CCCCCC" transform="translate(88,8)"/>
<path d="M0 0 C0.33 0.66 0.66 1.32 1 2 C1.66 2.33 2.32 2.66 3 3 C1.625 5 1.625 5 0 7 C-2 7 -2 7 -5 6 C-3.35 4.02 -1.7 2.04 0 0 Z " fill="#787878" transform="translate(121,82)"/>
<path d="M0 0 C0.33 0.66 0.66 1.32 1 2 C-1.17157319 4.28015185 -3.29923604 6.36317336 -6 8 C-7.32 7.67 -8.64 7.34 -10 7 C-6.7 4.69 -3.4 2.38 0 0 Z " fill="#848484" transform="translate(112,93)"/>
<path d="M0 0 C1.32 0 2.64 0 4 0 C3.1875 2.4375 3.1875 2.4375 2 5 C1.01 5.33 0.02 5.66 -1 6 C-1.99 6.495 -1.99 6.495 -3 7 C-2.25 2.25 -2.25 2.25 0 0 Z " fill="#A9A9A9" transform="translate(116,89)"/>
<path d="M0 0 C0.99 0.33 1.98 0.66 3 1 C1.35 2.98 -0.3 4.96 -2 7 C-3.32 6.67 -4.64 6.34 -6 6 C-5.195625 5.38125 -4.39125 4.7625 -3.5625 4.125 C-0.96125481 2.25835959 -0.96125481 2.25835959 0 0 Z " fill="#9A9A9A" transform="translate(113,88)"/>
<path d="M0 0 C1.09898702 3.29696105 0.87124444 4.40494903 0.0625 7.6875 C-0.13214844 8.49574219 -0.32679687 9.30398437 -0.52734375 10.13671875 C-0.76130859 11.05904297 -0.76130859 11.05904297 -1 12 C-1.33 12 -1.66 12 -2 12 C-2.05422947 10.5629191 -2.09289723 9.12524538 -2.125 7.6875 C-2.14820313 6.88699219 -2.17140625 6.08648437 -2.1953125 5.26171875 C-2 3 -2 3 0 0 Z " fill="#CBCBCB" transform="translate(9,42)"/>
<path d="M0 0 C0.66 0.33 1.32 0.66 2 1 C-5.28571429 5.42857143 -5.28571429 5.42857143 -10 6 C-7.31100548 2.67830089 -3.94687492 1.43522725 0 0 Z " fill="#CDCDCD" transform="translate(102,91)"/>
<path d="M0 0 C1.4540625 0.0309375 1.4540625 0.0309375 2.9375 0.0625 C0.9375 2.0625 0.9375 2.0625 -2.0625 3.0625 C-3.27132096 5.06266466 -3.27132096 5.06266466 -4.0625 7.0625 C-4.10504356 5.06295254 -4.10330783 3.06208364 -4.0625 1.0625 C-3.0625 0.0625 -3.0625 0.0625 0 0 Z " fill="#444444" transform="translate(65.0625,51.9375)"/>
<path d="M0 0 C0.33 0 0.66 0 1 0 C1 3.63 1 7.26 1 11 C-1.62962963 7.05555556 -1.62962963 7.05555556 -2 4 C-1.0625 1.75 -1.0625 1.75 0 0 Z " fill="#A3A3A3" transform="translate(3,49)"/>
<path d="M0 0 C1.093125 0.0825 2.18625 0.165 3.3125 0.25 C0.08734237 1.98662334 -3.20079166 3.1405928 -6.6875 4.25 C-4.79150483 0.68106792 -4.16790733 0.28256999 0 0 Z " fill="#AFAFAF" transform="translate(35.6875,5.75)"/>
<path d="M0 0 C2.1519437 3.22791555 2.20086443 4.28400809 2 8 C0.23537317 4.91190305 0 3.76687864 0 0 Z " fill="#B8B8B8" transform="translate(125,32)"/>
<path d="M0 0 C0.99 0.33 1.98 0.66 3 1 C1.02 1.33 -0.96 1.66 -3 2 C-2.01 1.34 -1.02 0.68 0 0 Z " fill="#6D6D6D" transform="translate(99,105)"/>
<path d="M0 0 C0.99 0.33 1.98 0.66 3 1 C1.35 1.33 -0.3 1.66 -2 2 C-1.34 1.34 -0.68 0.68 0 0 Z " fill="#494949" transform="translate(32,122)"/>
<path d="M0 0 C2.475 0.495 2.475 0.495 5 1 C4.01 1.33 3.02 1.66 2 2 C1.34 1.34 0.68 0.68 0 0 Z " fill="#B3B3B3" transform="translate(102,8)"/>
<path d="M0 0 C0.99 0.33 1.98 0.66 3 1 C1.35 1.33 -0.3 1.66 -2 2 C-1.34 1.34 -0.68 0.68 0 0 Z " fill="#C9C9C9" transform="translate(24,8)"/>
<path d="M0 0 C0 0.99 0 1.98 0 3 C-0.66 2.67 -1.32 2.34 -2 2 C-1.34 1.34 -0.68 0.68 0 0 Z " fill="#656565" transform="translate(46,111)"/>
<path d="M0 0 C0.33 0 0.66 0 1 0 C1 1.65 1 3.3 1 5 C0.67 5 0.34 5 0 5 C0 3.35 0 1.7 0 0 Z " fill="#999999" transform="translate(1,38)"/>
<path d="M0 0 C0.33 0 0.66 0 1 0 C1 1.65 1 3.3 1 5 C0.67 5 0.34 5 0 5 C0 3.35 0 1.7 0 0 Z " fill="#6E6E6E" transform="translate(2,33)"/>
<path d="M0 0 C0.99 0.33 1.98 0.66 3 1 C2.67 1.66 2.34 2.32 2 3 C1.34 2.01 0.68 1.02 0 0 Z " fill="#D4D4D4" transform="translate(113,16)"/>
<path d="M0 0 C4 1 4 1 4 1 Z " fill="#9F9F9F" transform="translate(21,127)"/>
<path d="M0 0 C1 4 1 4 1 4 Z " fill="#B5B5B5" transform="translate(9,123)"/>
<path d="M0 0 C4 1 4 1 4 1 Z " fill="#9F9F9F" transform="translate(92,107)"/>
<path d="M0 0 C4 1 4 1 4 1 Z " fill="#9F9F9F" transform="translate(90,2)"/>
<path d="M0 0 C3 1 3 1 3 1 Z " fill="#A9A9A9" transform="translate(25,126)"/>
<path d="M0 0 C3 1 3 1 3 1 Z " fill="#636363" transform="translate(104,102)"/>
<path d="M0 0 C3 1 3 1 3 1 Z " fill="#C7C7C7" transform="translate(97,5)"/>
<path d="M0 0 C3 1 3 1 3 1 Z " fill="#B2B2B2" transform="translate(29,5)"/>
<path d="M0 0 C3 1 3 1 3 1 Z " fill="#9B9B9B" transform="translate(32,4)"/>
<path d="M0 0 C2 1 2 1 2 1 Z " fill="#7F7F7F" transform="translate(28,125)"/>
<path d="" fill="#7F7F7F" transform="translate(0,0)"/>
<path d="M0 0 C2 1 2 1 2 1 Z " fill="#949494" transform="translate(36,119)"/>
<path d="M0 0 C2 1 2 1 2 1 Z " fill="#7F7F7F" transform="translate(38,118)"/>
<path d="M0 0 C2 1 2 1 2 1 Z " fill="#3F3F3F" transform="translate(40,117)"/>
<path d="" fill="#FFFFFF" transform="translate(0,0)"/>
<path d="M0 0 C2 1 2 1 2 1 Z " fill="#7F7F7F" transform="translate(102,103)"/>
<path d="M0 0 C2 1 2 1 2 1 Z " fill="#3F3F3F" transform="translate(107,101)"/>
<path d="M0 0 C2 1 2 1 2 1 Z " fill="#949494" transform="translate(108,99)"/>
<path d="M0 0 C2 1 2 1 2 1 Z " fill="#7F7F7F" transform="translate(110,98)"/>
<path d="M0 0 C2 1 2 1 2 1 Z " fill="#3F3F3F" transform="translate(112,97)"/>
<path d="" fill="#3F3F3F" transform="translate(0,0)"/>
<path d="M0 0 C2 1 2 1 2 1 Z " fill="#BFBFBF" transform="translate(14,94)"/>
<path d="" fill="#6A6A6A" transform="translate(0,0)"/>
<path d="M0 0 C2 1 2 1 2 1 Z " fill="#D4D4D4" transform="translate(110,13)"/>
<path d="M0 0 C2 1 2 1 2 1 Z " fill="#D4D4D4" transform="translate(17,13)"/>
<path d="M0 0 C2 1 2 1 2 1 Z " fill="#D4D4D4" transform="translate(108,12)"/>
<path d="M0 0 C2 1 2 1 2 1 Z " fill="#9F9F9F" transform="translate(19,12)"/>
<path d="M0 0 C2 1 2 1 2 1 Z " fill="#D4D4D4" transform="translate(100,6)"/>
<path d="M0 0 C2 1 2 1 2 1 Z " fill="#7F7F7F" transform="translate(27,6)"/>
<path d="" fill="#7F7F7F" transform="translate(0,0)"/>
<path d="" fill="#999999" transform="translate(0,0)"/>
<path d="" fill="#7F7F7F" transform="translate(0,0)"/>
<path d="" fill="#FFFFFF" transform="translate(0,0)"/>
<path d="" fill="#7F7F7F" transform="translate(0,0)"/>
<path d="" fill="#7F7F7F" transform="translate(0,0)"/>
<path d="" fill="#AAAAAA" transform="translate(0,0)"/>
</svg>
