<?xml version="1.0" encoding="UTF-8"?>
<svg version="1.1" xmlns="http://www.w3.org/2000/svg" width="128" height="128">
<path d="M0 0 C21.78 0 43.56 0 66 0 C66.495 1.485 66.495 1.485 67 3 C67.66 3 68.32 3 69 3 C69 43.26 69 83.52 69 125 C67.515 125.495 67.515 125.495 66 126 C66 126.66 66 127.32 66 128 C44.22 128 22.44 128 0 128 C-0.33 127.01 -0.66 126.02 -1 125 C-1.66 125 -2.32 125 -3 125 C-3 84.74 -3 44.48 -3 3 C-2.01 2.67 -1.02 2.34 0 2 C0 1.34 0 0.68 0 0 Z " fill="#0D0D0D" transform="translate(31,0)"/>
<path d="M0 0 C21.78 0 43.56 0 66 0 C66.495 1.485 66.495 1.485 67 3 C67.66 3 68.32 3 69 3 C69 43.26 69 83.52 69 125 C67.515 125.495 67.515 125.495 66 126 C66 126.66 66 127.32 66 128 C44.22 128 22.44 128 0 128 C-0.33 127.01 -0.66 126.02 -1 125 C-1.66 125 -2.32 125 -3 125 C-3 84.74 -3 44.48 -3 3 C-2.01 2.67 -1.02 2.34 0 2 C0 1.34 0 0.68 0 0 Z M1.36379337 4.73287201 C-0.202146 7.33604127 -0.38087516 8.7608307 -0.39440918 11.7752533 C-0.40575897 12.73273972 -0.41710876 13.69022614 -0.42880249 14.67672729 C-0.42587189 15.72047516 -0.42294128 16.76422302 -0.41992188 17.83959961 C-0.42839142 18.9440593 -0.43686096 20.04851898 -0.44558716 21.18644714 C-0.46900996 24.84186275 -0.46997804 28.49685874 -0.46875 32.15234375 C-0.47584822 34.69055857 -0.48354672 37.22877178 -0.49182129 39.76698303 C-0.5052782 45.08909185 -0.5070102 50.41104535 -0.50097656 55.7331543 C-0.4943353 61.88067773 -0.51720403 68.02760123 -0.55429029 74.17500299 C-0.58870131 80.09423446 -0.59532305 86.01328102 -0.59120178 91.93261909 C-0.59289706 94.4488561 -0.60257849 96.96510071 -0.62034607 99.48127556 C-0.64244803 102.99833826 -0.63287673 106.51394869 -0.61523438 110.03100586 C-0.62849762 111.07272949 -0.64176086 112.11445312 -0.65542603 113.18774414 C-0.6012212 117.83170518 -0.51616962 120.25757574 2.18664551 124.14512634 C5.32966323 126.21735037 6.89904287 126.63165518 10.62890625 126.64697266 C11.73355225 126.66273346 12.83819824 126.67849426 13.97631836 126.69473267 C15.75147827 126.67955093 15.75147827 126.67955093 17.5625 126.6640625 C18.78654541 126.66884613 20.01059082 126.67362976 21.27172852 126.67855835 C23.8572722 126.68195778 26.44285884 126.67275263 29.02832031 126.65185547 C32.98600096 126.62509466 36.94084508 126.65160625 40.8984375 126.68359375 C43.41146459 126.68028966 45.92448992 126.67388347 48.4375 126.6640625 C49.62093994 126.67418365 50.80437988 126.68430481 52.02368164 126.69473267 C53.12832764 126.67897186 54.23297363 126.66321106 55.37109375 126.64697266 C56.33974365 126.64299469 57.30839355 126.63901672 58.30639648 126.63491821 C62.31813882 125.68929713 63.64524282 124.3926347 66 121 C66.72759369 117.30689501 66.67280163 113.67740938 66.63110352 109.92333984 C66.63825882 108.80576797 66.64541412 107.68819611 66.65278625 106.53675842 C66.66968919 102.84440182 66.65026205 99.15325634 66.62890625 95.4609375 C66.62973467 92.89694112 66.63219305 90.33294478 66.63621521 87.76895142 C66.63907418 82.39722311 66.62488885 77.02594345 66.59692383 71.65429688 C66.5648406 65.44370688 66.56490124 59.23374454 66.5821386 53.02310979 C66.59799761 47.04560255 66.59117923 41.06838769 66.57420158 35.0908699 C66.56900871 32.54788352 66.56951489 30.00487904 66.57574654 27.46189499 C66.58117855 23.91348727 66.56088771 20.36615623 66.53344727 16.81787109 C66.53997314 15.76117722 66.54649902 14.70448334 66.55322266 13.61576843 C66.5404982 12.65124252 66.52777374 11.68671661 66.5146637 10.69296265 C66.51185678 9.85417257 66.50904985 9.0153825 66.50615788 8.15117455 C66.16903025 5.83674624 66.16903025 5.83674624 64.1366272 4.23091984 C61.35077613 2.62597942 59.3852651 2.61277079 56.17749023 2.59594727 C55.00625107 2.58326309 53.8350119 2.57057892 52.62828064 2.55751038 C50.73753563 2.56191383 50.73753563 2.56191383 48.80859375 2.56640625 C47.51180191 2.5611644 46.21501007 2.55592255 44.87892151 2.55052185 C42.13768773 2.54159828 39.39674543 2.54400617 36.65551758 2.55395508 C33.14232695 2.56546338 29.63013868 2.54520297 26.11707973 2.51603794 C22.76419722 2.4932907 19.41155168 2.50014086 16.05859375 2.50390625 C14.16481239 2.48705528 14.16481239 2.48705528 12.23277283 2.46986389 C11.06468582 2.47924484 9.89659882 2.48862579 8.69311523 2.49829102 C7.66371323 2.49845718 6.63431122 2.49862335 5.57371521 2.49879456 C2.91013459 2.75817842 2.91013459 2.75817842 1.36379337 4.73287201 Z " fill="#A6A7A7" transform="translate(31,0)"/>
<path d="M0 0 C0.96961166 0.00142502 1.93922333 0.00285004 2.93821716 0.00431824 C4.03597977 0.00124161 5.13374237 -0.00183502 6.26477051 -0.00500488 C7.45436874 0.00218063 8.64396698 0.00936615 9.86961365 0.01676941 C11.692985 0.01745674 11.692985 0.01745674 13.55319214 0.01815796 C16.12636794 0.0211832 18.69954187 0.02907753 21.27268982 0.04142761 C25.22758924 0.05967762 29.18225466 0.06193741 33.13719177 0.06169128 C35.63133444 0.06660647 38.1254755 0.07243479 40.61961365 0.07926941 C41.81123611 0.08038223 43.00285858 0.08149506 44.23059082 0.0826416 C45.87250648 0.09221138 45.87250648 0.09221138 47.54759216 0.10197449 C48.51640823 0.10578629 49.4852243 0.10959808 50.48339844 0.11352539 C52.6782074 0.24723816 52.6782074 0.24723816 53.6782074 1.24723816 C53.80308497 3.05651097 53.85391586 4.87119923 53.8657074 6.68473816 C53.87988708 7.6734491 53.89406677 8.66216003 53.90867615 9.68083191 C53.6782074 12.24723816 53.6782074 12.24723816 51.6782074 14.24723816 C49.40110779 14.50120544 49.40110779 14.50120544 46.52586365 14.50602722 C45.45134949 14.51233154 44.37683533 14.51863586 43.26976013 14.52513123 C42.10517273 14.52108276 40.94058533 14.5170343 39.7407074 14.51286316 C38.54969421 14.51477661 37.35868103 14.51669006 36.13157654 14.5186615 C33.60968312 14.52002446 31.08778271 14.51632032 28.56590271 14.50798035 C24.69432391 14.49728269 20.82320918 14.50787222 16.9516449 14.52067566 C14.50633137 14.51935408 12.06101813 14.51679173 9.6157074 14.51286316 C7.86882629 14.51893585 7.86882629 14.51893585 6.08665466 14.52513123 C4.47488342 14.51567474 4.47488342 14.51567474 2.83055115 14.50602722 C1.4073053 14.50364044 1.4073053 14.50364044 -0.04469299 14.50120544 C-2.3217926 14.24723816 -2.3217926 14.24723816 -4.3217926 12.24723816 C-4.5874176 9.93473816 -4.5874176 9.93473816 -4.5717926 7.24723816 C-4.57694885 6.36036316 -4.5821051 5.47348816 -4.5874176 4.55973816 C-4.21287589 1.29902211 -3.26513934 0.34769128 0 0 Z " fill="#4D6059" transform="translate(39.32179260253906,107.75276184082031)"/>
<path d="M0 0 C1.258125 -0.04125 2.51625 -0.0825 3.8125 -0.125 C4.52019531 -0.14820313 5.22789063 -0.17140625 5.95703125 -0.1953125 C8 0 8 0 11 2 C11.99 1.34 12.98 0.68 14 0 C16.76020996 -0.37167184 19.18852476 -0.17850636 22 0 C24 2 24 2 24.125 5.125 C24.08375 6.07375 24.0425 7.0225 24 8 C24.66 8 25.32 8 26 8 C25.95875 7.05125 25.9175 6.1025 25.875 5.125 C26 2 26 2 28 0 C30.71454956 -0.32752234 33.25230759 -0.1308425 36 0 C37.87264676 1.87264676 37.23607378 4.49759947 37.328125 6.9921875 C36.89999006 9.6119656 36.09670011 10.40858573 34 12 C32.0625 12.66796875 32.0625 12.66796875 30 13.1875 C27.36672066 14.08136546 26.28810707 14.5165661 24.84765625 16.93359375 C24.12872996 18.94014922 23.55765107 20.94452582 23 23 C22 24 22 24 20.1875 24.1328125 C19.465625 24.13023438 18.74375 24.12765625 18 24.125 C17.278125 24.12757812 16.55625 24.13015625 15.8125 24.1328125 C14 24 14 24 13 23 C12.63239269 20.67182036 12.29758419 18.3381615 12 16 C11.01 15.67 10.02 15.34 9 15 C9.020625 16.299375 9.04125 17.59875 9.0625 18.9375 C9.08399454 20.29165633 9.07148199 21.64756083 9 23 C8 24 8 24 4.5 24.125 C1 24 1 24 0 23 C-0.14115161 20.32941149 -0.04247107 17.67567762 0 15 C1.98 14.34 3.96 13.68 6 13 C5.071875 12.566875 5.071875 12.566875 4.125 12.125 C2 11 2 11 0 9 C-0.1953125 6.8359375 -0.1953125 6.8359375 -0.125 4.375 C-0.10695312 3.55773437 -0.08890625 2.74046875 -0.0703125 1.8984375 C-0.04710937 1.27195312 -0.02390625 0.64546875 0 0 Z " fill="#282929" transform="translate(39,16)"/>
<path d="M0 0 C1.28132813 0.00902344 2.56265625 0.01804687 3.8828125 0.02734375 C5.36394531 0.04474609 5.36394531 0.04474609 6.875 0.0625 C6.875 1.0525 6.875 2.0425 6.875 3.0625 C6.215 3.0625 5.555 3.0625 4.875 3.0625 C4.91625 4.17625 4.9575 5.29 5 6.4375 C4.875 10.0625 4.875 10.0625 2.875 12.0625 C-2.52483611 13.41032639 -8.03399256 13.2107453 -13.5625 13.1875 C-14.47837891 13.19136719 -15.39425781 13.19523437 -16.33789062 13.19921875 C-30.00790798 13.17959202 -30.00790798 13.17959202 -32.125 11.0625 C-32.26615161 8.39191149 -32.16747107 5.73817762 -32.125 3.0625 C-29.155 3.0625 -26.185 3.0625 -23.125 3.0625 C-22.795 5.7025 -22.465 8.3425 -22.125 11.0625 C-21.465 11.0625 -20.805 11.0625 -20.125 11.0625 C-19.795 8.4225 -19.465 5.7825 -19.125 3.0625 C-16.155 3.0625 -13.185 3.0625 -10.125 3.0625 C-10.125 6.0325 -10.125 9.0025 -10.125 12.0625 C-8.475 12.0625 -6.825 12.0625 -5.125 12.0625 C-5.125 8.7625 -5.125 5.4625 -5.125 2.0625 C-6.445 1.7325 -7.765 1.4025 -9.125 1.0625 C-6.12186252 -0.43906874 -3.33432478 -0.03031204 0 0 Z " fill="#586A66" transform="translate(85.125,107.9375)"/>
<path d="M0 0 C20.79 0 41.58 0 63 0 C63.495 1.485 63.495 1.485 64 3 C64.66 3 65.32 3 66 3 C66 43.26 66 83.52 66 125 C64.35 125.33 62.7 125.66 61 126 C61.3242565 125.44074955 61.64851299 124.8814991 61.98259544 124.30530167 C63.12785405 121.71029995 63.26011903 119.94166993 63.2784729 117.11517334 C63.28963638 116.13363281 63.30079987 115.15209229 63.31230164 114.14080811 C63.31446182 113.07050354 63.31662201 112.00019897 63.31884766 110.89746094 C63.33391609 109.1994635 63.33391609 109.1994635 63.34928894 107.46716309 C63.38019695 103.72290559 63.39717748 99.97871984 63.4140625 96.234375 C63.43276799 93.63933695 63.45234093 91.04430502 63.4727478 88.44927979 C63.51888651 82.31539357 63.55627127 76.18151114 63.58942068 70.04754281 C63.62765355 63.06324521 63.67706063 56.07904062 63.72740483 49.09482145 C63.83070055 34.72995113 63.91996861 20.36501783 64 6 C63.195625 5.690625 62.39125 5.38125 61.5625 5.0625 C59 4 59 4 58 3 C56.1903226 2.87669912 54.37592163 2.82209817 52.56225586 2.79467773 C50.82056374 2.7647599 50.82056374 2.7647599 49.04368591 2.73423767 C47.780168 2.71752518 46.51665009 2.70081268 45.21484375 2.68359375 C43.92888809 2.66281265 42.64293243 2.64203156 41.31800842 2.62062073 C37.89364096 2.56533824 34.4692125 2.51595639 31.04473877 2.46777344 C27.55255686 2.41760335 24.0604639 2.3618939 20.56835938 2.30664062 C13.71231667 2.1989836 6.85619367 2.09755551 0 2 C0 1.34 0 0.68 0 0 Z " fill="#B2B2B2" transform="translate(34,0)"/>
<path d="M0 0 C0.99 0.33 1.98 0.66 3 1 C4.88591396 1.11643579 6.77550782 1.17663461 8.66479492 1.20532227 C9.82577194 1.22526749 10.98674896 1.24521271 12.1829071 1.26576233 C14.06270012 1.29083107 14.06270012 1.29083107 15.98046875 1.31640625 C17.26359451 1.33718735 18.54672028 1.35796844 19.86872864 1.37937927 C23.27662815 1.43451906 26.68458741 1.48396389 30.09259033 1.53222656 C33.57154648 1.58250079 37.05041607 1.63815591 40.52929688 1.69335938 C47.35278951 1.80084189 54.17636036 1.90230877 61 2 C61 2.33 61 2.66 61 3 C59.91671921 3.00879936 59.91671921 3.00879936 58.81155396 3.01777649 C52.01311259 3.07562604 45.21495436 3.14765773 38.41684151 3.23571491 C34.92163513 3.2804861 31.42654712 3.31972669 27.93115234 3.34643555 C23.914736 3.3773659 19.89895633 3.43215643 15.8828125 3.48828125 C14.62445587 3.49467117 13.36609924 3.5010611 12.0696106 3.50764465 C10.32803177 3.53733589 10.32803177 3.53733589 8.55126953 3.56762695 C7.01238571 3.58428154 7.01238571 3.58428154 5.44241333 3.60127258 C4.23341873 3.79864265 4.23341873 3.79864265 3 4 C0.86776917 7.19834624 0.74935043 7.99891682 0.74603271 11.66845703 C0.74039307 12.62745911 0.73475342 13.58646118 0.72894287 14.57452393 C0.73299133 15.62500916 0.73703979 16.67549438 0.74121094 17.7578125 C0.7377063 18.86533875 0.73420166 19.97286499 0.73059082 21.11395264 C0.7217697 24.78436503 0.72762411 28.45458555 0.734375 32.125 C0.73302846 34.66943397 0.73108803 37.21386769 0.72857666 39.75830078 C0.72562487 45.09475386 0.72973477 50.43113781 0.73925781 55.76757812 C0.75014231 61.9382146 0.74661669 68.10871892 0.735605 74.27935219 C0.725438 80.21405769 0.72651088 86.14872209 0.73236847 92.08343506 C0.73370538 94.60968036 0.73205581 97.13592903 0.72740936 99.66217041 C0.72234669 103.18893448 0.73005096 106.71544256 0.74121094 110.2421875 C0.73716248 111.29267273 0.73311401 112.34315796 0.72894287 113.42547607 C0.73458252 114.38447815 0.74022217 115.34348022 0.74603271 116.33154297 C0.74716379 117.58256302 0.74716379 117.58256302 0.74831772 118.8588562 C0.87084154 121.29784878 0.87084154 121.29784878 3 124 C1.68 123.34 0.36 122.68 -1 122 C-1.02334775 106.5361429 -1.04098842 91.07228712 -1.05181217 75.60841656 C-1.05697113 68.42847289 -1.06400624 61.24854016 -1.07543945 54.06860352 C-1.08539848 47.81146465 -1.09185634 41.55433372 -1.09408849 35.29718715 C-1.09539352 31.98328178 -1.09898838 28.66940441 -1.10573006 25.35550499 C-1.11295428 21.65845756 -1.11399035 17.96145761 -1.11352539 14.2644043 C-1.11712067 13.16245224 -1.12071594 12.06050018 -1.12442017 10.92515564 C-1.1230455 9.91974731 -1.12167084 8.91433899 -1.12025452 7.87846375 C-1.12117631 7.0036822 -1.1220981 6.12890066 -1.12304783 5.22761059 C-1 3 -1 3 0 0 Z " fill="#878787" transform="translate(31,0)"/>
<path d="M0 0 C0.33 0 0.66 0 1 0 C1.05391993 1.79133978 1.09275571 3.58313899 1.125 5.375 C1.14820313 6.37273437 1.17140625 7.37046875 1.1953125 8.3984375 C1 11 1 11 -1 13 C-3.29055786 13.24050903 -3.29055786 13.24050903 -6.18408203 13.22705078 C-7.26505157 13.22689972 -8.34602112 13.22674866 -9.45974731 13.22659302 C-10.63060883 13.21627045 -11.80147034 13.20594788 -13.0078125 13.1953125 C-14.20356903 13.1924826 -15.39932556 13.18965271 -16.63131714 13.18673706 C-20.46264519 13.17551305 -24.29374222 13.15040431 -28.125 13.125 C-30.71744455 13.11497308 -33.30989275 13.10584673 -35.90234375 13.09765625 C-42.26830842 13.07556646 -48.63413771 13.04206706 -55 13 C-51.71536341 10.81024227 -48.79303725 10.00193437 -45 9 C-45 6.36 -45 3.72 -45 1 C-43.02 1 -41.04 1 -39 1 C-38.67 3.97 -38.34 6.94 -38 10 C-32.14282859 11.00569564 -26.43658794 11.18330156 -20.5 11.1875 C-19.58863281 11.19974609 -18.67726562 11.21199219 -17.73828125 11.22460938 C-12.42141046 11.23611775 -8.02850997 10.74754536 -3 9 C-2.67 6.69 -2.34 4.38 -2 2 C-1.34 2 -0.68 2 0 2 C0 1.34 0 0.68 0 0 Z " fill="#3B3738" transform="translate(92,109)"/>
<path d="M0 0 C5.80239614 -0.04934656 11.60467081 -0.08569402 17.40722656 -0.10986328 C19.38218309 -0.11993627 21.35712466 -0.13359521 23.33203125 -0.15087891 C26.16670418 -0.17507039 29.00118038 -0.18646991 31.8359375 -0.1953125 C32.72243988 -0.20563507 33.60894226 -0.21595764 34.52230835 -0.22659302 C36.68285952 -0.2269907 38.84293718 -0.12272534 41 0 C43 2 43 2 43.1953125 4.3828125 C43.17210937 5.28773437 43.14890625 6.19265625 43.125 7.125 C43.10695312 8.03507812 43.08890625 8.94515625 43.0703125 9.8828125 C43.04710937 10.58148438 43.02390625 11.28015625 43 12 C41.35 12 39.7 12 38 12 C38 9.03 38 6.06 38 3 C35.03 3 32.06 3 29 3 C29 5.97 29 8.94 29 12 C27.68 12 26.36 12 25 12 C24.93941406 11.36191406 24.87882812 10.72382812 24.81640625 10.06640625 C24.69072266 8.82697266 24.69072266 8.82697266 24.5625 7.5625 C24.48128906 6.73878906 24.40007813 5.91507812 24.31640625 5.06640625 C24.21069185 3.01337975 24.21069185 3.01337975 23 2 C21.46088268 1.93735824 19.91896318 1.94055073 18.37890625 1.97265625 C16.97608398 1.99102539 16.97608398 1.99102539 15.54492188 2.00976562 C13.56047263 2.04485412 11.57608934 2.08390141 9.59179688 2.12695312 C8.65529297 2.13791016 7.71878906 2.14886719 6.75390625 2.16015625 C5.89095947 2.17699463 5.0280127 2.19383301 4.13891602 2.21118164 C2 2 2 2 0 0 Z " fill="#50544F" transform="translate(37,108)"/>
<path d="M0 0 C3.63 0 7.26 0 11 0 C10.67 1.98 10.34 3.96 10 6 C12.475 6.495 12.475 6.495 15 7 C15 7.33 15 7.66 15 8 C12.69 8.33 10.38 8.66 8 9 C7.34 11.31 6.68 13.62 6 16 C5.34 16 4.68 16 4 16 C3.34 13.69 2.68 11.38 2 9 C-0.31 8.67 -2.62 8.34 -5 8 C-4.34 7.01 -3.68 6.02 -3 5 C-1.68 5 -0.36 5 1 5 C1 4.34 1 3.68 1 3 C0.34 3 -0.32 3 -1 3 C-0.67 2.01 -0.34 1.02 0 0 Z " fill="#0F0F10" transform="translate(59,8)"/>
<path d="M0 0 C0.33 0 0.66 0 1 0 C1 38.94 1 77.88 1 118 C0.67 118 0.34 118 0 118 C0 79.06 0 40.12 0 0 Z " fill="#878788" transform="translate(101,5)"/>
<path d="M0 0 C0.33 0 0.66 0 1 0 C1 38.94 1 77.88 1 118 C0.67 118 0.34 118 0 118 C0 79.06 0 40.12 0 0 Z " fill="#878788" transform="translate(26,5)"/>
<path d="M0 0 C6.15234375 -0.09765625 6.15234375 -0.09765625 8 0 C9 1 9 1 9.125 4.5 C9 8 9 8 8 9 C5.32941149 9.14115161 2.67567762 9.04247107 0 9 C0 6.03 0 3.06 0 0 Z " fill="#1895CC" transform="translate(39,90)"/>
<path d="M0 0 C2.05078125 0.03255208 4.1015625 0.06510417 6.15234375 0.09765625 C6.15234375 3.06765625 6.15234375 6.03765625 6.15234375 9.09765625 C0 9.1953125 0 9.1953125 -1.84765625 9.09765625 C-2.84765625 8.09765625 -2.84765625 8.09765625 -2.97265625 4.59765625 C-2.81376564 0.14871911 -2.81376564 0.14871911 0 0 Z " fill="#DDDDDD" transform="translate(68.84765625,89.90234375)"/>
<path d="M0 0 C6.15234375 -0.09765625 6.15234375 -0.09765625 8 0 C9 1 9 1 9.125 4.5 C9 8 9 8 8 9 C5.32941149 9.14115161 2.67567762 9.04247107 0 9 C0 6.03 0 3.06 0 0 Z " fill="#DEDEDE" transform="translate(39,75)"/>
<path d="M0 0 C6.15234375 -0.09765625 6.15234375 -0.09765625 8 0 C9 1 9 1 9.125 4.5 C9 8 9 8 8 9 C5.32941149 9.14115161 2.67567762 9.04247107 0 9 C0 6.03 0 3.06 0 0 Z " fill="#C245BB" transform="translate(53,60)"/>
<path d="M0 0 C2.97 0 5.94 0 9 0 C9.09765625 6.15234375 9.09765625 6.15234375 9 8 C8 9 8 9 4.5 9.125 C1 9 1 9 0 8 C-0.14115161 5.32941149 -0.04247107 2.67567762 0 0 Z " fill="#AE9D85" transform="translate(66,31)"/>
<path d="M0 0 C6.15234375 -0.09765625 6.15234375 -0.09765625 8 0 C9 1 9 1 9.125 4.5 C9 8 9 8 8 9 C5.32941149 9.14115161 2.67567762 9.04247107 0 9 C0 6.03 0 3.06 0 0 Z " fill="#44BF58" transform="translate(39,16)"/>
<path d="M0 0 C3.5 0.125 3.5 0.125 4.5 1.125 C4.64115161 3.79558851 4.54247107 6.44932238 4.5 9.125 C-1.65234375 9.22265625 -1.65234375 9.22265625 -3.5 9.125 C-4.5 8.125 -4.5 8.125 -4.625 4.625 C-4.46551724 0.15948276 -4.46551724 0.15948276 0 0 Z " fill="#585858" transform="translate(70.5,74.875)"/>
<path d="M0 0 C3.5 0.125 3.5 0.125 4.5 1.125 C4.64115161 3.79558851 4.54247107 6.44932238 4.5 9.125 C-1.65234375 9.22265625 -1.65234375 9.22265625 -3.5 9.125 C-4.5 8.125 -4.5 8.125 -4.625 4.625 C-4.46551724 0.15948276 -4.46551724 0.15948276 0 0 Z " fill="#1AA1DD" transform="translate(70.5,59.875)"/>
<path d="M0 0 C3.5 0.125 3.5 0.125 4.5 1.125 C4.625 4.625 4.625 4.625 4.5 8.125 C3.5 9.125 3.5 9.125 1.65234375 9.22265625 C-0.3984375 9.19010417 -2.44921875 9.15755208 -4.5 9.125 C-4.59765625 2.97265625 -4.59765625 2.97265625 -4.5 1.125 C-3.5 0.125 -3.5 0.125 0 0 Z " fill="#46C0C8" transform="translate(43.5,59.875)"/>
<path d="M0 0 C3.5 0.125 3.5 0.125 4.5 1.125 C4.64115161 3.79558851 4.54247107 6.44932238 4.5 9.125 C-1.65234375 9.22265625 -1.65234375 9.22265625 -3.5 9.125 C-4.5 8.125 -4.5 8.125 -4.625 4.625 C-4.46551724 0.15948276 -4.46551724 0.15948276 0 0 Z " fill="#C77201" transform="translate(84.5,59.875)"/>
<path d="M0 0 C6.15234375 -0.09765625 6.15234375 -0.09765625 8 0 C9 1 9 1 9.125 4.5 C9 8 9 8 8 9 C4.5 9.125 4.5 9.125 1 9 C0 8 0 8 -0.09765625 6.15234375 C-0.06510417 4.1015625 -0.03255208 2.05078125 0 0 Z " fill="#1894CA" transform="translate(39,31)"/>
<path d="M0 0 C2.05078125 0.03255208 4.1015625 0.06510417 6.15234375 0.09765625 C6.25 6.25 6.25 6.25 6.15234375 8.09765625 C5.15234375 9.09765625 5.15234375 9.09765625 1.65234375 9.22265625 C-1.84765625 9.09765625 -1.84765625 9.09765625 -2.84765625 8.09765625 C-2.97265625 4.59765625 -2.97265625 4.59765625 -2.84765625 1.09765625 C-1.84765625 0.09765625 -1.84765625 0.09765625 0 0 Z " fill="#50C2D7" transform="translate(82.84765625,30.90234375)"/>
<path d="M0 0 C3.5 0.125 3.5 0.125 4.5 1.125 C4.625 4.625 4.625 4.625 4.5 8.125 C3.5 9.125 3.5 9.125 0 9.25 C-3.5 9.125 -3.5 9.125 -4.5 8.125 C-4.625 4.625 -4.625 4.625 -4.5 1.125 C-3.5 0.125 -3.5 0.125 0 0 Z " fill="#9A9A9A" transform="translate(84.5,74.875)"/>
<path d="M0 0 C3.5 0.125 3.5 0.125 4.5 1.125 C4.625 4.625 4.625 4.625 4.5 8.125 C3.5 9.125 3.5 9.125 0 9.25 C-3.5 9.125 -3.5 9.125 -4.5 8.125 C-4.625 4.625 -4.625 4.625 -4.5 1.125 C-3.5 0.125 -3.5 0.125 0 0 Z " fill="#8C8C8C" transform="translate(84.5,15.875)"/>
<path d="M0 0 C1.98 0 3.96 0 6 0 C6.33 2.97 6.66 5.94 7 9 C9.31 9.33 11.62 9.66 14 10 C14 10.33 14 10.66 14 11 C7.07 11 0.14 11 -7 11 C-7 10.67 -7 10.34 -7 10 C-4.69 9.34 -2.38 8.68 0 8 C0 5.36 0 2.72 0 0 Z " fill="#51585B" transform="translate(47,110)"/>
<path d="M0 0 C2.64 0 5.28 0 8 0 C8 2.97 8 5.94 8 9 C5.36 9 2.72 9 0 9 C0 6.03 0 3.06 0 0 Z " fill="#D85E56" transform="translate(53,90)"/>
<path d="M0 0 C2.64 0 5.28 0 8 0 C8 2.97 8 5.94 8 9 C5.36 9 2.72 9 0 9 C0 6.03 0 3.06 0 0 Z " fill="#E6D458" transform="translate(53,75)"/>
<path d="M0 0 C2.97 0 5.94 0 9 0 C9 2.64 9 5.28 9 8 C6.03 8 3.06 8 0 8 C0 5.36 0 2.72 0 0 Z " fill="#DE5F58" transform="translate(66,46)"/>
<path d="M0 0 C2.97 0 5.94 0 9 0 C9 2.64 9 5.28 9 8 C6.03 8 3.06 8 0 8 C0 5.36 0 2.72 0 0 Z " fill="#E5E5E5" transform="translate(53,46)"/>
<path d="M0 0 C2.64 0 5.28 0 8 0 C8 2.97 8 5.94 8 9 C5.36 9 2.72 9 0 9 C0 6.03 0 3.06 0 0 Z " fill="#E7E7E7" transform="translate(53,16)"/>
<path d="M0 0 C2.97 0 5.94 0 9 0 C9.04241723 2.33294775 9.04092937 4.66702567 9 7 C8 8 8 8 6.15234375 8.09765625 C4.1015625 8.06510417 2.05078125 8.03255208 0 8 C0 5.36 0 2.72 0 0 Z " fill="#4CE065" transform="translate(39,111)"/>
<path d="M0 0 C2.97 0 5.94 0 9 0 C9.04241723 2.33294775 9.04092937 4.66702567 9 7 C8 8 8 8 6.15234375 8.09765625 C4.1015625 8.06510417 2.05078125 8.03255208 0 8 C0 5.36 0 2.72 0 0 Z " fill="#E8D559" transform="translate(39,46)"/>
<path d="M0 0 C2.97 0 5.94 0 9 0 C9 2.64 9 5.28 9 8 C2.84765625 8.09765625 2.84765625 8.09765625 1 8 C0 7 0 7 -0.0625 3.4375 C-0.041875 2.303125 -0.02125 1.16875 0 0 Z " fill="#626262" transform="translate(80,46)"/>
<path d="M0 0 C2.64 0 5.28 0 8 0 C8 2.64 8 5.28 8 8 C5.36 8 2.72 8 0 8 C0 5.36 0 2.72 0 0 Z " fill="#F5F5F5" transform="translate(81,111)"/>
<path d="M0 0 C2.64 0 5.28 0 8 0 C8 2.64 8 5.28 8 8 C5.36 8 2.72 8 0 8 C0 5.36 0 2.72 0 0 Z " fill="#4CD864" transform="translate(67,111)"/>
<path d="M0 0 C2.64 0 5.28 0 8 0 C8 2.64 8 5.28 8 8 C5.36 8 2.72 8 0 8 C0 5.36 0 2.72 0 0 Z " fill="#18C5F2" transform="translate(53,111)"/>
<path d="M0 0 C2.64 0 5.28 0 8 0 C8 2.64 8 5.28 8 8 C5.36 8 2.72 8 0 8 C0 5.36 0 2.72 0 0 Z " fill="#DBA3E4" transform="translate(67,16)"/>
<path d="M0 0 C0.33 0 0.66 0 1 0 C1.02687279 1.81242052 1.04633715 3.62495233 1.0625 5.4375 C1.07410156 6.44683594 1.08570312 7.45617187 1.09765625 8.49609375 C1 11 1 11 0 12 C-1.68608966 12.07205511 -3.37500659 12.08386068 -5.0625 12.0625 C-5.98160156 12.05347656 -6.90070313 12.04445313 -7.84765625 12.03515625 C-8.55792969 12.02355469 -9.26820312 12.01195313 -10 12 C-10 11.67 -10 11.34 -10 11 C-7.69 10.34 -5.38 9.68 -3 9 C-2.67 6.69 -2.34 4.38 -2 2 C-1.34 2 -0.68 2 0 2 C0 1.34 0 0.68 0 0 Z " fill="#4B4B4B" transform="translate(92,109)"/>
<path d="M0 0 C1.32 0 2.64 0 4 0 C4 3.3 4 6.6 4 10 C2.35 10 0.7 10 -1 10 C-0.67 6.7 -0.34 3.4 0 0 Z " fill="#4C4A4C" transform="translate(76,110)"/>
<path d="M0 0 C0.33 0 0.66 0 1 0 C1 2.31 1 4.62 1 7 C3.64 7 6.28 7 9 7 C9 4.69 9 2.38 9 0 C9.33 0 9.66 0 10 0 C10 2.64 10 5.28 10 8 C8.35567294 8.36109542 6.7094792 8.71370076 5.0625 9.0625 C3.68771484 9.35833984 3.68771484 9.35833984 2.28515625 9.66015625 C1.53105469 9.77230469 0.77695313 9.88445313 0 10 C-1 9 -1 9 -1.1328125 7.1875 C-1.13023438 6.465625 -1.12765625 5.74375 -1.125 5 C-1.12757812 4.278125 -1.13015625 3.55625 -1.1328125 2.8125 C-1 1 -1 1 0 0 Z " fill="#47364A" transform="translate(66,17)"/>
<path d="M0 0 C1.98 0 3.96 0 6 0 C5.67 2.97 5.34 5.94 5 9 C3.68 9 2.36 9 1 9 C0.67 6.03 0.34 3.06 0 0 Z " fill="#504A4A" transform="translate(47,110)"/>
<path d="M0 0 C1.98 0 3.96 0 6 0 C6 1.98 6 3.96 6 6 C4.02 6 2.04 6 0 6 C0 4.02 0 2.04 0 0 Z " fill="#FE9300" transform="translate(82,62)"/>
<path d="M0 0 C3.63 0 7.26 0 11 0 C11 0.99 11 1.98 11 3 C7.04 3 3.08 3 -1 3 C-0.67 2.01 -0.34 1.02 0 0 Z " fill="#1F1F1F" transform="translate(59,8)"/>
<path d="M0 0 C1.98 0 3.96 0 6 0 C6 1.65 6 3.3 6 5 C4.02 5.33 2.04 5.66 0 6 C0 4.02 0 2.04 0 0 Z " fill="#1CB8FC" transform="translate(40,32)"/>
<path d="M0 0 C0.33 0 0.66 0 1 0 C1 2.31 1 4.62 1 7 C2.65 6.67 4.3 6.34 6 6 C6.33 4.02 6.66 2.04 7 0 C7.66 0 8.32 0 9 0 C9.04241723 2.33294775 9.04092937 4.66702567 9 7 C8 8 8 8 6.15234375 8.09765625 C4.1015625 8.06510417 2.05078125 8.03255208 0 8 C0 5.36 0 2.72 0 0 Z " fill="#4CC060" transform="translate(39,111)"/>
<path d="M0 0 C2.31 0 4.62 0 7 0 C7 1.98 7 3.96 7 6 C5.35 5.67 3.7 5.34 2 5 C2 4.01 2 3.02 2 2 C1.34 2 0.68 2 0 2 C0 1.34 0 0.68 0 0 Z " fill="#DBC5A7" transform="translate(67,32)"/>
<path d="M0 0 C1.65 0 3.3 0 5 0 C5 1.65 5 3.3 5 5 C3.02 5 1.04 5 -1 5 C-0.67 3.35 -0.34 1.7 0 0 Z " fill="#686868" transform="translate(68,78)"/>
<path d="M0 0 C1.134375 0.020625 2.26875 0.04125 3.4375 0.0625 C3.4375 0.3925 3.4375 0.7225 3.4375 1.0625 C1.4575 1.0625 -0.5225 1.0625 -2.5625 1.0625 C-2.376875 1.84625 -2.19125 2.63 -2 3.4375 C-1.5625 6.0625 -1.5625 6.0625 -2.5625 8.0625 C-0.5825 8.0625 1.3975 8.0625 3.4375 8.0625 C3.4375 8.3925 3.4375 8.7225 3.4375 9.0625 C1.10455225 9.10491723 -1.22952567 9.10342937 -3.5625 9.0625 C-4.5625 8.0625 -4.5625 8.0625 -4.6875 4.5625 C-4.52739028 0.0794279 -4.52739028 0.0794279 0 0 Z " fill="#737373" transform="translate(84.5625,74.9375)"/>
<path d="M0 0 C1.98 0 3.96 0 6 0 C5.67 1.98 5.34 3.96 5 6 C3.68 6 2.36 6 1 6 C0.67 4.02 0.34 2.04 0 0 Z " fill="#1DB7FB" transform="translate(40,91)"/>
<path d="M0 0 C0 0.66 0 1.32 0 2 C-0.66 2 -1.32 2 -2 2 C-2 4.31 -2 6.62 -2 9 C-2.33 9 -2.66 9 -3 9 C-3 6.69 -3 4.38 -3 2 C-5.64 2 -8.28 2 -11 2 C-11 1.67 -11 1.34 -11 1 C-3.375 0 -3.375 0 0 0 Z " fill="#808080" transform="translate(92,109)"/>
<path d="M0 0 C0.99 0.33 1.98 0.66 3 1 C3 3.31 3 5.62 3 8 C2.01 8 1.02 8 0 8 C0 5.36 0 2.72 0 0 Z " fill="#040202" transform="translate(76,31)"/>
<path d="M0 0 C1.32 0 2.64 0 4 0 C4 1.65 4 3.3 4 5 C2.68 5 1.36 5 0 5 C0 3.35 0 1.7 0 0 Z " fill="#ED655D" transform="translate(55,92)"/>
<path d="M0 0 C2.31 0 4.62 0 7 0 C6.67 0.66 6.34 1.32 6 2 C6.66 2.66 7.32 3.32 8 4 C5.69 4 3.38 4 1 4 C1.33 3.34 1.66 2.68 2 2 C1.34 1.34 0.68 0.68 0 0 Z " fill="#040202" transform="translate(81,26)"/>
<path d="M0 0 C0.66 0.33 1.32 0.66 2 1 C2.33 1.99 2.66 2.98 3 4 C2.34 4.66 1.68 5.32 1 6 C-0.32 4.68 -1.64 3.36 -3 2 C-2.01 1.34 -1.02 0.68 0 0 Z " fill="#979797" transform="translate(95,0)"/>
<path d="M0 0 C0.33 1.32 0.66 2.64 1 4 C1.99 4 2.98 4 4 4 C4 4.66 4 5.32 4 6 C2.35 6 0.7 6 -1 6 C-1.042721 4.33388095 -1.04063832 2.66617115 -1 1 C-0.67 0.67 -0.34 0.34 0 0 Z " fill="#50E669" transform="translate(41,18)"/>
<path d="M0 0 C0.33 0.66 0.66 1.32 1 2 C0.34 1.67 -0.32 1.34 -1 1 C-0.67 0.67 -0.34 0.34 0 0 Z " fill="#9B9B9B" transform="translate(98,125)"/>
<path d="M0 0 C0.66 0.66 1.32 1.32 2 2 C1.34 2 0.68 2 0 2 C0 1.34 0 0.68 0 0 Z " fill="#9B9B9B" transform="translate(29,125)"/>
<path d="M0 0 C0.66 0 1.32 0 2 0 C1.67 0.66 1.34 1.32 1 2 C0.67 1.34 0.34 0.68 0 0 Z " fill="#9B9B9B" transform="translate(97,1)"/>
<path d="M0 0 C0.99 0.495 0.99 0.495 2 1 C1.01 1.495 1.01 1.495 0 2 C0 1.34 0 0.68 0 0 Z " fill="#9B9B9B" transform="translate(29,1)"/>
</svg>
